<?xml version="1.0" encoding="utf-8"?>
<!-- Generator: Adobe Illustrator 25.2.0, SVG Export Plug-In . SVG Version: 6.00 Build 0)  -->
<svg version="1.1" id="Layer_1" xmlns="http://www.w3.org/2000/svg" xmlns:xlink="http://www.w3.org/1999/xlink" x="0px" y="0px"
	 viewBox="0 0 1633 1127.5" style="enable-background:new 0 0 1633 1127.5;" xml:space="preserve">
<style type="text/css">
	.st0{fill:#FFFFFF;}
	.st1{fill-rule:evenodd;clip-rule:evenodd;fill:#1A47B6;}
	.st2{clip-path:url(#SVGID_2_);fill:url(#SVGID_3_);}
	.st3{clip-path:url(#SVGID_5_);fill:#FFFFFF;}
	.st4{clip-path:url(#SVGID_7_);fill:url(#SVGID_8_);}
	.st5{clip-path:url(#SVGID_10_);fill:url(#SVGID_11_);}
	.st6{fill:#003398;}
	.st7{fill:url(#SVGID_12_);}
	.st8{fill:#3DABF9;}
	.st9{clip-path:url(#SVGID_14_);fill:url(#SVGID_15_);}
	.st10{clip-path:url(#SVGID_17_);fill:url(#SVGID_18_);}
	.st11{fill:#76C5FB;}
	.st12{fill-rule:evenodd;clip-rule:evenodd;fill:#76C5FB;}
	.st13{fill-rule:evenodd;clip-rule:evenodd;fill:#FFFFFF;}
	.st14{fill:#1A47B6;}
	.st15{fill:#FCA700;}
	.st16{fill-rule:evenodd;clip-rule:evenodd;fill:#0094FF;}
	.st17{clip-path:url(#SVGID_20_);fill:url(#SVGID_21_);}
	.st18{clip-path:url(#SVGID_23_);fill:url(#SVGID_24_);}
	.st19{clip-path:url(#SVGID_26_);fill:url(#SVGID_27_);}
	.st20{fill-rule:evenodd;clip-rule:evenodd;fill:#F4B1B1;}
	.st21{fill-rule:evenodd;clip-rule:evenodd;fill:#E98385;}
	.st22{clip-path:url(#SVGID_29_);fill:url(#SVGID_30_);}
	.st23{clip-path:url(#SVGID_32_);fill:url(#SVGID_33_);}
	.st24{clip-path:url(#SVGID_35_);fill:url(#SVGID_36_);}
	.st25{fill:#F4B1B1;}
	.st26{clip-path:url(#SVGID_38_);fill:url(#SVGID_39_);}
	.st27{fill-rule:evenodd;clip-rule:evenodd;fill:#B8036F;}
	.st28{fill-rule:evenodd;clip-rule:evenodd;fill:#DC0482;}
	.st29{fill-rule:evenodd;clip-rule:evenodd;fill:#3B87C8;}
	.st30{fill-rule:evenodd;clip-rule:evenodd;fill:#A1C7E9;}
	.st31{clip-path:url(#SVGID_41_);fill:url(#SVGID_42_);}
	.st32{fill-rule:evenodd;clip-rule:evenodd;fill:#031542;}
	.st33{fill-rule:evenodd;clip-rule:evenodd;fill:#000446;}
</style>
<rect class="st0" width="1633" height="1127.5"/>
<path class="st1" d="M1604,1092.3h-9.7h-0.1h-0.1H43.6h-0.1h-0.1h-9.7c-4.7,0-8.5,2.4-8.5,5.4s3.8,5.4,8.5,5.4h12.5h1545.5h12.5
	c4.7,0,8.5-2.4,8.5-5.4C1612.5,1094.7,1608.7,1092.3,1604,1092.3"/>
<g>
	<g>
		<defs>
			<path id="SVGID_1_" d="M305.7,797.3H165.8c-75.4,0-136.9,65.9-136.9,146.3s61.6,146.3,136.9,146.3h1225
				c121.9,0,221.8-106.6,221.8-236.9s-99.8-236.9-221.8-236.9c-51.5,0-93.7-45.1-93.7-100.2s42.2-100.2,93.7-100.2h43.3
				c53.6,0,97.5-46.9,97.5-104.1c0-57.3-43.9-104.1-97.5-104.1h-194.4c-20.9,0-37.9-18.3-37.9-40.5c0-22.3,17-40.5,37.9-40.5h25.2
				c14.4,0,26.2-12.6,26.2-28l0,0c0-15.3-11.7-28-26.2-28h-94.3c0,0,27.7,0-7,0c-34.7,0-38.6,43.9-126.4,43.9
				c-135.7,0-337.3,0-473,0c-18.8,0-34.2,16.5-34.2,36.5l0,0c0,20.1,15.3,36.5,34.2,36.5h32.8c27.2,0,49.5,23.8,49.5,52.9
				s-22.3,52.9-49.5,52.9h-49.4c-133.3,0-152.2,37.2-175.5,111.3s-13.8,80.1-13.8,80.1h-75c-41.1,0-74.6,35.9-74.6,79.7
				s33.6,79.7,74.6,79.7h22.3c39.5,0,71.7,34.5,71.7,76.7C377.4,763.2,345.2,797.3,305.7,797.3z M1338.5,126.4
				c-14.4,0-26.2-12.5-26.2-28s11.7-28,26.2-28c14.4,0,26.2,12.5,26.2,28C1364.8,113.8,1353,126.4,1338.5,126.4z"/>
		</defs>
		<clipPath id="SVGID_2_">
			<use xlink:href="#SVGID_1_"  style="overflow:visible;"/>
		</clipPath>
		
			<linearGradient id="SVGID_3_" gradientUnits="userSpaceOnUse" x1="820.7461" y1="-1322.2725" x2="820.7461" y2="1255.3873" gradientTransform="matrix(1 0 0 -1 0 1125.8898)">
			<stop  offset="0.205" style="stop-color:#1E9DF8"/>
			<stop  offset="0.3015" style="stop-color:#41ACF9"/>
			<stop  offset="0.4844" style="stop-color:#7DC7FB"/>
			<stop  offset="0.6522" style="stop-color:#ADDBFD"/>
			<stop  offset="0.7995" style="stop-color:#CFEAFE"/>
			<stop  offset="0.9204" style="stop-color:#E4F4FF"/>
			<stop  offset="1" style="stop-color:#ECF7FF"/>
		</linearGradient>
		<rect x="28.9" y="70.4" class="st2" width="1583.7" height="1019.5"/>
	</g>
</g>
<g>
	<g>
		<g>
			<defs>
				<path id="SVGID_4_" d="M1543.4,844l-10.9-2.2c-4.5-0.9-8-4.8-8.2-9.3c-0.6-8.9-2.3-17.6-5.1-25.9c-1.5-4.4,0.3-9.2,4.2-11.8
					l9.2-6.1c4.8-3.2,6.1-9.6,3-14.4l-11.7-17.7c-3.2-4.8-9.6-6.1-14.4-2.9l-9.2,6.1c-3.9,2.6-9,2.2-12.5-0.8
					c-6.6-5.7-14-10.7-21.9-14.8c-4.1-2.1-6.3-6.7-5.4-11.3l2.2-10.9c1.1-5.7-2.5-11.1-8.1-12.2l-20.8-4.2
					c-5.7-1.1-11.1,2.5-12.2,8.1l-2.2,10.9c-0.9,4.5-4.7,8-9.3,8.2c-8.9,0.6-17.6,2.3-25.9,5.1c-4.5,1.5-9.2-0.3-11.8-4.2l-6.1-9.2
					c-3.2-4.8-9.6-6.1-14.4-2.9l-17.7,11.6c-4.8,3.2-6.1,9.6-2.9,14.4l6.1,9.2c2.6,3.9,2.2,9-0.8,12.5c-5.7,6.6-10.7,14-14.8,21.9
					c-2.1,4.1-6.7,6.3-11.2,5.4l-10.9-2.2c-5.7-1.1-11.1,2.5-12.2,8.1l-4.2,20.8c-1.1,5.7,2.5,11.1,8.1,12.2l10.9,2.2
					c4.5,0.9,8,4.7,8.2,9.3c0.6,8.9,2.3,17.6,5.1,25.9c1.5,4.5-0.3,9.2-4.1,11.8l-9.2,6.1c-4.8,3.2-6.1,9.6-2.9,14.4l11.6,17.6
					c3.2,4.8,9.6,6.1,14.4,2.9l9.2-6.1c3.9-2.6,9-2.2,12.5,0.8c6.6,5.7,14,10.7,21.9,14.8c4.1,2.1,6.3,6.8,5.4,11.3l-2.2,10.9
					c-1.2,5.7,2.5,11.1,8.1,12.2l20.8,4.3c5.7,1.1,11.1-2.5,12.2-8.1l2.2-10.9c0.9-4.5,4.7-8,9.3-8.2c8.9-0.6,17.6-2.3,25.9-5.1
					c4.4-1.5,9.2,0.3,11.8,4.1l6.1,9.2c3.2,4.8,9.6,6.1,14.4,2.9l17.6-11.7c4.8-3.2,6.1-9.6,2.9-14.4l-6.1-9.2
					c-2.6-3.9-2.2-9,0.8-12.5c5.7-6.6,10.8-13.9,14.8-21.9c2.1-4.1,6.7-6.3,11.2-5.4l10.9,2.2c5.7,1.1,11.1-2.5,12.2-8.1l4.2-20.8
					C1552.6,850.7,1549.1,845.1,1543.4,844 M1380.6,804.3c19.6-20.3,51.9-20.9,72.2-1.3c20.3,19.6,20.9,51.9,1.3,72.2
					c-19.6,20.3-51.9,20.9-72.2,1.3C1361.6,856.9,1361,824.6,1380.6,804.3z"/>
			</defs>
			<use xlink:href="#SVGID_4_"  style="overflow:visible;fill:#FFFFFF;"/>
			<clipPath id="SVGID_5_">
				<use xlink:href="#SVGID_4_"  style="overflow:visible;"/>
			</clipPath>
			<rect x="1281.9" y="704.4" class="st3" width="270.7" height="270.7"/>
		</g>
	</g>
</g>
<g>
	<g>
		<g>
			<defs>
				<path id="SVGID_6_" d="M959.6,461.9l-9.9-6.3c-4.1-2.6-6.1-7.7-4.6-12.3c2.7-9.1,4.3-18.3,4.8-27.5c0.2-4.9,3.8-9,8.5-10.1
					l11.5-2.6c5.9-1.3,9.7-7.2,8.4-13.1l-4.9-21.9c-1.3-5.9-7.2-9.7-13.1-8.3l-11.5,2.6c-4.8,1.1-9.7-1.2-12-5.4
					c-4.4-8.2-9.7-15.9-16.1-22.8c-3.3-3.6-3.7-9-1.1-13.1l6.2-9.9c3.2-5.1,1.7-11.9-3.4-15.2l-19-12c-5.1-3.2-11.9-1.7-15.2,3.4
					l-6.3,9.9c-2.6,4.1-7.7,6.1-12.3,4.6c-9.1-2.7-18.3-4.3-27.5-4.8c-4.9-0.2-9-3.8-10.1-8.5l-2.6-11.5c-1.3-5.9-7.2-9.7-13.1-8.3
					l-21.9,4.9c-6,1.3-9.7,7.2-8.4,13.1l2.6,11.5c1.1,4.8-1.2,9.7-5.5,12c-8.2,4.4-15.9,9.7-22.8,16.1c-3.6,3.3-9,3.8-13.1,1.1
					l-9.9-6.3c-5.1-3.2-11.9-1.7-15.2,3.4l-12,19c-3.2,5.1-1.7,11.9,3.4,15.2l9.9,6.2c4.1,2.6,6.1,7.7,4.6,12.3
					c-2.8,9-4.3,18.3-4.8,27.5c-0.2,4.9-3.8,9-8.5,10.1l-11.5,2.6c-6,1.3-9.8,7.2-8.4,13.1l4.9,21.9c1.3,5.9,7.2,9.7,13.1,8.3
					l11.4-2.6c4.8-1.1,9.7,1.2,12,5.5c4.4,8.2,9.7,15.9,16.1,22.8c3.3,3.6,3.8,9,1.1,13.2l-6.2,9.9c-3.2,5.1-1.7,11.9,3.4,15.2
					l19,12c5.1,3.2,11.9,1.7,15.2-3.4l6.2-9.9c2.6-4.1,7.7-6.1,12.4-4.6c9,2.7,18.3,4.3,27.5,4.8c4.9,0.2,9,3.8,10.1,8.5l2.6,11.5
					c1.3,5.9,7.2,9.7,13.1,8.4l21.9-4.9c5.9-1.3,9.7-7.2,8.3-13.1l-2.6-11.5c-1.1-4.8,1.2-9.7,5.4-12c8.2-4.3,15.9-9.7,22.8-16.1
					c3.6-3.3,9-3.8,13.1-1.1l9.9,6.3c5.1,3.2,11.9,1.7,15.2-3.4l12-19C966.2,471.9,964.8,465.2,959.6,461.9 M813.3,361.4
					c27-12.7,59.2-1.2,72,25.9c12.7,27,1.2,59.2-25.9,72c-27,12.7-59.2,1.2-72-25.9C774.7,406.3,786.3,374.1,813.3,361.4z"/>
			</defs>
			<clipPath id="SVGID_7_">
				<use xlink:href="#SVGID_6_"  style="overflow:visible;"/>
			</clipPath>
			
				<linearGradient id="SVGID_8_" gradientUnits="userSpaceOnUse" x1="808.8886" y1="197.3232" x2="960.6595" y2="-194.9563" gradientTransform="matrix(1 0 0 1 0 284)">
				<stop  offset="0" style="stop-color:#9BD2F0"/>
				<stop  offset="1" style="stop-color:#FFFFFF"/>
			</linearGradient>
			<rect x="693.3" y="267.2" class="st4" width="286.1" height="286.1"/>
		</g>
	</g>
</g>
<g>
	<g>
		<g>
			<defs>
				<path id="SVGID_9_" d="M600.2,569.4l-21.3-13.5c-8.9-5.7-13.1-16.5-10-26.6c5.9-19.5,9.3-39.5,10.3-59.3
					c0.5-10.5,8.1-19.4,18.4-21.8l24.7-5.6c12.8-2.8,20.8-15.5,18-28.3l-10.6-47.2c-2.9-12.8-15.6-20.8-28.3-17.9l-24.7,5.6
					c-10.4,2.3-21-2.5-25.9-11.7c-9.4-17.6-21-34.2-34.7-49.2c-7.1-7.8-8-19.4-2.3-28.3l13.4-21.3c7-11,3.7-25.7-7.4-32.7
					l-40.9-25.9c-11-7-25.7-3.7-32.7,7.4l-13.5,21.3c-5.7,8.9-16.5,13.1-26.6,10c-19.5-5.9-39.4-9.3-59.3-10.3
					c-10.6-0.5-19.4-8.1-21.8-18.4l-5.6-24.7c-2.9-12.8-15.6-20.8-28.3-17.9l-47.2,10.6c-12.9,2.8-21,15.6-18.1,28.3l5.6,24.7
					c2.3,10.3-2.5,21-11.8,25.9c-17.6,9.4-34.2,21-49.2,34.7c-7.8,7.1-19.4,8.1-28.3,2.4l-21.3-13.5c-11-7-25.7-3.7-32.7,7.4
					l-25.9,40.9c-7,11-3.7,25.7,7.4,32.7l21.3,13.4c8.9,5.7,13.1,16.5,10,26.6c-6,19.4-9.3,39.4-10.3,59.3
					c-0.5,10.6-8.1,19.4-18.4,21.8l-24.7,5.6c-13,2.9-21.1,15.6-18.1,28.3L40,549.4c2.9,12.8,15.6,20.8,28.3,17.9l24.6-5.6
					c10.4-2.3,21,2.5,25.9,11.8c9.4,17.6,21,34.2,34.7,49.2c7.1,7.8,8.1,19.4,2.4,28.4l-13.4,21.3c-7,11-3.7,25.7,7.4,32.7
					l40.9,25.9c11,6.9,25.7,3.7,32.7-7.4l13.4-21.3c5.7-8.9,16.5-13.1,26.7-10c19.4,5.9,39.4,9.3,59.3,10.3
					c10.5,0.5,19.4,8.1,21.8,18.4l5.6,24.7c2.9,12.8,15.6,20.8,28.3,18l47.2-10.6c12.8-2.8,20.8-15.6,17.9-28.3l-5.6-24.7
					c-2.3-10.3,2.5-21,11.7-25.9c17.6-9.3,34.2-21,49.2-34.7c7.8-7.1,19.4-8.1,28.3-2.4l21.4,13.5c11,7,25.7,3.7,32.7-7.4l25.9-40.9
					C614.5,591.1,611.3,576.5,600.2,569.4 M285,352.9c58.2-27.4,127.6-2.5,155.1,55.8c27.4,58.2,2.5,127.6-55.7,155.1
					c-58.2,27.4-127.6,2.5-155.1-55.8C201.9,449.7,226.8,380.3,285,352.9z"/>
			</defs>
			<clipPath id="SVGID_10_">
				<use xlink:href="#SVGID_9_"  style="overflow:visible;"/>
			</clipPath>
			
				<linearGradient id="SVGID_11_" gradientUnits="userSpaceOnUse" x1="275.4884" y1="327.3448" x2="602.4705" y2="-517.8" gradientTransform="matrix(1 0 0 1 0 284)">
				<stop  offset="0" style="stop-color:#9BD2F0"/>
				<stop  offset="1" style="stop-color:#FFFFFF"/>
			</linearGradient>
			<rect x="26.5" y="150.1" class="st5" width="616.4" height="616.4"/>
		</g>
	</g>
</g>
<path class="st6" d="M1368.1,428.8H380.5c-3.8,0-7,3.2-7,7v599.8h1001.7V435.9C1375,431.9,1371.9,428.8,1368.1,428.8z"/>
<path class="st6" d="M1469.6,1075.2H279c-3.6,0-6.7-2.9-6.7-6.7v-32c0-1.1,0.9-2,2-2h1199.7c1.1,0,2,0.9,2,2v32
	C1476.1,1072.2,1473.2,1075.2,1469.6,1075.2z"/>
<linearGradient id="SVGID_12_" gradientUnits="userSpaceOnUse" x1="406.9968" y1="393.7442" x2="1341.4294" y2="393.7442" gradientTransform="matrix(1 0 0 -1 0 1125.8898)">
	<stop  offset="0" style="stop-color:#3D9DFF"/>
	<stop  offset="1" style="stop-color:#E3F2FB"/>
</linearGradient>
<path class="st7" d="M1339.2,462.4H409.3c-1.2,0-2.3,1-2.3,2.3v535c0,1.2,1,2.3,2.3,2.3h929.9c1.2,0,2.3-1,2.3-2.3V464.8
	C1341.4,463.4,1340.4,462.4,1339.2,462.4z"/>
<path class="st8" d="M1015,1054.4H733.4c-2.7,0-4.9-2.1-4.9-4.9v-14h291.2v14C1019.8,1052.2,1017.7,1054.4,1015,1054.4z"/>
<g>
	<g>
		<g>
			<defs>
				<path id="SVGID_13_" d="M1335.5,461.9H412.4c-3.8,0-7,3-7,6.6v526.8c0,3.6,3.1,6.6,7,6.6h923c3.8,0,7-3,7-6.6V468.5
					C1342.4,465,1339.3,461.9,1335.5,461.9"/>
			</defs>
			<clipPath id="SVGID_14_">
				<use xlink:href="#SVGID_13_"  style="overflow:visible;"/>
			</clipPath>
			
				<linearGradient id="SVGID_15_" gradientUnits="userSpaceOnUse" x1="874.0652" y1="977.3021" x2="874.0443" y2="267.1366" gradientTransform="matrix(1 0 0 1 0 284)">
				<stop  offset="0" style="stop-color:#54D0FF"/>
				<stop  offset="0.2603" style="stop-color:#90E0FF"/>
				<stop  offset="0.5013" style="stop-color:#C0EEFF"/>
				<stop  offset="0.7126" style="stop-color:#E2F7FF"/>
				<stop  offset="0.886" style="stop-color:#F7FDFF"/>
				<stop  offset="1" style="stop-color:#FFFFFF"/>
			</linearGradient>
			<rect x="405.5" y="461.9" class="st9" width="937" height="539.9"/>
		</g>
	</g>
</g>
<g>
	<g>
		<g>
			<defs>
				<path id="SVGID_16_" d="M951.4,461.9l-474.4,539.9l-39.2,0.1L912.3,462L951.4,461.9L951.4,461.9z M1311.9,461.9l-472,539.4
					l-249.6,0.4L1065,461.9L1311.9,461.9L1311.9,461.9z"/>
			</defs>
			<clipPath id="SVGID_17_">
				<use xlink:href="#SVGID_16_"  style="overflow:visible;"/>
			</clipPath>
			
				<linearGradient id="SVGID_18_" gradientUnits="userSpaceOnUse" x1="874.8485" y1="1007.899" x2="874.8699" y2="-11.6606" gradientTransform="matrix(1 0 0 1 0 284)">
				<stop  offset="0" style="stop-color:#54D0FF"/>
				<stop  offset="0.2603" style="stop-color:#90E0FF"/>
				<stop  offset="0.5013" style="stop-color:#C0EEFF"/>
				<stop  offset="0.7126" style="stop-color:#E2F7FF"/>
				<stop  offset="0.886" style="stop-color:#F7FDFF"/>
				<stop  offset="1" style="stop-color:#FFFFFF"/>
			</linearGradient>
			<rect x="437.9" y="461.9" class="st10" width="874" height="539.9"/>
		</g>
	</g>
</g>
<g>
	<path class="st11" d="M1248.3,504.6H511.8c-1.9,0-3.5,0.7-4.8,1.9s-2,2.7-2,4.5s0.8,3.4,2,4.5c1.2,1.2,2.9,1.9,4.8,1.9h736.4
		c1.9,0,3.5-0.7,4.8-1.9s2-2.7,2-4.5s-0.8-3.4-2-4.5C1251.9,505.3,1250.1,504.6,1248.3,504.6 M511.8,502.2h736.4
		c2.6,0,4.9,1,6.6,2.5c1.6,1.5,2.7,3.8,2.7,6.3c0,2.5-1,4.6-2.7,6.3c-1.6,1.5-4,2.5-6.6,2.5H511.8c-2.6,0-4.9-1-6.6-2.5
		c-1.6-1.5-2.7-3.8-2.7-6.3c0-2.5,1-4.6,2.7-6.3C506.9,503.2,509.2,502.2,511.8,502.2z"/>
	<rect x="471.6" y="501.6" class="st12" width="18.6" height="18.8"/>
	<rect x="439" y="501.6" class="st12" width="18.6" height="18.8"/>
	<path class="st12" d="M1288.4,493.2c11.4,0,20.8,8.9,20.8,19.8c0,10.9-9.3,19.8-20.8,19.8c-11.4,0-20.8-8.9-20.8-19.8
		C1267.7,502,1276.9,493.2,1288.4,493.2"/>
	<path class="st13" d="M1282,504.5c2.7-1.9,6.6-1.5,8.6,1.1c2,2.5,1.5,6.3-1.1,8.2c-2.7,1.9-6.6,1.5-8.6-1.1
		C1278.7,510.1,1279.2,506.4,1282,504.5 M1280.9,503.2c3.3-2.5,8.2-1.8,10.8,1.4c2.3,2.9,2,6.8-0.5,9.5l6.1,7.6
		c0.4,0.5,0.3,1.3-0.3,1.7l0,0c-0.5,0.5-1.4,0.3-1.8-0.3l-6.1-7.6c-3.2,1.6-7.3,0.8-9.6-2.1C1276.9,510.3,1277.6,505.7,1280.9,503.2
		z"/>
</g>
<g>
	<path class="st14" d="M908.7,646.2H502.2c-16.1,0-29.3-12.5-29.3-27.9l0,0c0-15.4,13.2-27.9,29.3-27.9h406.5
		c16.1,0,29.3,12.5,29.3,27.9l0,0C938,633.7,924.8,646.2,908.7,646.2z"/>
	<path class="st14" d="M909.2,718.3H502.8c-16.1,0-29.3-12.5-29.3-27.9l0,0c0-15.4,13.2-27.9,29.3-27.9h406.5
		c16.1,0,29.3,12.5,29.3,27.9l0,0C938.5,705.8,925.4,718.3,909.2,718.3z"/>
	<path class="st14" d="M909.2,790.4H502.8c-16.1,0-29.3-12.5-29.3-27.9l0,0c0-15.4,13.2-27.9,29.3-27.9h406.5
		c16.1,0,29.3,12.5,29.3,27.9l0,0C938.5,777.9,925.4,790.4,909.2,790.4z"/>
	<path class="st14" d="M908.7,863.4H502.2c-16.1,0-29.3-12.5-29.3-27.9l0,0c0-15.4,13.2-27.9,29.3-27.9h406.5
		c16.1,0,29.3,12.5,29.3,27.9l0,0C938,850.8,924.8,863.4,908.7,863.4z"/>
	<path class="st15" d="M908.8,940.1H808.2c-16.1,0-29.3-12.5-29.3-27.9l0,0c0-15.4,13.2-27.9,29.3-27.9h100.5
		c16.1,0,29.3,12.5,29.3,27.9l0,0C938,927.5,924.8,940.1,908.8,940.1z"/>
	<g>
		<path class="st0" d="M813.9,918.9c1.7,0.9,4.4,1.8,7.3,1.8c2.9,0,4.4-1,4.4-2.7c0-1.5-1.3-2.5-4.9-3.4c-4.7-1.3-8-3.5-8-7.5
			c0-4.4,4.1-7.6,10.5-7.6c3.4,0,5.8,0.6,7.6,1.4l-1.4,4.6c-1.1-0.5-3.2-1.4-6.2-1.4c-2.8,0-4,1.1-4,2.5c0,1.6,1.7,2.3,5.3,3.5
			c5.1,1.5,7.5,3.7,7.5,7.6c0,4.1-3.3,7.8-11.3,7.8c-3.2,0-6.6-0.8-8.2-1.8L813.9,918.9z"/>
		<path class="st0" d="M853.7,914.5h-11v5.7h12.2v4.8h-18.5v-25.2h17.8v4.8h-11.6v5.1h11L853.7,914.5L853.7,914.5z"/>
		<path class="st0" d="M859.2,925v-25.2h7.7l6,9c1.9,2.9,3.5,6,4.9,9.1h0.1c-0.4-3.5-0.5-6.6-0.5-10.2v-7.9h5.8V925h-6.8l-6.2-9.7
			c-1.8-2.9-3.7-6.2-5.2-9.4h-0.2c0.2,3.6,0.3,7.1,0.3,10.9v8.3L859.2,925L859.2,925z"/>
		<path class="st0" d="M888.5,900.2c2.6-0.4,5.7-0.5,9-0.5c5.6,0,9.3,0.9,12,2.8c3,1.9,4.9,4.9,4.9,9.3c0,4.7-2,8-4.6,10
			c-3.1,2.5-7.9,3.5-13.6,3.5c-3.6,0-6-0.2-7.6-0.4V900.2L888.5,900.2z M894.8,920.5c0.6,0.1,1.6,0.1,2.5,0.1
			c6.5,0.1,10.5-3,10.5-8.7c0-5.3-3.8-7.8-9.6-7.8c-1.6,0-2.7,0.2-3.2,0.3L894.8,920.5L894.8,920.5z"/>
	</g>
</g>
<rect x="985.1" y="592.6" class="st1" width="282.5" height="347.4"/>
<path class="st16" d="M1021.3,621.3h63.6c3.8,0,7,3.7,7,8.3c0,4.5-3.1,8.3-7,8.3h-63.6c-3.8,0-7-3.7-7-8.3
	C1014.4,625.1,1017.5,621.3,1021.3,621.3"/>
<path class="st16" d="M1021.3,667.9h212.6c3.8,0,7,3.7,7,8.3c0,4.5-3.1,8.3-7,8.3h-212.6c-3.8,0-7-3.7-7-8.3
	C1014.4,671.5,1017.5,667.9,1021.3,667.9"/>
<path class="st16" d="M1021.3,712.3h212.6c3.8,0,7,3.7,7,8.3c0,4.5-3.1,8.3-7,8.3h-212.6c-3.8,0-7-3.7-7-8.3
	C1014.4,715.9,1017.5,712.3,1021.3,712.3"/>
<path class="st16" d="M1021.3,756.6h57.9c3.8,0,7,3.7,7,8.3s-3.1,8.3-7,8.3h-57.9c-3.8,0-7-3.7-7-8.3
	C1014.4,760.3,1017.5,756.6,1021.3,756.6"/>
<path class="st16" d="M1103.5,756.6h57.9c3.8,0,7,3.7,7,8.3s-3.1,8.3-7,8.3h-57.9c-3.8,0-7-3.7-7-8.3
	C1096.6,760.3,1099.7,756.6,1103.5,756.6"/>
<path class="st16" d="M1021.3,810.3h77.9c3.8,0,7,3.7,7,8.3s-3.1,8.3-7,8.3h-77.9c-3.8,0-7-3.7-7-8.3S1017.5,810.3,1021.3,810.3"/>
<path class="st16" d="M1126.4,810.3h77.9c3.8,0,7,3.7,7,8.3s-3.1,8.3-7,8.3h-77.9c-3.8,0-7-3.7-7-8.3
	C1119.4,814,1122.6,810.3,1126.4,810.3"/>
<path class="st16" d="M1021.3,850.5h94.1c3.8,0,7,3.7,7,8.3c0,4.5-3.1,8.3-7,8.3h-94.1c-3.8,0-7-3.7-7-8.3
	C1014.4,854.2,1017.5,850.5,1021.3,850.5"/>
<path class="st16" d="M1145,850.5h94.1c3.8,0,7,3.7,7,8.3c0,4.5-3.1,8.3-7,8.3H1145c-3.8,0-7-3.7-7-8.3
	C1138.2,854.2,1141.2,850.5,1145,850.5"/>
<path class="st16" d="M1021.3,896h63.6c3.8,0,7,3.7,7,8.3c0,4.5-3.1,8.3-7,8.3h-63.6c-3.8,0-7-3.7-7-8.3
	C1014.4,899.6,1017.5,896,1021.3,896"/>
<g>
	<g>
		<g>
			<g>
				<defs>
					<path id="SVGID_19_" d="M229.1,840.7c9.4,41.4-3.3,139-8,215.6l0.8-0.1c0,0,0.6,6.6,5.7,9.3c5.1,2.7,13.9,5,17,7.8
						c2.1,2.1,10.4,13.8-19.2,13c-21.1-0.5-26.1-2.1-28.3-5.5c-0.3-0.5-17.6-160.9-19.7-174.1c-3.8,16.8-46.3,160.1-46.3,160.2
						c0.3,2.6,3.7,9.2,7.5,13.4c1.1,4.1,3.9,11.3-16.5,11.1c-20.4-0.2-16.2-5.3-18.4-8.6c9.1-85.2,23.6-222.6,28.2-245.3l1.3-1.2
						c3.6-145.8,81.2-108.3,74.2-20C206.2,826.7,225.6,827,229.1,840.7"/>
				</defs>
				<clipPath id="SVGID_20_">
					<use xlink:href="#SVGID_19_"  style="overflow:visible;"/>
				</clipPath>
				
					<linearGradient id="SVGID_21_" gradientUnits="userSpaceOnUse" x1="366.1116" y1="799.9736" x2="316.0344" y2="417.5685" gradientTransform="matrix(-1 0 0 1 519.043 284)">
					<stop  offset="0" style="stop-color:#031542"/>
					<stop  offset="0.1083" style="stop-color:#051C4C"/>
					<stop  offset="0.2906" style="stop-color:#093066"/>
					<stop  offset="0.5245" style="stop-color:#115191"/>
					<stop  offset="0.7981" style="stop-color:#1B7DCB"/>
					<stop  offset="1" style="stop-color:#24A1FB"/>
				</linearGradient>
				<rect x="101.4" y="690.8" class="st17" width="153.5" height="401.1"/>
			</g>
		</g>
	</g>
	<g>
		<g>
			<g>
				<defs>
					<path id="SVGID_22_" d="M196.4,726.2c8.9,19.5,25.3,19,46.5,16.2c18.4-3.3,51.1-65.4,48.7-71.7c-2.7-6.8-14.7-11.4-18.3-6.5
						c-6.9,8.6-36.4,47.2-39.5,46.9c-2.9-0.2-16.1-3.5-34.2-10.1C197.4,699.7,190,716.8,196.4,726.2"/>
				</defs>
				<clipPath id="SVGID_23_">
					<use xlink:href="#SVGID_22_"  style="overflow:visible;"/>
				</clipPath>
				
					<linearGradient id="SVGID_24_" gradientUnits="userSpaceOnUse" x1="296.0106" y1="499.7001" x2="272.1537" y2="397.4125" gradientTransform="matrix(-1 0 0 1 519.043 284)">
					<stop  offset="0" style="stop-color:#EA6200"/>
					<stop  offset="1" style="stop-color:#FFC045"/>
				</linearGradient>
				<rect x="190" y="659.3" class="st18" width="103.9" height="86.5"/>
			</g>
		</g>
	</g>
	<g>
		<g>
			<g>
				<defs>
					<path id="SVGID_25_" d="M116.5,707.4c-8.5,12.7,20,72.3,13,136.6c39.7,6.9,76.1,3.8,99.9-3.8c-1.1-26.2-1.2-117.3-29.7-139.3
						c-19.7-5.5-38.5-6.8-57.2-0.3C133,703.9,121.9,708.4,116.5,707.4"/>
				</defs>
				<clipPath id="SVGID_26_">
					<use xlink:href="#SVGID_25_"  style="overflow:visible;"/>
				</clipPath>
				
					<linearGradient id="SVGID_27_" gradientUnits="userSpaceOnUse" x1="298.6989" y1="628.5619" x2="363.8019" y2="452.4998" gradientTransform="matrix(-1 0 0 1 519.043 284)">
					<stop  offset="0" style="stop-color:#EA6200"/>
					<stop  offset="1" style="stop-color:#FFC045"/>
				</linearGradient>
				<rect x="107.9" y="694.3" class="st19" width="121.4" height="156.6"/>
			</g>
		</g>
	</g>
	<path class="st20" d="M192.2,678.8c-2.8,5.6-6.7,9.8-11,12l0.2,8.1l1.2,1c4.6,5-0.3,15.1-5.7,14.7c-13.3,0.7-23.5-10.2-19.4-16.1
		l1.7-2l0.3-11.5c-0.7,0-5.7-2.9-7.1-3.3c-1.5-0.4-3.7-3.3-3.8-6.3c-0.2-3,4.5-2.1,4.5-2.1c-5.7-7.7-12.1-14-3.8-21s27.3-11,27.3-11
		l11.5-3.9c-1.5,3.9,0.5,17.1,3.4,25.3C194.1,670.2,195.9,671.3,192.2,678.8"/>
	<path class="st21" d="M164.9,686.7c0,0,6.5,11.1,11.8,12.2c5.3,1,2.6,0.3,4.6,0l-0.2-8.1C177.4,691.3,173.8,691.1,164.9,686.7"/>
	<g>
		<g>
			<g>
				<defs>
					<path id="SVGID_28_" d="M132.6,722.9c3.5,13.4,6.3,47.4-6.6,39c-22.4-14.4-56.7-62.9-56.4-77.8c0.4-14.8,59.2-38,72.2-36.8
						c6.2,0.6,7.9,0.6,10.6,3.8c1.6,1.9,3.6,4.9-0.3,8.3c-10.5,9.2-45.6,22.4-45.2,25.9C110,704,128.2,706.2,132.6,722.9"/>
				</defs>
				<clipPath id="SVGID_29_">
					<use xlink:href="#SVGID_28_"  style="overflow:visible;"/>
				</clipPath>
				
					<linearGradient id="SVGID_30_" gradientUnits="userSpaceOnUse" x1="486.4092" y1="367.4145" x2="392.8849" y2="433.847" gradientTransform="matrix(-1 0 0 1 519.043 284)">
					<stop  offset="0" style="stop-color:#EA6200"/>
					<stop  offset="1" style="stop-color:#FFC045"/>
				</linearGradient>
				<rect x="69.2" y="646.1" class="st22" width="86.7" height="124.1"/>
			</g>
		</g>
	</g>
	<g>
		<g>
			<g>
				<defs>
					<path id="SVGID_31_" d="M185.8,653.7c-9.7,5-20.8-0.9-26.4,5.7c-2.8,3.3-2.5,8.1,0.6,15.3c0.9,2.1,2.1,3.8-1.5,2.1
						c-1.6-0.8-4.5-1.9-5.4-1.1c-2.1,1.7-1,5.2,0.6,6.4c0.8,0.5,2.1,1.3,2.1,1.3c-13-2.5-18.4-14.2-18.2-23.6
						c0.3-16.7,15.2-27.8,33.2-28.9c2.4-3.3,5.9-5.3,9.9-5.3c7.1,0,12.9,6.5,12.9,14.5c0,5.1-2.2,9.4-5.7,12.1
						C187.3,652.7,186.5,653.3,185.8,653.7"/>
				</defs>
				<clipPath id="SVGID_32_">
					<use xlink:href="#SVGID_31_"  style="overflow:visible;"/>
				</clipPath>
				
					<linearGradient id="SVGID_33_" gradientUnits="userSpaceOnUse" x1="352.2524" y1="393.8133" x2="356.0604" y2="322.2422" gradientTransform="matrix(-1 0 0 1 519.043 284)">
					<stop  offset="0" style="stop-color:#031542"/>
					<stop  offset="0.1083" style="stop-color:#051C4C"/>
					<stop  offset="0.2906" style="stop-color:#093066"/>
					<stop  offset="0.5245" style="stop-color:#115191"/>
					<stop  offset="0.7981" style="stop-color:#1B7DCB"/>
					<stop  offset="1" style="stop-color:#24A1FB"/>
				</linearGradient>
				<rect x="137.4" y="625.6" class="st23" width="56.3" height="57.8"/>
			</g>
		</g>
	</g>
	<path class="st20" d="M277.7,664.1l2.9-3.9c0.7-4.5,2.7-4.8,3.2-9.6c0.3-2.4,1.4-6,1-7.5c-0.5-2.2,2.3-1.5,3.3-0.4
		c2.6,3.2,1.5,6,1.9,7.7c0.8-0.2,6.7-3.5,11-5.7c2.6-1.3,6.1-1.1,6.6-0.3c3.6,6.3-1.7,14.2-3.7,15.8c-2.6,2.1-8.1,3.3-13.5,11.9
		C284.8,677.4,278.1,667.6,277.7,664.1"/>
</g>
<g>
	<g>
		<g>
			<g>
				<defs>
					<path id="SVGID_34_" d="M1104.4,201.8c0,0,0.3,5.9-2.7,15.1c-3,9.2-2.4,17.9,0.2,26.7s-5.1,24.2-6.9,24.8
						c-1.9,0.6-26,5-31.1,4.6c-5-0.4-28.2-27.5-28.2-27.5l2.5-23.8L1104.4,201.8z"/>
				</defs>
				<clipPath id="SVGID_35_">
					<use xlink:href="#SVGID_34_"  style="overflow:visible;"/>
				</clipPath>
				
					<linearGradient id="SVGID_36_" gradientUnits="userSpaceOnUse" x1="1068.2292" y1="-16.8069" x2="1074.9506" y2="-115.0128" gradientTransform="matrix(1 0 0 1 0 284)">
					<stop  offset="0" style="stop-color:#031542"/>
					<stop  offset="0.1083" style="stop-color:#051C4C"/>
					<stop  offset="0.2906" style="stop-color:#093066"/>
					<stop  offset="0.5245" style="stop-color:#115191"/>
					<stop  offset="0.7981" style="stop-color:#1B7DCB"/>
					<stop  offset="1" style="stop-color:#24A1FB"/>
				</linearGradient>
				<rect x="1035.7" y="201.8" class="st24" width="69" height="71.7"/>
			</g>
		</g>
	</g>
	<path class="st25" d="M1140.7,381.3l47,33.1l2.1,147.2c0.3,0.4,0.7,0.9,1,1.2c0.3,0.3,0.5,0.6,0.8,0.9c0.7,0.7,1.3,1.4,1.9,2.1
		c0.3,0.3,0.6,0.6,0.9,0.9c4.7,4.4,10.4,5.1,15,5.8c3.6,0.6,6.3,0.8,9.1,5.3c0.1,0.2,0.2,0.3,0.3,0.4c0.6,1.6-0.5,3.5-2.4,3.6
		l-41.9,2c-2.1,0.1-3.9-1.4-4.2-3.3c-0.1-0.3-0.1-0.6-0.1-0.9l1.4-18.5c0,0,0,0,0-0.1c-3.9-35.5-16-87.1-12.8-129.1
		c0,0-51.6-60.5-51.6-62.4S1140.7,381.3,1140.7,381.3"/>
	<path class="st25" d="M1140.2,402c-1.8,15.8,9.2,25,7.4,40.8c0,39.4-27.6,84.7-36.9,124.4c-0.3,1.3,2.1,13.8,1.8,15.2
		c-4.1,4.5-15.9,10.7-17.2-9.8c5.3-34.3,11.8-89.8,25.4-131.5l-8.6-41.6L1140.2,402z"/>
	<g>
		<g>
			<g>
				<defs>
					<path id="SVGID_37_" d="M1117.7,337c9.1,30.1,90.6,24.5,72.6,123.7c-30.8,5.1-71.3,6.5-95.8,0.6
						c-12.9-45.5-87.2-9.9-48.9-122.9C1053.5,320.2,1114.8,325.3,1117.7,337"/>
				</defs>
				<clipPath id="SVGID_38_">
					<use xlink:href="#SVGID_37_"  style="overflow:visible;"/>
				</clipPath>
				
					<linearGradient id="SVGID_39_" gradientUnits="userSpaceOnUse" x1="1105.8746" y1="169.5592" x2="1110.5773" y2="23.4336" gradientTransform="matrix(1 0 0 1 0 284)">
					<stop  offset="0" style="stop-color:#031542"/>
					<stop  offset="0.1083" style="stop-color:#051C4C"/>
					<stop  offset="0.2906" style="stop-color:#093066"/>
					<stop  offset="0.5245" style="stop-color:#115191"/>
					<stop  offset="0.7981" style="stop-color:#1B7DCB"/>
					<stop  offset="1" style="stop-color:#24A1FB"/>
				</linearGradient>
				<rect x="1007.2" y="320.2" class="st26" width="201.1" height="147.1"/>
			</g>
		</g>
	</g>
	<path class="st27" d="M1112.6,266.4c0,0-6.2,45.6,3,67.3c1.2,2.7,0.3,3.6,4.1,7.5c8.3,8.2,16.8,22,21.7,23.1
		c18,4.2,26.1,0.8,24.2-11c-0.6-3.7-7.3-7.2-14.7-9.5c-6.4-2-15.2-17.5-18.9-26.3c-11-25.6-9.8-64.5-29-77.3
		C1100.6,238.7,1106.1,256.7,1112.6,266.4"/>
	<path class="st28" d="M1026.1,247.8c-8,32.6,26.7,25.3,19.4,91.1c24,3.3,50.8,4.3,71.4-0.9c-3.3-24.2,0.8-37.3,1.8-50.5
		c1.5-20-4.2-33-11.3-44C1100.3,232.6,1039.6,227.7,1026.1,247.8"/>
	<path class="st27" d="M1046.5,323.3c0.3,6.9,0,6.6-1,15.6c8.8,1.2,6.6,1,16.4,1.5C1060,336,1051.3,326.6,1046.5,323.3"/>
	<path class="st20" d="M1088,231.4l-2.1,7.8l0.9,1.3c3.1,6-4.4,14.4-9.3,12.7c-12.9-2.9-19.8-16.1-14.4-20.7l2.1-1.4l3.4-10.9
		c-0.7-0.3-4.7-4.3-6-5.1c-1.3-0.9-2.7-4.2-2-7.1c0.7-2.9,4.9-0.8,4.9-0.8c-3.3-8.9-7.8-16.7,2-21.2c9.8-4.5,29.2-3.3,29.2-3.3
		l12.1-0.8c-2.5,3.4-4.2,11.6-3.6,20.4C1106.2,214.8,1098.7,229.3,1088,231.4"/>
	<path class="st21" d="M1073.4,223.2c0,0,3.3,12.4,8.1,14.8c4.9,2.4,2.4,0.9,4.4,1.3l2.1-7.8C1084.3,231,1081,229.8,1073.4,223.2"/>
	<path class="st28" d="M1033.1,242.4c-29.8,9.2-27.5,74.6-23.2,92.8c3.6,14.8,53.9,52.2,66.6,48.2c6.2-2,10.3-9.2,1.9-15.8
		c-2.9-3.4-43-36.6-43.4-40.3C1034,303.9,1053.8,241,1033.1,242.4"/>
	<polygon class="st29" points="1156.8,377.1 1078.9,378.3 1105.9,401.4 1191.5,401.4 	"/>
	<polygon class="st30" points="1215.9,338.5 1118.4,338.5 1105.9,401.4 1203.4,401.4 1216.6,339 	"/>
	<path class="st20" d="M1080.6,371.6l3,1.6l10.6,0.2c1.3-0.3,9.1-0.6,6.6,1.5c-1.7,1.5-6.2,3.2-6.1,3.4c3.5,2.7,13,8.5,13.1,8.7
		c1.3,3.5-8.1-1.3-9.5-1.8c-0.4-0.2,6.1,5,5.8,5.2c-0.4,0.3-1.5,0.9-3.1,0.3c-2-0.8-5.9-3.9-6.4-3.7c-0.5,0.3,5.9,5.2,5.4,5.4
		c-0.3,0.2-1.1,0.4-2.3-0.1c-2.1-0.9-5.7-4-6.2-3.9c-0.6,0.1,3.7,3.3,3.8,3.9c0.1,0.3-0.7,0.8-1,0.6c-10.4-3.5-7.7-6.6-19.8-10.3
		C1067.8,380.6,1078.1,372.2,1080.6,371.6"/>
	<g>
		<g>
			<g>
				<defs>
					<path id="SVGID_40_" d="M1081.7,201.1c0,0,17.3,6.6,24.6,3.2c12.7-6,10.7-34.5-21.3-34.9c-27.2,0.5-25.5,33.1-61,35.6
						c-18.8,1.3-30.3,17-24,43c0.1,0.1,2.8-8.2,9.8-7.3c-11.3,13.1,0.1,28.4,1.8,31.1c4-19.9,15.9-33.7,49.8-37.8
						C1075.6,228.8,1063.2,198.8,1081.7,201.1"/>
				</defs>
				<clipPath id="SVGID_41_">
					<use xlink:href="#SVGID_40_"  style="overflow:visible;"/>
				</clipPath>
				
					<linearGradient id="SVGID_42_" gradientUnits="userSpaceOnUse" x1="1047.8005" y1="-15.0187" x2="1085.6738" y2="-226.7055" gradientTransform="matrix(1 0 0 1 0 284)">
					<stop  offset="0" style="stop-color:#031542"/>
					<stop  offset="0.1083" style="stop-color:#051C4C"/>
					<stop  offset="0.2906" style="stop-color:#093066"/>
					<stop  offset="0.5245" style="stop-color:#115191"/>
					<stop  offset="0.7981" style="stop-color:#1B7DCB"/>
					<stop  offset="1" style="stop-color:#24A1FB"/>
				</linearGradient>
				<rect x="993.8" y="169.4" class="st31" width="125.2" height="102.4"/>
			</g>
		</g>
	</g>
	<path class="st32" d="M1208,571.2c0,0,14.9,2.9,14.6,7.5c-0.6,9.2-51,7.1-51.3,6.9c-2-2.1-3-12.2-0.9-15.5
		C1172,567.5,1192.5,578,1208,571.2"/>
	<path class="st33" d="M1116.9,588.7c-0.3,5.8-21.4,4.2-24.6,2.4c-4.7-2.6,1-21,2.8-18.9c0,0,5.5,8.6,12,6.9s4.2-3.7,5.3-1.5
		C1114.5,581.6,1117.2,583.3,1116.9,588.7"/>
	<path class="st13" d="M1162.4,363.3c-3.3,0-6.1,2.7-6.1,5.8c0,3.3,2.7,5.8,6.1,5.8c3.3,0,6.1-2.7,6.1-5.8
		C1168.6,365.9,1165.8,363.3,1162.4,363.3"/>
</g>
</svg>
