<svg version="1.1" id="Layer_1" xmlns="http://www.w3.org/2000/svg" xmlns:xlink="http://www.w3.org/1999/xlink" x="0" y="0" viewBox="0 0 1633 1127.5" xml:space="preserve"><style>.st0{fill:#fff}.st1,.st11,.st8,.st9{fill-rule:evenodd;clip-rule:evenodd;fill:#1a47b6}.st11,.st8,.st9{fill:#3dabf9}.st11,.st9{fill:#003398}.st11{fill:#afcdec}.st12,.st14,.st16,.st18,.st21,.st22{fill-rule:evenodd;clip-rule:evenodd;fill:#e4f5fb}.st14,.st16,.st18,.st21,.st22{fill:#0094ff}.st16,.st18,.st21,.st22{fill:#102b6e}.st18,.st21,.st22{fill:#f0f8fd}.st21,.st22{fill:#fff}.st22{fill:#fca700}.st23,.st24,.st25,.st27,.st28,.st30{fill-rule:evenodd;clip-rule:evenodd;fill:#fcbb44}.st24,.st25,.st27,.st28,.st30{fill:#f7cccf}.st25,.st27,.st28,.st30{fill:#092978}.st27,.st28,.st30{fill:#a3c5e8}.st28,.st30{fill:#e8f5fc}.st30{fill:#15378b}.st31,.st32,.st33,.st34,.st37,.st38{fill-rule:evenodd;clip-rule:evenodd;fill:#edeeee}.st32,.st33,.st34,.st37,.st38{fill:#e0e0df}.st33,.st34,.st37,.st38{fill:#3882c8}.st34,.st37,.st38{fill:#bb3048}.st37,.st38{fill:#4598e7}.st38{fill:#f29900}.st39{fill:#630}</style><path class="st0" d="M0 0h1633v1127.5H0z"/><path class="st1" d="M1604 1092.3H33.7c-4.7 0-8.5 2.4-8.5 5.4s3.8 5.4 8.5 5.4h1570.5c4.7 0 8.5-2.4 8.5-5.4-.2-3-4-5.4-8.7-5.4"/><path d="M22.8 1089.5s79.1-108.2 142.9-66.9c63.8 41.3 97.7 45.8 130.7-9.6 33.1-55.5 18.6-110.2 72-126.3s53.6 80.6 65.1 95.5c11.5 15 35.2 40.8 57.3-30.6s41.8-128.2 75.4-110.8c20.2 10.3 91.1 66.2 126-10.1 15.5-33.9 43.9-81.5 78.3-74.5s46.7 24.2 66.5 40.6c19.8 16.3 47.9-1.2 65.3-16.3 24.2-21 63.8-52 88.2-16.3 36.5 53.1 74.1 111.8 120.2 35.4 15.5-25.8 57.1 51.7 93.7 95.3l36.6 43.6s30.3 33.7 73.6 9.2c43.3-24.4 53-39 90.8 12.4 37.7 51.4 57.3 84.2 73.4 83 16.1-1.2 36.4-24.5 75.4-5.9 39 18.7 55.3 63.4 57.3 57.4 2.1-5.9-1588.7-5.1-1588.7-5.1" fill-rule="evenodd" clip-rule="evenodd" fill="#d8eefb"/><path d="M1401.7 632.6c0-322.6-261.4-584-584-584s-584 261.4-584 584c0 184 85.1 348 218 455.1h731.9c133-107.1 218.1-271.2 218.1-455.1z" fill="#d8eefb"/><path d="M388 1080.9s36.1-16.4 30.7-41.9c-5.4-25.5-34.7-22.8-30.7-42.9 4-20.1 23.2-51.4 4.5-74.1-18.8-22.8-50-9.1-53.8-44.4-3.1-28.5-16.3-48.6-41.8-42.7-23.6 5.5-41.2 23.7-41.6 67.1-.5 46.2-33.1 33.3-33.5 67.3-.4 34.3 27 34.3 37.6 57.3 5.1 10.9-8.1 49.1 30.7 54.3H388z" fill="#21ac58"/><path d="M300.8 853.3s-.1.8-.2 2.3c-.4 4.6-1.2 15.6-1.2 31.1 0 45.2 7.1 127.9 52.1 193.8.6.9.4 2.1-.5 2.7-.9.6-2.1.4-2.7-.5-45.7-67.1-52.8-150.4-52.8-196 0-20.8 1.5-33.8 1.5-33.9.1-1.1 1.1-1.8 2.2-1.7.9.2 1.7 1.2 1.6 2.2" fill="#008c3f"/><path d="M344.6 1080.9s5.7-31.4-15.6-44.2c-21.3-12.8-43.1-22.7-40.8-43.3 2.3-20.6-3.4-44.9-37.6-45.4-21.1-.3-13.2-22.5-34.7-27-13.1-2.7-21.6 11-23.3 24.2-1.9 15.2 6.7 30.2-3.1 42.6-12.8 16-18.1 46 9.5 54.6s3 34.6 40.6 38.5h105z" fill-rule="evenodd" clip-rule="evenodd" fill="#a9ca5b"/><path d="M217.3 936c.7 20 9.6 48.5 24.7 75.7 15.2 27.2 36.6 53.1 62.3 68.4.9.5 1.2 1.7.7 2.7-.6.9-1.7 1.2-2.7.7-26.5-15.8-48.3-42.2-63.7-69.9-15.4-27.7-24.5-56.5-25.3-77.5 0-1.1.8-2 1.9-2 1.2 0 2.1.8 2.1 1.9" fill="#009844"/><path class="st8" d="M1009.8 197.7l15 13.7c6.3 5.7 8.1 15 4.3 22.5-7.4 14.7-12.9 30-16.4 45.6-1.9 8.3-9.1 14.3-17.6 14.7l-20.3 1c-10.5.5-18.7 9.4-18.2 20l1.8 38.9c.5 10.5 9.4 18.7 20 18.2l20.3-.9c8.5-.4 16.3 4.9 19 13 5 15.3 11.9 30 20.7 43.9 4.6 7.2 3.7 16.5-2.1 22.8l-13.7 15c-7.1 7.8-6.5 19.9 1.3 27l28.8 26.2c7.8 7.1 19.9 6.5 27-1.3l13.7-15c5.7-6.3 14.9-8.1 22.5-4.3 14.6 7.4 29.9 12.9 45.6 16.4 8.3 1.8 14.3 9.1 14.7 17.6l.9 20.3c.5 10.5 9.4 18.7 20 18.2l38.8-1.8c10.5-.5 18.7-9.4 18.2-20l-.9-20.3c-.4-8.5 4.9-16.3 13-18.9 15.2-5 30-11.9 43.9-20.7 7.2-4.6 16.5-3.7 22.8 2l15 13.7c7.8 7.1 19.9 6.5 27-1.3l26.2-28.8c7.1-7.8 6.5-19.9-1.3-27l-15-13.8c-6.3-5.7-8.1-14.9-4.3-22.5 7.4-14.6 12.9-29.9 16.4-45.6 1.8-8.3 9.1-14.3 17.6-14.7l20.3-.9c10.5-.5 18.7-9.4 18.2-20l-1.8-38.8c-.5-10.5-9.4-18.7-20-18.2l-20.3 1c-8.5.4-16.3-4.9-19-13-5-15.2-11.9-30-20.7-43.8-4.6-7.2-3.7-16.5 2-22.8l13.7-15c7.1-7.8 6.5-19.9-1.3-27l-28.8-26.2c-7.8-7.1-19.9-6.5-27 1.3l-13.7 15c-5.7 6.3-14.9 8.1-22.5 4.3-14.6-7.4-29.9-12.9-45.6-16.4-8.3-1.8-14.3-9.1-14.7-17.6l-.9-20.3c-.5-10.5-9.4-18.7-20-18.2l-38.8 1.8c-10.5.5-18.7 9.4-18.2 20l1 20.3c.4 8.5-4.9 16.2-13 19-15.3 5-30 11.9-43.9 20.7-7.2 4.6-16.5 3.7-22.8-2.1l-15.1-13.7c-7.8-7.1-19.9-6.5-27 1.3l-26.1 28.5c-7.1 7.9-6.5 19.9 1.3 27m129.9 41.8c34.8-27.6 84.7-29.9 121.9-5.8 61.5 39.9 65.6 126.9 8.2 172.4-34.8 27.6-84.7 29.9-121.9 5.8-61.5-39.7-65.7-126.9-8.2-172.4z"/><path class="st0" d="M1268.1 184.6c-36-16.8-78.4-20.1-118.6-5.5-40.4 14.6-70.9 44.1-87.8 80-16.8 36-20.1 78.4-5.5 118.6 14.6 40.4 44.1 70.9 80.1 87.8 36 16.8 78.4 20.1 118.6 5.5 40.4-14.6 70.9-44.1 87.8-80 16.8-36 20.1-78.4 5.5-118.6-14.6-40.3-44.1-70.9-80.1-87.8m-117-1c39-14.1 80.1-11.1 115 5.3s63.5 46 77.6 85.1 11.1 80.1-5.3 115c-16.3 34.9-46 63.5-85.1 77.6-39 14.1-80.1 11.1-115-5.3-34.9-16.3-63.5-46-77.6-85.1s-11.1-80.2 5.3-115c16.3-34.8 46.1-63.4 85.1-77.6zM1094 458c-23.3-19-42-44.3-52.9-74.6-.4-1.2-.8-2.3-1.2-3.5l-4.9 2.7.9 2.6c11.2 30.9 30.1 56.9 53.8 76.4l4.3-3.6zm275.7-168.9c7.4 34.1 4 68.7-8.4 99.6l5.3 1.5c12.6-31.7 16-67.3 8.4-102.3l-5.3 1.2zM1226 155.4c17 2.4 33.5 7.4 48.9 14.6 3.3 1.6 6.7 3.2 9.9 5.1l2.6-4.9c-3.3-1.8-6.8-3.5-10.2-5.2-15.7-7.4-32.6-12.5-49.9-15l-1.3 5.4z"/><path class="st9" d="M636.3 348.4h823.8c29.5 0 53.6 24.1 53.6 53.6v480.2h-931V402.1c0-29.5 24.1-53.7 53.6-53.7"/><defs><path id="SVGID_1_" d="M621.7 388h853.1c.4 0 .8.4.8.8v542c0 .4-.4.8-.8.8H621.7c-.4 0-.8-.4-.8-.8v-542c0-.4.3-.8.8-.8"/></defs><clipPath id="SVGID_2_"><use xlink:href="#SVGID_1_" overflow="visible"/></clipPath><linearGradient id="SVGID_3_" gradientUnits="userSpaceOnUse" x1="1048.268" y1="24.747" x2="1048.268" y2="670.137" gradientTransform="matrix(1 0 0 -1 0 1125.89)"><stop offset="0" stop-color="#3d9dff"/><stop offset="1" stop-color="#e3f2fb"/></linearGradient><path clip-path="url(#SVGID_2_)" fill="url(#SVGID_3_)" d="M620.9 388h854.7v543.7H620.9z"/><path class="st11" d="M975.4 962.5c-3.8 68.4-13.8 85.7-83.2 124.6h307.2c-69.4-38.9-79.3-56.3-83.2-124.6l-70.6-5.6-70.2 5.6z"/><path class="st12" d="M1513.8 882.2v35.3c0 29.5-24.1 53.6-53.6 53.6H636.3c-29.5 0-53.6-24.1-53.6-53.6v-35.3h931.1z"/><path class="st9" d="M582.7 847.5h931.1v56.4H582.7z"/><path d="M1008.5 918.5c5.3 0 9.5 4.3 9.5 9.5 0 5.3-4.3 9.5-9.5 9.5s-9.5-4.3-9.5-9.5 4.2-9.5 9.5-9.5" fill-rule="evenodd" clip-rule="evenodd" fill="#e50013"/><path class="st8" d="M1043.9 918.5c5.3 0 9.5 4.3 9.5 9.5 0 5.3-4.3 9.5-9.5 9.5s-9.5-4.3-9.5-9.5 4.2-9.5 9.5-9.5M1079.3 918.5c5.3 0 9.5 4.3 9.5 9.5 0 5.3-4.3 9.5-9.5 9.5s-9.5-4.3-9.5-9.5 4.2-9.5 9.5-9.5"/><path class="st1" d="M668.9 443.4h245v378.7h-245z"/><path class="st14" d="M374.8 798h362.6c8.9 0 13.8 7.6 16.1 16.1l67.9 247.3c2.3 8.6-7.3 16.1-16.1 16.1h-375c-8.9 0-14.2-7.5-16.1-16.1l-55.6-247.3c-1.9-8.6 7.3-16.1 16.2-16.1"/><path class="st9" d="M385.5 798h362.6c8.9 0 13.8 7.6 16.1 16.1l67.9 247.3c2.3 8.6-7.3 16.1-16.1 16.1H441.1c-8.9 0-14.2-7.5-16.1-16.1l-55.6-247.3c-2-8.6 7.2-16.1 16.1-16.1"/><defs><path id="SVGID_4_" d="M389.6 811H745c2.5 0 4 2.2 4.7 4.7l62.1 218.3c.7 2.4-2.1 4.7-4.7 4.7H439.7c-2.5 0-4.1-2.1-4.7-4.7l-50.1-218.3c-.5-2.6 2.2-4.7 4.7-4.7"/></defs><clipPath id="SVGID_5_"><use xlink:href="#SVGID_4_" overflow="visible"/></clipPath><linearGradient id="SVGID_6_" gradientUnits="userSpaceOnUse" x1="597.998" y1="110.25" x2="598.922" y2="289.88" gradientTransform="matrix(1 0 0 -1 0 1125.89)"><stop offset="0" stop-color="#1e9df8"/><stop offset="1" stop-color="#b9e4ff"/></linearGradient><path clip-path="url(#SVGID_5_)" fill="url(#SVGID_6_)" d="M384.4 811h428v227.7h-428z"/><path class="st14" d="M424.3 1058.1h487.3v12.9c0 7.1-5.8 12.9-12.9 12.9H437.3c-7.1 0-12.9-5.8-12.9-12.9v-12.9h-.1z"/><path class="st12" d="M698.7 1058.1h361.5v12.9c0 7.1-5.8 12.9-12.9 12.9H711.6c-7.1 0-12.9-5.8-12.9-12.9v-12.9z"/><path class="st16" d="M844.4 1068.1h110.8c1.3 0 2.4 1.1 2.4 2.4 0 1.3-1.1 2.4-2.4 2.4H844.4c-1.3 0-2.4-1.1-2.4-2.4-.1-1.3 1-2.4 2.4-2.4M436 1063c2.9 0 5.3 2.9 5.3 6.6s-2.3 6.6-5.3 6.6c-2.9 0-5.3-2.9-5.3-6.6 0-3.7 2.3-6.6 5.3-6.6M532.5 1067.4H599v7.2h-66.5zM605.5 1067.4h17v7.2h-17zM628.4 1067.4h17v7.2h-17z"/><path class="st14" d="M686.8 749.2h155.7c3.4 0 6.3 2.8 6.3 6.3s-2.8 6.4-6.3 6.4H686.8c-3.4 0-6.3-2.8-6.3-6.4.1-3.5 2.9-6.3 6.3-6.3M686.8 462.5h57.9c3.4 0 6.3 2.8 6.3 6.3 0 3.4-2.8 6.3-6.3 6.3h-57.9c-3.4 0-6.3-2.8-6.3-6.3.1-3.5 2.9-6.3 6.3-6.3M686.8 498.3h193.5c3.4 0 6.3 2.8 6.3 6.3 0 3.4-2.8 6.3-6.3 6.3H686.8c-3.4 0-6.3-2.8-6.3-6.3.1-3.5 2.9-6.3 6.3-6.3M686.8 532.5h193.5c3.4 0 6.3 2.8 6.3 6.3 0 3.4-2.8 6.3-6.3 6.3H686.8c-3.4 0-6.3-2.8-6.3-6.3.1-3.5 2.9-6.3 6.3-6.3M686.8 566.7h52.7c3.4 0 6.3 2.8 6.3 6.3 0 3.4-2.8 6.3-6.3 6.3h-52.7c-3.4 0-6.3-2.8-6.3-6.3.1-3.4 2.9-6.3 6.3-6.3M761.7 566.7h52.7c3.4 0 6.3 2.8 6.3 6.3 0 3.4-2.8 6.3-6.3 6.3h-52.7c-3.4 0-6.3-2.8-6.3-6.3 0-3.4 2.8-6.3 6.3-6.3M686.8 608h70.9c3.4 0 6.3 2.8 6.3 6.3 0 3.4-2.8 6.3-6.3 6.3h-70.9c-3.4 0-6.3-2.8-6.3-6.3.1-3.4 2.9-6.3 6.3-6.3M782.5 608h70.9c3.4 0 6.3 2.8 6.3 6.3 0 3.4-2.8 6.3-6.3 6.3h-70.9c-3.4 0-6.3-2.8-6.3-6.3 0-3.4 2.8-6.3 6.3-6.3M686.8 639.1h85.7c3.4 0 6.3 2.8 6.3 6.3 0 3.4-2.8 6.4-6.3 6.4h-85.7c-3.4 0-6.3-2.8-6.3-6.4.1-3.5 2.9-6.3 6.3-6.3M799.5 639.1h85.7c3.4 0 6.3 2.8 6.3 6.3 0 3.4-2.8 6.4-6.3 6.4h-85.7c-3.4 0-6.3-2.8-6.3-6.4-.1-3.5 2.8-6.3 6.3-6.3M686.8 674h57.9c3.4 0 6.3 2.8 6.3 6.3s-2.8 6.3-6.3 6.3h-57.9c-3.4 0-6.3-2.8-6.3-6.3s2.9-6.3 6.3-6.3M686.8 714.6h85.7c3.4 0 6.3 2.8 6.3 6.3s-2.8 6.4-6.3 6.4h-85.7c-3.4 0-6.3-2.8-6.3-6.4.1-3.4 2.9-6.3 6.3-6.3M799.5 714.6h85.7c3.4 0 6.3 2.8 6.3 6.3s-2.8 6.4-6.3 6.4h-85.7c-3.4 0-6.3-2.8-6.3-6.4-.1-3.4 2.8-6.3 6.3-6.3"/><path class="st16" d="M1287.3 971.2v73.8c0 10.6 4.4 20.4 11.4 27.5 7 7 16.7 11.4 27.5 11.4h36.8v-9.1h-36.8c-8.2 0-15.6-3.3-21-8.7-5.4-5.4-8.7-12.8-8.7-21v-73.8h-9.2z"/><path class="st16" d="M1329.7 971.2v73.8c0 10.6 4.4 20.4 11.5 27.5 7 7 16.7 11.4 27.5 11.4h106v-9.1h-106c-8.2 0-15.6-3.3-21-8.7-5.4-5.4-8.7-12.8-8.7-21v-73.8h-9.3zM1282.3 971.2h19.1v25.4h-19.1z"/><path class="st16" d="M1324.8 971.2h19.1v25.4h-19.1z"/><path d="M903.4 414.1h-167c-1.7 0-3.2.7-4.3 1.8-1.1 1.1-1.8 2.6-1.8 4.3s.7 3.2 1.8 4.3c1.1 1.1 2.6 1.8 4.3 1.8h166.9c1.7 0 3.2-.7 4.3-1.8 1.1-1.1 1.8-2.6 1.8-4.3 0-1.7-.7-3.2-1.8-4.3-1-1.1-2.5-1.8-4.2-1.8m-167-2.2h166.9c2.3 0 4.4.9 5.9 2.4s2.4 3.7 2.4 5.9c0 2.3-.9 4.4-2.4 5.9s-3.7 2.4-5.9 2.4H736.4c-2.3 0-4.4-.9-5.9-2.4s-2.4-3.7-2.4-5.9c0-2.3.9-4.4 2.4-5.9 1.6-1.5 3.6-2.4 5.9-2.4z" fill="#00a0e8"/><path class="st14" d="M700 411.3h16.9v17.9H700zM670.3 411.3h16.9v17.9h-16.9z"/><path class="st18" d="M943.4 473.8h508.2v69.9H943.4z"/><path fill-rule="evenodd" clip-rule="evenodd" fill="#91bae3" d="M943.4 545.6h159v69.9h-159z"/><path class="st18" d="M1128.1 545.6h320.5v69.9h-320.5zM943.4 545.6h159v160.9h-159z"/><path class="st9" d="M1587.4 1056.5V898.1c0-14.5-11.9-26.4-26.4-26.4h-327.7c-14.5 0-26.4 11.9-26.4 26.4v158.4c0 14.5 11.9 26.4 26.4 26.4H1561c14.4-.1 26.4-11.9 26.4-26.4"/><defs><path id="SVGID_7_" d="M1558.2 1053c0 7.2-6 13.2-13.2 13.2h-285.1c-7.2 0-13.2-6-13.2-13.2V901.5c0-7.2 6-13.2 13.2-13.2h285c7.2 0 13.2 6 13.2 13.2V1053h.1z"/></defs><clipPath id="SVGID_8_"><use xlink:href="#SVGID_7_" overflow="visible"/></clipPath><linearGradient id="SVGID_9_" gradientUnits="userSpaceOnUse" x1="1402.339" y1="-107.2" x2="1402.339" y2="285.885" gradientTransform="matrix(1 0 0 -1 0 1125.89)"><stop offset="0" stop-color="#3d9dff"/><stop offset="1" stop-color="#e3f2fb"/></linearGradient><path clip-path="url(#SVGID_8_)" fill="url(#SVGID_9_)" d="M1246.6 888.3H1558v178h-311.4z"/><path class="st21" d="M1569.4 989.2c0 .9 1.3 1.6 2.8 1.6 1.6 0 2.8-.7 2.8-1.6v-30.8c0-.9-1.3-1.6-2.8-1.6-1.6 0-2.8.7-2.8 1.6v30.8zm5.8 5.6c0-.9-1.3-1.6-2.8-1.6-1.6 0-2.8.7-2.8 1.6v1.4c0 .9 1.3 1.6 2.8 1.6 1.6 0 2.8-.7 2.8-1.6v-1.4z"/><path class="st22" d="M1503.8 934.9h-191.3c-20.8 0-37.7 16.8-37.7 37.7v25.1c0 20.8 16.8 37.7 37.7 37.7h191.2c20.8 0 37.7-16.8 37.7-37.7v-25.1c0-20.9-16.8-37.7-37.6-37.7"/><path class="st21" d="M1506 998.8V976h-8.1v-4.7h21.7v4.7h-8.1v22.7h-5.5zm-25.2-22.8v7.8h3c2.1 0 3.7-.1 4.4-.4.7-.3 1.3-.7 1.7-1.3.4-.6.6-1.3.6-2.1 0-1-.3-1.8-.9-2.4-.6-.6-1.3-1-2.2-1.2-.6-.1-1.9-.2-4-.2h-2.6v-.2zm-5.6 22.8v-27.4h8.8c3.3 0 5.6.1 6.6.4 1.5.4 2.8 1.3 4 2.6 1 1.4 1.6 3.1 1.6 5.4 0 1.7-.3 3.1-.9 4.3-.6 1.1-1.4 2-2.3 2.7-.9.6-1.9 1.1-2.8 1.3-1.3.3-3.2.4-5.7.4h-3.5v10.3h-5.7zm-9.8 0v-27.4h5.6v27.4h-5.6zm-21-15.9h4.1c2.6 0 4.3-.1 5-.3.6-.2 1.2-.6 1.5-1.1.4-.5.6-1.2.6-2 0-.9-.2-1.6-.7-2.2-.5-.6-1.2-.9-2-1.1-.4-.1-1.8-.1-4.1-.1h-4.4v6.8zm-5.6 15.9v-27.4h11.7c2.9 0 5.1.2 6.4.7 1.3.5 2.4 1.3 3.1 2.6.8 1.2 1.2 2.7 1.2 4.4 0 2-.6 3.8-1.8 5.1-1.2 1.3-3 2.2-5.4 2.5 1.2.7 2.1 1.4 2.9 2.3.8.8 1.8 2.3 3.1 4.5l3.3 5.4h-6.6l-4-6c-1.4-2.1-2.4-3.4-2.9-4.1-.5-.5-1.1-.9-1.6-1.1-.6-.2-1.5-.3-2.8-.3h-1.1v11.5h-5.6v-.1zm-9.2-10.1l5.4 1.6c-.8 3-2.2 5.3-4.1 6.7-1.9 1.4-4.4 2.2-7.3 2.2-3.7 0-6.6-1.2-9-3.8-2.3-2.5-3.5-5.9-3.5-10.2 0-4.6 1.2-8.1 3.5-10.6s5.5-3.8 9.3-3.8c3.3 0 6.1 1 8.2 2.9 1.2 1.2 2.2 2.8 2.8 5.1l-5.5 1.3c-.3-1.4-1-2.5-2-3.3-1-.8-2.3-1.2-3.8-1.2-2 0-3.7.7-5 2.2-1.2 1.4-1.9 3.9-1.9 7.1 0 3.4.6 5.9 1.8 7.4 1.2 1.5 2.8 2.2 4.9 2.2 1.5 0 2.7-.5 3.8-1.4 1.2-.9 2-2.5 2.4-4.4zm-43.5 1.2l5.4-.5c.3 1.8 1 3.1 1.9 4 1 .8 2.3 1.3 4 1.3 1.7 0 3.1-.4 4.1-1.1.9-.7 1.3-1.6 1.3-2.6 0-.6-.2-1.2-.6-1.6-.4-.4-1-.8-2-1.2-.6-.2-2.1-.6-4.4-1.2-2.9-.7-5.1-1.6-6.2-2.7-1.7-1.5-2.5-3.3-2.5-5.6 0-1.4.4-2.7 1.2-4 .8-1.2 1.9-2.1 3.4-2.7 1.5-.6 3.2-.9 5.4-.9 3.4 0 6 .7 7.7 2.3 1.7 1.5 2.6 3.5 2.7 6.1l-5.6.2c-.2-1.4-.7-2.4-1.5-3-.8-.6-1.9-.9-3.4-.9-1.6 0-2.8.3-3.8 1-.6.4-.9 1-.9 1.7 0 .6.3 1.2.8 1.6.7.6 2.4 1.2 5.1 1.8 2.6.6 4.7 1.3 6 1.9 1.3.7 2.3 1.6 3 2.7.7 1.2 1.1 2.6 1.1 4.4 0 1.5-.4 3-1.3 4.5-.9 1.4-2.1 2.4-3.7 3-1.6.7-3.5 1-6 1-3.4 0-6.1-.8-8-2.4-1.8-1.7-2.9-4-3.2-7.1zm-10.8-2l-3.9-10.1-3.7 10.1h7.6zm10.2 10.9h-6l-2.3-6.2h-11l-2.2 6.2h-5.9l10.6-27.4h5.9l10.9 27.4zm-39.5 0l-9.8-27.4h6l7 20.3 6.7-20.3h5.9l-9.7 27.4h-6.1zm-16.3-10.9l-3.9-10.1-3.7 10.1h7.6zm10.1 10.9h-6l-2.3-6.2h-11l-2.2 6.2h-5.9l10.6-27.4h5.9l10.9 27.4zm-35.3-27.4h5.6v17.3c0 2.2-.2 4.1-.6 5.3-.5 1.6-1.5 2.8-2.9 3.9-1.4 1-3.2 1.4-5.6 1.4-2.7 0-4.8-.7-6.2-2.2s-2.2-3.8-2.2-6.7l5.3-.6c.1 1.5.3 2.6.7 3.3.6 1 1.5 1.5 2.7 1.5 1.2 0 2.1-.3 2.6-1s.7-2.1.7-4.4v-17.8h-.1z"/><path class="st18" d="M1128.1 636.6h320.5v69.9h-320.5zM946.9 735h497.6c3.4 0 6.3 2.8 6.3 6.3s-2.8 6.3-6.3 6.3H946.9c-3.4 0-6.3-2.8-6.3-6.3s2.8-6.3 6.3-6.3M946.9 769.2h497.6c3.4 0 6.3 2.8 6.3 6.3s-2.8 6.3-6.3 6.3H946.9c-3.4 0-6.3-2.8-6.3-6.3s2.8-6.3 6.3-6.3"/><path class="st22" d="M1163.5 518.1h-119c-24.6 0-44.5 20-44.5 44.5v29.7c0 24.6 20 44.5 44.5 44.5h95.2l23.7 21.8v-21.8c24.6 0 44.5-20 44.5-44.5v-29.7c.2-24.5-19.8-44.5-44.4-44.5"/><path class="st23" d="M405.8 917.8h53.3c6.7 0 23 12.6 26 29 5.4 26.5 3 84.7-15.7 105.4l-21.2-.3-65.1-16.1V926c6.2-5.1 14.1-8.2 22.7-8.2"/><path class="st24" d="M389.8 1083.9l-27.9 8.3s-3.1 3.8-4 7c-.8 3.3-2.1 4.8-4.3 4.9-3.8.2-5.4-24.2-6-28.1l31.8-8.9 10.4 16.8z"/><path class="st23" d="M459.3 917.9c26.4 2.6 28.8 35.7 28.5 56.4h-28.4l-.1-56.4z"/><path class="st24" d="M461.8 974.5l25.9-.2c-10.7 33.5-28.6 51.7-55.6 51.7h-37.6s8-10.2 18.6-11.2c10.5-.8 12.1 6.3 12.1 6.3 18.8-10 30.6-20.6 36.6-46.6"/><path class="st25" d="M340.6 1026h112.8c1.3 0 2.5.1 3.8.3 30.4 0 30.9 18.9 33.3 40.2H340.8c-11.2 0-20.3-9.1-20.3-20.3s9-20.2 20.1-20.2"/><path class="st25" d="M326.3 1028c4.6-1 9.5-2.6 14.9-1.9 16.7 2.1 116.1 32.2 116.1 32.2l-18.9 26.9c-20.5-1.3-101.2-.5-116.9-11.3-16.3-11.3-20-40.3 4.8-45.9M397.9 877.1c1.1 7.2-1.3 25.5-11.7 34.2 0 0 25 4.7 29.2 3.9 4.2-.7 7.8-8.6 7.8-9.2 0-.7-5.5-29.1-5.5-29.1l-19.8.2z"/><path class="st24" d="M400.3 891.2c-3.1 9.6 4 23.8 15.8 22.8v3.1l-6.4 9.1 6.3 16 6.6 2.4 15.9-4.1v-35.3c.6-.2.6.9 1.8.1 1.2-.7 3.9-6.1 3.3-8.8-.5-2.7-4-4.4-4-4.4 3.3-8.1 5.9-9.4-2.6-14s-25.8-4.2-25.8-4.2l-7.8 2.6c-.3 7.9-.7 7.2-3.1 14.7"/><path d="M414.4 914h1.7c5.1-.1 9.5-1.1 14.3-2.9 0 0-1.7 5.6-7.8 8.3-5.7 2.6-9.5 2.7-9.9 2.7l3.4-5V914h-1.7z" fill-rule="evenodd" clip-rule="evenodd" fill="#ed8d8f"/><path class="st23" d="M383.7 925.5c-14.5 12.9-22.9 30.8-28.1 49.5 9.5-.6 19.5-.6 28.8-.9l-.7-48.6z"/><path class="st21" d="M416 917.1c-6.1 10.3.5 24.2 6.5 27.6 8.4-5.5 15.9-17.3 15.9-27.6 0 0 4.8-.4 6.7 4.2 4.5 11.3-4 31.1-4 31.1s-5.8-7.5-10.6-7.9c-4.9-.4-8 1-8 1-6.2-4.6-12.5 1-16.6 5.3-1.3-11.1-1.8-25.9 9.1-33.7h1z"/><path class="st27" d="M409.8 961.1h-81.5c-3.1 0-6.4 2.6-5.7 5.7l12.2 53.9c.7 3 2.5 5.7 5.7 5.7H422c3.1 0 6.4-2.6 5.7-5.7l-12.2-53.9c-.6-3-2.6-5.7-5.7-5.7"/><path class="st28" d="M406.1 961.1h-81.5c-3.1 0-6.4 2.6-5.7 5.7l12.2 53.9c.7 3 2.5 5.7 5.7 5.7h81.5c3.1 0 6.4-2.6 5.7-5.7l-12.2-53.9c-.6-3-2.5-5.7-5.7-5.7"/><path class="st27" d="M369.7 988.5c-2.4.8-3.7 3.9-2.7 6.8.9 2.9 3.8 4.7 6.2 4 2.4-.8 3.7-3.9 2.7-6.8-.9-3.1-3.7-4.8-6.2-4M466.5 1021.2H425v5.4h44.1v-2.6c0-1.6-1.2-2.8-2.6-2.8"/><path class="st25" d="M460.6 1027.2c-16.8.8-103.5 33.7-103.5 33.7l9.1 31.2c12.8-1.5 100.2-4.4 107.3-7.9 41.2-20.4 11.4-59.2-12.9-57M424 879.5s-20.2 3.3-28-1.4c-7.6-4.6-9.2-9.3-8.7-13.8.9-8.6 12.7-15.8 27.2-15.3 30.9 1.1 52.2 27.2 44.6 61.1-1.4 6.3-28.4 8-35.5 6 4-2.3 8-6.9 9-11.6 0 0 4.3-2 4.1-5.4-.2-3.3-1.4-2.2-1.8-2.1-.4.1-2.1.5-2.1.5-.9-4.2-2.9-17.5-8.8-18"/><path class="st18" d="M458.4 831h259.8c1.8 0 3.3 1.5 3.3 3.3 0 1.8-1.5 3.3-3.3 3.3H458.4c-1.8 0-3.3-1.5-3.3-3.3 0-1.7 1.4-3.3 3.3-3.3"/><path class="st21" d="M1133.4 585.4l10.2-1c.6 3.4 1.8 6 3.8 7.6 1.9 1.6 4.5 2.4 7.6 2.4 3.3 0 5.9-.7 7.6-2.1 1.7-1.4 2.5-3.1 2.5-5.1 0-1.2-.4-2.2-1.1-3.1-.7-.8-1.9-1.6-3.8-2.2-1.2-.4-4.1-1.2-8.4-2.2-5.6-1.4-9.5-3.1-11.9-5.2-3.1-2.8-4.8-6.4-4.8-10.5 0-2.6.7-5.2 2.2-7.5 1.5-2.3 3.7-4.1 6.5-5.3 2.8-1.2 6.2-1.8 10.2-1.8 6.5 0 11.5 1.4 14.7 4.4 3.3 2.9 5.1 6.8 5.2 11.6l-10.5.4c-.4-2.7-1.4-4.7-2.8-5.8-1.4-1.2-3.7-1.7-6.6-1.7-3 0-5.4.6-7.1 1.9-1.1.8-1.6 1.9-1.6 3.2 0 1.2.5 2.3 1.5 3.1 1.3 1.1 4.6 2.3 9.6 3.5 5.1 1.2 8.9 2.4 11.4 3.8 2.4 1.3 4.4 3 5.8 5.3 1.4 2.2 2 5 2 8.3 0 2.9-.8 5.8-2.5 8.4-1.6 2.6-4 4.6-7 5.8-3 1.3-6.8 1.9-11.4 1.9-6.6 0-11.7-1.5-15.2-4.6-3.4-3.2-5.4-7.7-6.1-13.5m-48.6 0l10.2-1c.6 3.4 1.8 6 3.8 7.6 1.9 1.6 4.5 2.4 7.6 2.4 3.3 0 5.9-.7 7.6-2.1 1.7-1.4 2.5-3.1 2.5-5.1 0-1.2-.4-2.2-1.1-3.1-.7-.8-1.9-1.6-3.8-2.2-1.2-.4-4.1-1.2-8.4-2.2-5.6-1.4-9.5-3.1-11.9-5.2-3.1-2.8-4.8-6.4-4.8-10.5 0-2.6.7-5.2 2.2-7.5 1.5-2.3 3.7-4.1 6.5-5.3 2.8-1.2 6.2-1.8 10.2-1.8 6.5 0 11.5 1.4 14.7 4.4 3.3 2.9 5.1 6.8 5.2 11.6l-10.5.4c-.4-2.7-1.4-4.7-2.8-5.8-1.4-1.2-3.7-1.7-6.6-1.7-3 0-5.4.6-7.1 1.9-1.1.8-1.6 1.9-1.6 3.2 0 1.2.5 2.3 1.5 3.1 1.3 1.1 4.6 2.3 9.6 3.5 5.1 1.2 8.9 2.4 11.4 3.8 2.4 1.3 4.4 3 5.8 5.3s2 5 2 8.3c0 2.9-.8 5.8-2.5 8.4-1.6 2.6-4 4.6-7 5.8-3 1.3-6.8 1.9-11.4 1.9-6.6 0-11.7-1.5-15.2-4.6-3.3-3.2-5.4-7.7-6.1-13.5zm-16.5-2.3l10.1 3.1c-1.5 5.8-4.2 10-7.8 12.8-3.7 2.7-8.2 4.2-13.9 4.2-6.9 0-12.6-2.3-17-7.1-4.5-4.8-6.7-11.2-6.7-19.4 0-8.7 2.2-15.4 6.7-20.2 4.5-4.8 10.3-7.2 17.6-7.2 6.4 0 11.6 1.9 15.5 5.7 2.3 2.2 4.2 5.5 5.4 9.6l-10.4 2.4c-.6-2.7-1.9-4.9-3.9-6.4-1.9-1.5-4.4-2.3-7.1-2.3-3.9 0-7 1.4-9.4 4.2s-3.7 7.3-3.7 13.5c0 6.6 1.2 11.3 3.5 14.1 2.3 2.8 5.5 4.2 9.2 4.2 2.8 0 5.2-.9 7.2-2.6 2.4-2 3.8-4.9 4.7-8.6z"/><path d="M850.5 974.8h-40c-1.9 0-3.4-1.4-3.7-3.2h45.9c.7 1.6-.5 3.2-2.2 3.2" fill="#000446"/><path class="st30" d="M969.3 1008.9H782.7c-12.7 0-23 11.1-23 24.6 0 13.6 10.3 24.6 23 24.6h186.5c12.7 0 23-11.1 23-24.6.1-13.5-10.3-24.6-22.9-24.6"/><path class="st31" d="M791.2 1050.6H628.1c7.2-8.8 9.9-21.3 0-34.3h163.2c5.8 0 10.5 7.7 10.5 17.1s-4.7 17.2-10.6 17.2"/><path class="st32" d="M634.3 1030.6c-.6-4.6-2.5-9.3-6.3-14.2h163.2c5.2 0 9.5 6.2 10.3 14.2H634.3z"/><path class="st33" d="M622.7 1058.1h169.2c8.3 0 17.1-11.3 17.1-24.7 0-13.6-8.8-24.4-17.1-24.4H622.7l.1 7.4 168.4.1c5.8 0 10.5 7.7 10.5 17.1 0 9.4-4.8 17.1-10.5 17.1l-168.4-.1-.1 7.5zM946.2 1008.9h-21.1c12.7 0 23 11.1 23 24.6 0 7.4-3.1 14.1-8 18.7l-7 6h13.1c12.7 0 23-11.1 23-24.6.1-13.6-10.3-24.7-23-24.7M836.3 1024.5h82.4c4.4 0 7.9 3.5 7.9 7.9s-3.5 7.9-7.9 7.9h-82.4c-4.4 0-7.9-3.5-7.9-7.9.1-4.3 3.7-7.9 7.9-7.9"/><path class="st34" d="M724.7 1030.1h20.5v16.9l-9.8-3.9-10.7 3.9z"/><path d="M926.9 970.7H782.3c-9.8 0-17.8 8.6-17.8 19.1 0 10.5 8 19.1 17.8 19.1h144.6c9.8 0 17.8-8.6 17.8-19.1 0-10.5-8-19.1-17.8-19.1" fill-rule="evenodd" clip-rule="evenodd" fill="#9d1f39"/><path class="st31" d="M788.9 1003H662.4c5.6-6.8 7.7-16.5 0-26.6h126.5c4.5 0 8.2 6 8.2 13.3s-3.7 13.3-8.2 13.3"/><path class="st32" d="M667.2 987.1c-.5-3.4-2-7-4.8-10.6h126.5c4 0 7.2 4.6 8 10.6H667.2z"/><path class="st34" d="M658.2 1008.9h131.1c6.5 0 13.3-8.7 13.3-19.2s-6.8-19-13.3-19H658.2l.1 5.7 130.6.1c4.5 0 8.2 6 8.2 13.3s-3.7 13.3-8.2 13.3l-130.6-.1-.1 5.9zM909 970.7h-16.3c9.8 0 17.8 8.6 17.8 19.1 0 5.8-2.4 11-6.3 14.5l-5.2 4.7h9.9c9.8 0 17.8-8.6 17.8-19.1.3-10.6-7.8-19.2-17.7-19.2"/><path class="st34" d="M759.8 987.1h15.8v13.2l-7.5-3.1-8.3 3.1zM834.1 970.7h-16.3c9.8 0 17.8 8.6 17.8 19.1 0 5.8-2.4 11-6.3 14.5l-6.3 4.7h11.1c9.8 0 17.8-8.6 17.8-19.1 0-10.6-8-19.2-17.8-19.2"/><path d="M865.4 799.7c11.5-24.2 1-53.1-23.2-64.6-24.2-11.5-53.1-1-64.6 23.2s-1 53.1 23.2 64.6c24.3 11.5 53.2 1 64.6-23.2m6.5 3c13.1-27.9 1.1-61-26.7-74.1-27.9-13.1-61-1.1-74.1 26.7-13.1 27.9-1.1 61 26.7 74.1 27.8 13.2 61 1.2 74.1-26.7z" fill-rule="evenodd" clip-rule="evenodd" fill="#ffd68b"/><path class="st22" d="M844.8 729.5c27.4 12.9 39.1 45.5 26.3 72.8-12.9 27.4-45.5 39-72.8 26.3-27.4-12.9-39-45.5-26.3-72.8 12.8-27.4 45.5-39.2 72.8-26.3m5.9-12.6c34.3 16.1 49 57 32.9 91.3s-57 49-91.3 32.9-49-57-32.9-91.3c16.2-34.3 57-49 91.3-32.9z"/><path class="st22" d="M797.7 829.6c5.8 2.7 8.3 9.6 5.6 15.4l-56.2 119.4c-2.7 5.8-9.6 8.3-15.4 5.6-5.8-2.7-8.3-9.6-5.6-15.4l56.2-119.4c2.7-5.8 9.6-8.3 15.4-5.6"/><path class="st30" d="M777.1 847.6l19.8 9.3c3 1.4 4.5 5.2 2.9 8.2l-45.6 96.8c-1.4 3-5.2 4.5-8.2 2.9l-19.8-9.3c-3-1.4-4.5-5.2-2.9-8.2l45.6-96.8c1.4-3 5.2-4.4 8.2-2.9"/><path class="st37" d="M770.6 870.2c1.2.5 1.7 1.9 1.1 3.1L741 938.7c-.5 1.2-1.9 1.7-3.1 1.1-1.2-.5-1.7-1.9-1.1-3.1l30.8-65.4c.4-1.2 1.8-1.7 3-1.1M776.2 858.7c1.5.7 2.2 2.5 1.4 4.1-.7 1.5-2.5 2.2-4.1 1.4-1.5-.7-2.2-2.5-1.4-4.1.7-1.4 2.6-2.1 4.1-1.4"/><path class="st22" d="M545.3 849.3h143.4c29.6 0 53.6 24 53.6 53.6v35.8c0 29.6-24 53.6-53.6 53.6H574l-28.6 26.4v-26.4c-29.6 0-53.6-24-53.6-53.6v-35.8c-.2-29.6 23.9-53.6 53.5-53.6"/><path class="st21" d="M682.6 944.8v-50.6h10.3v42h25.6v8.6h-35.9zm-59.8 0v-51h15.5l9.1 34.8 9-34.8h15.5v51h-9.5v-40.2l-10 40.2h-10l-10-40.2v40.2h-9.6zm-32 0v-42.4h-15.1v-8.6h40.5v8.6h-15v42.4h-10.4zm-63 0v-51h10.3v20.1h20.1v-20.1h10.3v51h-10.3v-22.3h-20.1v22.3h-10.3z"/><g><path class="st38" d="M1231.2 694.2h-54.5c-6.8 0-23.5 12.9-26.5 29.6-5.6 27-3 86.4 16 107.6l21.7-.3 66.4-16.4V702.5c-6.2-5.1-14.3-8.3-23.1-8.3"/><path class="st38" d="M1176.8 694.4c-26.9 2.6-29.4 36.4-29.1 57.5h29l.1-57.5z"/><path class="st24" d="M1174.1 752.1l-26.4-.2c10.4 28.5 30.3 52.8 56.8 52.8h38.4s-8.2-10.4-19-11.4-11.2.6-11.2.6c-8.9-4.7-29.8-20.7-38.6-41.8"/><path class="st39" d="M1140.1 968.4l-2.6 19-6.8 6.3s-5.3-.2-5.9 1.6c-.6 1.8 0 5.8 0 5.8h34.7c1.9-8.2 3.4-16.9 4-31.4l-23.4-1.3z"/><path class="st25" d="M1297.8 804.8h-115.1c-1.3 0-2.5.1-3.9.4-32.1-.2-36.1 20.6-38.3 43.3l-13 130.3h43.6l14.4-132.5h112.3c11.4 0 20.7-9.3 20.7-20.7 0-11.5-9.3-20.8-20.7-20.8"/><path class="st39" d="M1266.4 923.8l-15.8 35.4s1 6.4 3.7 10c2.6 3.7 2.9 6.3 1.2 8.5-1.6 2.2-2.1 2.7-2.1 2.7l-26.9-28 14.1-33 25.8 4.4z"/><path class="st25" d="M1286.9 810.7c-4.4 2-8.4 5.6-11.5 10.2-9.4 14.4-52.4 111.2-52.4 111.2h49.4l36-79c1.5-3.2 8.9-16.9 9.6-23.2 2.2-19.9-14.5-26.8-31.1-19.2"/><path class="st24" d="M1237 667.1c5.7 10.1-4.1 24.3-16.1 23.3v3.2l6.6 9.3-6.5 9.6-6.7 2.4-16.2-4.2v-29.3c-.6-.2-.6.9-1.8.1-1.2-.7-3.9-6.2-3.4-9s4.1-4.5 4.1-4.5c-3.3-8.3-6.1-9.6 2.6-14.3 8.7-4.7 26.3-4.3 26.3-4.3l8 2.6c.3 8.2-.9 8 3.1 15.1"/><path d="M1222.6 690.4h-1.7c-5.3-.1-9.7-1.1-14.6-3 0 0 1.7 5.7 8 8.5 5.8 2.7 9.7 2.7 10.2 2.7l-3.5-5.1v-3.2l1.6.1z" fill-rule="evenodd" clip-rule="evenodd" fill="#dd7577"/><path d="M1231.8 654.9c-6.7 1.1-12.2.2-16.2.6-2.4.3-4.4 1.5-5.9 2.8-3.9 3.1-6.9 10.9-7.7 15.9 0 0-4.5-1.9-6-.9-1.4.9-.5 3.1-.3 4.2.2.9 2.3 1.9 2.9 2.5 2 1.7-2.7 2.4-8.3-2-17.8-14.4-12.4-37.1 12.8-45.6 10.1-3.4 3-8.9 10-10.4 32-7 38.6 28.9 18.7 32.9" fill-rule="evenodd" clip-rule="evenodd" fill="#363653"/><path class="st38" d="M1253.8 702.1c14.8 13.2 23.4 31.4 28.7 50.5-9.7-.6-19.9-.6-29.4-.9l.7-49.6z"/><path class="st21" d="M1214 731.3c-1 0-1.8.8-1.8 1.8s.8 1.8 1.8 1.8 1.8-.8 1.8-1.8-.8-1.8-1.8-1.8m0-10.3c-1 0-1.8.8-1.8 1.8s.8 1.8 1.8 1.8 1.8-.8 1.8-1.8-.8-1.8-1.8-1.8zm6.9-27.5c6.2 10.5-.5 18.1-6.6 21.4-8.5-5.6-16.2-11-16.2-21.4 0 0-2.9-.1-4.9 4.7-3.1 7.6 2.1 24.6 2.1 24.6s6-7.7 10.9-8.1c5-.4 8.1 1.1 8.1 1.1 6.3-4.7 10.6 1.4 14.9 5.8 1.3-11.3 1.1-19.4-7.3-28h-1v-.1z"/><path class="st27" d="M1227.3 738.5h83.3c3.2 0 6.6 2.7 5.9 5.9l-12.5 55.1c-.7 3.1-2.6 5.9-5.9 5.9h-83.3c-3.2 0-6.6-2.7-5.9-5.9l12.5-55.1c.7-3.2 2.6-5.9 5.9-5.9"/><path class="st28" d="M1230.9 738.5h83.3c3.2 0 6.6 2.7 5.9 5.9l-12.5 55.1c-.7 3.1-2.6 5.9-5.9 5.9h-83.3c-3.2 0-6.6-2.7-5.9-5.9l12.5-55.1c.8-3.2 2.8-5.9 5.9-5.9"/><path class="st27" d="M1268.1 766.4c2.5.8 3.8 4 2.8 6.9-1 3-3.8 4.8-6.3 4-2.5-.8-3.8-4-2.8-6.9.9-3.1 3.8-4.8 6.3-4M1169.5 799.8h42.3v5.5h-45v-2.7c-.1-1.6 1.1-2.8 2.7-2.8"/></g><path class="st11" d="M823.8 142h-142c-29.3 0-53.1 23.8-53.1 53.1v35.4c0 29.3 23.8 53.1 53.1 53.1h113.6l28.4 26.1v-26.1c29.3 0 53.1-23.8 53.1-53.1v-35.4c.1-29.3-23.7-53.1-53.1-53.1"/><path class="st21" d="M714 234.3v-11.2l-27.6-10.9 27.6-10.7v-11.1l-39.5 17.1v9.4l39.5 17.4zm48.6 7.5l-14.3-59.6H740l14.4 59.6h8.2zm26-7.6l39.5-17.1v-9.5l-39.5-17.1v11.2l27.6 10.5-27.6 11v11z"/><path class="st22" d="M1404.8 576.7c-13.8 18.1-27.9 42.5-32.8 59.9-.4 1.5-1.4 2.6-2.9 3.3l-46.3-.1c-2.1-.9-3.5-2.2-4.2-4.2-4.7-16.6-38.3-68-37.9-67.9-6.6-11.1-10.3-24-10.3-37.8.1-41.3 33.9-74.6 75.6-74.5 41.7.1 75.3 33.6 75.3 74.8 0 13.7-3.8 26.6-10.3 37.6-2.2 3.1-3.8 6-6.2 8.9"/><path class="st21" d="M1360.5 569.6c1.1-11.4 9-11.6 10-3.4.2 1.8-.1 3.7-.6 5.4-.6 1.9-4.4 3.3-9.4 4.3v-6.3zm-29.6-.1c-1-11.4-9-11.6-10-3.4-.2 1.8 0 3.7.6 5.4.6 1.9 4.3 3.3 9.4 4.3v-6.3zm13.9 13.5h1.8c2.9-.1 5.9-.3 8.7-.6v1.8l-.1 55.8h5.2l.1-55.8v-2.7c7.3-1.5 13-4.3 14.2-8.1.8-2.5 1.2-5.3.8-8-.3-2.3-1.1-4.6-2.5-6.5-1.2-1.6-2.8-3-4.7-4-8-1.9-13.5 6.6-13 14.6v7c-3 .3-6.3.4-9.6.5-3.3 0-6.6-.2-9.6-.5v-7c.5-8-5-16.5-13-14.6-1.8.8-3.4 2.2-4.7 3.9-1.4 1.9-2.2 4.2-2.5 6.5-.3 2.6 0 5.4.8 8 1.2 3.9 6.8 6.6 14.2 8.1v2.7l-.1 55.8h5.2l.1-55.8v-1.8c2.8.4 5.7.6 8.7.7z"/><path class="st33" d="M1364.6 639.9l-36.3-.1c-5.1 0-9.3 4.2-9.3 9.2.1 5.1 4.2 9.3 9.2 9.3h1.3c.5.1.8.5.8 1s-.3.9-.8 1c-3.1 0-4.8 2.5-4.8 5.7.1 3.1 2.5 5.8 5.7 5.8h3.1c.5.1.8.5.8 1s-.3.9-.8 1c-1.9.9-3.1 2.7-3.4 5.4 0 3 2.4 5.5 5.5 5.5h21.2c3 0 5.5-2.4 5.5-5.5 0-2.7-2-5.1-4.8-5.5-.4-.1-.7-.6-.7-1 0-.5.3-.9.8-1h4.4c3.1 0 5.8-2.5 5.8-5.7 0-3.1-2.5-5.8-5.7-5.8-.4-.1-.8-.6-.8-1 0-.5.3-.9.8-1h2.3c5.1 0 9.3-4.2 9.3-9.2.1-5-4.1-9.1-9.1-9.1"/><path d="M1324 473.2c3.8-1.7 8.1 0 9.7 3.7 1.7 3.8 0 8.1-3.7 9.7-9 4.2-17 11.5-22.9 20.4-6.1 9.1-9.9 19.7-10.4 29.8-.2 4.1-3.7 7.2-7.8 7-4.1-.2-7.2-3.7-7-7.8.7-12.8 5.5-26 13-37.2 7.3-11.1 17.4-20.4 29.1-25.6" fill="#ffcf74"/><path class="st22" d="M1401.1 426.6c1.9 1.1 2.5 3.5 1.5 5.5l-8.8 15.2c-1.1 1.9-3.5 2.5-5.5 1.5-1.9-1.1-2.5-3.5-1.5-5.5l8.8-15.2c1-2 3.5-2.6 5.5-1.5m-119.9 0c1.9-1.1 4.4-.4 5.5 1.5l8.8 15.2c1.1 1.9.4 4.4-1.5 5.5-1.9 1.1-4.4.4-5.5-1.5l-8.8-15.2c-1-1.9-.4-4.4 1.5-5.5zm-43.8 43.8c1.1-1.9 3.5-2.5 5.5-1.5l15.2 8.8c1.9 1.1 2.5 3.5 1.5 5.5-1.1 1.9-3.5 2.5-5.5 1.5l-15.2-8.8c-2-1-2.6-3.6-1.5-5.5zm207.5 0c1.1 1.9.4 4.4-1.5 5.5l-15.2 8.8c-1.9 1.1-4.4.4-5.5-1.5-1.1-1.9-.4-4.4 1.5-5.5l15.2-8.8c1.9-1 4.4-.4 5.5 1.5zm-103.8-59.8c2.2 0 4.1 1.8 4.1 4.1v17.5c0 2.2-1.8 4.1-4.1 4.1-2.2 0-4.1-1.8-4.1-4.1v-17.5c.1-2.4 1.9-4.1 4.1-4.1z"/><g><path class="st11" d="M419.2 691.8L498 555.4c7.9-13.7 12.7-29.5 12.7-46.5 0-50.5-41-91.5-91.5-91.5s-91.5 41-91.5 91.5c0 17 4.8 32.9 12.7 46.5l78.8 136.4z"/><path class="st21" d="M418.9 568.6c-33.7 0-61.1-27.5-61.1-61.1s27.5-61.1 61.1-61.1S480 474 480 507.5c.1 33.6-27.4 61.1-61.1 61.1"/><path class="st11" d="M420.1 461.1c-26 0-47 21-47 47s21 47 47 47 47-21 47-47-21-47-47-47"/></g><path class="st11" d="M290.9 83.8l-5.5 9.2c-2.3 3.9-1.8 8.8 1.3 12.1 6 6.3 11.2 13.2 15.3 20.6 2.2 4 6.8 5.9 11.2 4.8l10.4-2.6c5.4-1.4 11 1.9 12.3 7.3l5.1 20c1.3 5.4-1.9 11-7.3 12.3l-10.4 2.6c-4.4 1.1-7.5 5-7.6 9.4-.2 8.5-1.4 17-3.8 25.5-1.2 4.4.7 8.9 4.6 11.3l9.2 5.5c4.8 2.8 6.4 9 3.4 13.9l-10.5 17.7c-2.8 4.8-9 6.4-13.9 3.5l-9.2-5.5c-3.9-2.3-8.8-1.8-12.1 1.3-6.3 6-13.2 11.2-20.6 15.3-4 2.2-5.9 6.8-4.8 11.2l2.6 10.4c1.3 5.4-1.9 11-7.3 12.3l-20 5.1c-5.4 1.3-11-1.9-12.3-7.3l-2.6-10.4c-1.1-4.4-5-7.5-9.4-7.6-8.5-.2-17-1.4-25.5-3.8-4.4-1.2-8.9.7-11.3 4.6l-5.5 9.2c-2.8 4.8-9 6.4-13.9 3.4l-17.7-10.5c-4.8-2.8-6.4-9-3.5-13.9l5.5-9.2c2.3-3.9 1.8-8.8-1.3-12.1-6-6.3-11.2-13.2-15.3-20.6-2.2-4-6.8-5.9-11.2-4.8L99 226.6c-5.4 1.4-11-1.9-12.3-7.3l-5.1-20c-1.3-5.4 1.9-11 7.3-12.3l10.4-2.6c4.4-1.1 7.5-5 7.6-9.5.2-8.5 1.4-17 3.8-25.5 1.2-4.4-.7-8.9-4.6-11.3l-9.2-5.5c-4.8-2.8-6.4-9-3.4-13.9L104 101c2.8-4.8 9-6.4 13.9-3.4l9.2 5.5c3.9 2.3 8.8 1.8 12.1-1.3 6.3-6 13.2-11.2 20.6-15.3 4-2.2 5.9-6.8 4.8-11.2L162 64.9c-1.3-5.5 1.9-11 7.3-12.3l20-5.1c5.4-1.4 11 1.9 12.3 7.3l2.6 10.4c1.1 4.4 5 7.5 9.4 7.6 8.5.2 17 1.4 25.5 3.8 4.4 1.2 8.9-.7 11.3-4.6l5.6-9.2c2.8-4.8 9-6.4 13.9-3.4L287.5 70c4.8 2.8 6.3 9.1 3.4 13.8M231.5 125c-21.9-8.6-47.6-2.1-62.7 15.8-25 29.6-13.7 74.4 22.4 88.6 21.9 8.6 47.5 2.1 62.7-15.8 25.1-29.6 13.7-74.4-22.4-88.6z"/><path class="st11" d="M195.8 310.5l-1.8 5.3c-.7 2.2 0 4.7 1.9 6 3.8 2.5 7 5.5 9.9 8.8 1.5 1.7 4.1 2.2 6.2 1.2l5-2.4c2.6-1.3 5.7-.2 7 2.3l4.7 9.5c1.3 2.6.2 5.7-2.4 7l-5 2.4c-2.1 1-3.2 3.3-2.8 5.6.8 4.4 1.1 8.7.8 13.3-.1 2.3 1.3 4.5 3.5 5.2l5.3 1.8c2.7.9 4.2 3.9 3.2 6.6l-3.4 10c-.9 2.7-3.9 4.2-6.6 3.2l-5.3-1.8c-2.2-.7-4.7 0-6 1.9-2.5 3.8-5.5 7-8.7 9.9-1.7 1.5-2.2 4.1-1.2 6.2l2.4 5c1.3 2.6.2 5.7-2.4 7l-9.5 4.7c-2.6 1.3-5.7.2-7-2.4l-2.4-5c-1-2.1-3.3-3.2-5.6-2.8-4.4.8-8.7 1.1-13.3.8-2.3-.2-4.5 1.3-5.2 3.5l-1.8 5.3c-.9 2.7-3.9 4.2-6.6 3.2l-10-3.4c-2.7-.9-4.2-3.9-3.2-6.6l1.8-5.3c.7-2.2 0-4.7-1.9-6-3.8-2.5-7-5.5-9.9-8.7-1.5-1.7-4.1-2.2-6.2-1.2l-5 2.4c-2.5 1.3-5.7.2-7-2.4l-4.7-9.5c-1.3-2.6-.2-5.7 2.4-7l5-2.4c2.1-1 3.2-3.3 2.8-5.6-.8-4.4-1.1-8.7-.8-13.2.1-2.3-1.3-4.5-3.5-5.2l-5.3-1.8c-2.7-.9-4.2-3.9-3.2-6.6l3.4-10c.9-2.7 4-4.2 6.6-3.2l5.3 1.8c2.2.7 4.7 0 6-1.9 2.5-3.8 5.5-7 8.7-9.9 1.7-1.5 2.2-4.1 1.2-6.2l-2.4-5c-1.3-2.6-.2-5.7 2.4-7l9.5-4.7c2.6-1.3 5.7-.2 7 2.4l2.4 5c1 2.1 3.3 3.2 5.6 2.8 4.4-.8 8.7-1.1 13.3-.8 2.3.1 4.5-1.3 5.2-3.5l1.8-5.3c.9-2.7 3.9-4.2 6.6-3.2l10 3.4c2.7.8 4.1 3.8 3.2 6.5m-25.5 27.2c-12-2-24.2 4-30 14.7-9.4 17.6 1 39 20.8 42.4 12 2 24.2-4 29.9-14.7 9.5-17.7-1-39.1-20.7-42.4z"/></svg>