<?xml version="1.0" encoding="utf-8"?>
<!-- Generator: Adobe Illustrator 25.2.0, SVG Export Plug-In . SVG Version: 6.00 Build 0)  -->
<svg version="1.1" id="Layer_1" xmlns="http://www.w3.org/2000/svg" xmlns:xlink="http://www.w3.org/1999/xlink" x="0px" y="0px"
	 viewBox="0 0 1633 1127.5" style="enable-background:new 0 0 1633 1127.5;" xml:space="preserve">
<style type="text/css">
	.st0{fill:#FFFFFF;}
	.st1{fill-rule:evenodd;clip-rule:evenodd;fill:#1A47B6;}
	.st2{clip-path:url(#SVGID_2_);fill:url(#SVGID_3_);}
	.st3{fill:#003398;}
	.st4{fill:url(#SVGID_4_);}
	.st5{fill:#3DABF9;}
	.st6{clip-path:url(#SVGID_6_);}
	.st7{fill:#3E268B;}
	.st8{fill:#F68F6F;}
	.st9{fill:#26216A;}
	.st10{fill:#5642BB;}
	.st11{fill:#0094D9;}
	.st12{fill:#2D2075;}
	.st13{fill:#EB8065;}
	.st14{fill:#433796;}
	.st15{fill:#463CA1;}
	.st16{fill:#A874E7;}
	.st17{fill:#CFEAFD;}
	.st18{fill:#EF5B72;}
	.st19{fill:#EE8C21;}
	.st20{fill:#FFDBE1;}
	.st21{fill:#32247A;}
	.st22{fill:#F5CAD2;}
	.st23{fill:#D24B4A;}
	.st24{fill:#EDEDEF;}
	.st25{fill:#E95F5D;}
	.st26{fill-rule:evenodd;clip-rule:evenodd;fill:#62A5E4;}
	.st27{fill-rule:evenodd;clip-rule:evenodd;fill:#FFFFFF;}
</style>
<rect class="st0" width="1633" height="1127.5"/>
<path class="st1" d="M1604,1092.3h-9.7h-0.1h-0.1H43.6h-0.1h-0.1h-9.7c-4.7,0-8.5,2.4-8.5,5.4s3.8,5.4,8.5,5.4h12.5h1545.5h12.5
	c4.7,0,8.5-2.4,8.5-5.4C1612.5,1094.7,1608.7,1092.3,1604,1092.3"/>
<g>
	<g>
		<defs>
			<path id="SVGID_1_" d="M305.7,797.3H165.8c-75.4,0-136.9,65.9-136.9,146.3s61.6,146.3,136.9,146.3h1225
				c121.9,0,221.8-106.6,221.8-236.9s-99.8-236.9-221.8-236.9c-51.5,0-93.7-45.1-93.7-100.2s42.2-100.2,93.7-100.2h43.3
				c53.6,0,97.5-46.9,97.5-104.1c0-57.3-43.9-104.1-97.5-104.1h-194.4c-20.9,0-37.9-18.3-37.9-40.5c0-22.3,17-40.5,37.9-40.5h25.2
				c14.4,0,26.2-12.6,26.2-28l0,0c0-15.3-11.7-28-26.2-28h-94.3c0,0,27.7,0-7,0c-34.7,0-38.6,43.9-126.4,43.9
				c-135.7,0-337.3,0-473,0c-18.8,0-34.2,16.5-34.2,36.5l0,0c0,20.1,15.3,36.5,34.2,36.5h32.8c27.2,0,49.5,23.8,49.5,52.9
				s-22.3,52.9-49.5,52.9h-49.4c-133.3,0-152.2,37.2-175.5,111.3s-13.8,80.1-13.8,80.1h-75c-41.1,0-74.6,35.9-74.6,79.7
				s33.6,79.7,74.6,79.7h22.3c39.5,0,71.7,34.5,71.7,76.7C377.4,763.2,345.2,797.3,305.7,797.3z M1338.5,126.4
				c-14.4,0-26.2-12.5-26.2-28s11.7-28,26.2-28c14.4,0,26.2,12.5,26.2,28C1364.8,113.8,1353,126.4,1338.5,126.4z"/>
		</defs>
		<clipPath id="SVGID_2_">
			<use xlink:href="#SVGID_1_"  style="overflow:visible;"/>
		</clipPath>
		
			<linearGradient id="SVGID_3_" gradientUnits="userSpaceOnUse" x1="820.7461" y1="-1322.2725" x2="820.7461" y2="1255.3873" gradientTransform="matrix(1 0 0 -1 0 1125.8898)">
			<stop  offset="0.205" style="stop-color:#1E9DF8"/>
			<stop  offset="0.3015" style="stop-color:#41ACF9"/>
			<stop  offset="0.4844" style="stop-color:#7DC7FB"/>
			<stop  offset="0.6522" style="stop-color:#ADDBFD"/>
			<stop  offset="0.7995" style="stop-color:#CFEAFE"/>
			<stop  offset="0.9204" style="stop-color:#E4F4FF"/>
			<stop  offset="1" style="stop-color:#ECF7FF"/>
		</linearGradient>
		<rect x="28.9" y="70.4" class="st2" width="1583.7" height="1019.5"/>
	</g>
</g>
<path class="st3" d="M1368.1,428.8H380.5c-3.8,0-7,3.2-7,7v599.8h1001.7V435.9C1375,431.9,1371.9,428.8,1368.1,428.8z"/>
<path class="st3" d="M1469.6,1075.2H279c-3.6,0-6.7-2.9-6.7-6.7v-32c0-1.1,0.9-2,2-2h1199.7c1.1,0,2,0.9,2,2v32
	C1476.1,1072.2,1473.2,1075.2,1469.6,1075.2z"/>
<linearGradient id="SVGID_4_" gradientUnits="userSpaceOnUse" x1="406.9968" y1="393.7442" x2="1341.4294" y2="393.7442" gradientTransform="matrix(1 0 0 -1 0 1125.8898)">
	<stop  offset="0" style="stop-color:#3D9DFF"/>
	<stop  offset="1" style="stop-color:#E3F2FB"/>
</linearGradient>
<path class="st4" d="M1339.2,462.4H409.3c-1.2,0-2.3,1-2.3,2.3v535c0,1.2,1,2.3,2.3,2.3h929.9c1.2,0,2.3-1,2.3-2.3V464.8
	C1341.4,463.4,1340.4,462.4,1339.2,462.4z"/>
<path class="st5" d="M1015,1054.4H733.4c-2.7,0-4.9-2.1-4.9-4.9v-14h291.2v14C1019.8,1052.2,1017.7,1054.4,1015,1054.4z"/>
<g>
	<g>
		<defs>
			<path id="SVGID_5_" d="M1339.2,462.4H409.3c-1.2,0-2.3,1-2.3,2.3v535c0,1.2,1,2.3,2.3,2.3h929.9c1.2,0,2.3-1,2.3-2.3V464.8
				C1341.4,463.4,1340.4,462.4,1339.2,462.4z"/>
		</defs>
		<clipPath id="SVGID_6_">
			<use xlink:href="#SVGID_5_"  style="overflow:visible;"/>
		</clipPath>
		<g class="st6">
			<g>
				<path class="st0" d="M1061,866.7H895.5c-2.8,0-5.2-2.4-5.2-5.2V639.9c0-2.8,2.4-5.2,5.2-5.2H1061c2.8,0,5.2,2.4,5.2,5.2v221.5
					C1066.2,864.4,1063.9,866.7,1061,866.7z"/>
				<g>
					<path class="st0" d="M642.3,866.7H476.9c-2.8,0-5.2-2.4-5.2-5.2V639.9c0-2.8,2.4-5.2,5.2-5.2h165.5c2.8,0,5.2,2.4,5.2,5.2
						v221.5C647.5,864.4,645.2,866.7,642.3,866.7z"/>
					<path class="st7" d="M616.7,790.7H502.5c-1.5,0-2.7-1.2-2.7-2.7l0,0c0-1.5,1.2-2.7,2.7-2.7h114.2c1.5,0,2.7,1.2,2.7,2.7l0,0
						C619.4,789.6,618.2,790.7,616.7,790.7z"/>
					<path class="st7" d="M588.7,801.9h-58.1c-1.5,0-2.7-1.2-2.7-2.7l0,0c0-1.5,1.2-2.7,2.7-2.7h58.1c1.5,0,2.7,1.2,2.7,2.7l0,0
						C591.4,800.7,590.2,801.9,588.7,801.9z"/>
					<polygon class="st8" points="526.8,812 528.3,816.6 533.1,816.6 529.3,819.4 530.7,824 526.8,821.2 523,824 524.4,819.4 
						520.5,816.6 525.3,816.6 					"/>
					<polygon class="st8" points="543.3,812 544.7,816.6 549.6,816.6 545.6,819.4 547.1,824 543.3,821.2 539.3,824 540.8,819.4 
						536.8,816.6 541.7,816.6 					"/>
					<polygon class="st8" points="559.6,812 561.1,816.6 565.9,816.6 562,819.4 563.6,824 559.6,821.2 555.7,824 557.2,819.4 
						553.3,816.6 558.1,816.6 					"/>
					<polygon class="st9" points="576,812 577.5,816.6 582.4,816.6 578.5,819.4 579.9,824 576,821.2 572.1,824 573.6,819.4 
						569.7,816.6 574.5,816.6 					"/>
					<polygon class="st9" points="592.4,812 593.9,816.6 598.8,816.6 594.8,819.4 596.3,824 592.4,821.2 588.5,824 590,819.4 
						586.1,816.6 591,816.6 					"/>
					<path class="st10" d="M576.2,846.4H543c-3.4,0-6.2-2.8-6.2-6.2l0,0c0-3.4,2.8-6.2,6.2-6.2h33.2c3.4,0,6.2,2.8,6.2,6.2l0,0
						C582.4,843.6,579.6,846.4,576.2,846.4z"/>
					
						<ellipse transform="matrix(0.1602 -0.9871 0.9871 0.1602 -232.1744 1149.7797)" class="st11" cx="559.6" cy="711.3" rx="56.2" ry="56.2"/>
				</g>
				<g>
					<path class="st0" d="M851.7,866.7H686.3c-2.8,0-5.2-2.4-5.2-5.2V639.9c0-2.8,2.4-5.2,5.2-5.2h165.5c2.8,0,5.2,2.4,5.2,5.2
						v221.5C856.8,864.4,854.6,866.7,851.7,866.7z"/>
					<path class="st7" d="M826,790.7H711.9c-1.5,0-2.7-1.2-2.7-2.7l0,0c0-1.5,1.2-2.7,2.7-2.7H826c1.5,0,2.7,1.2,2.7,2.7l0,0
						C828.8,789.6,827.5,790.7,826,790.7z"/>
					<path class="st7" d="M798.1,801.9H740c-1.5,0-2.7-1.2-2.7-2.7l0,0c0-1.5,1.2-2.7,2.7-2.7h58.1c1.5,0,2.7,1.2,2.7,2.7l0,0
						C800.7,800.7,799.5,801.9,798.1,801.9z"/>
					<polygon class="st8" points="736.1,812 737.6,816.6 742.5,816.6 738.6,819.4 740.1,824 736.1,821.2 732.2,824 733.8,819.4 
						729.8,816.6 734.7,816.6 					"/>
					<polygon class="st8" points="752.6,812 754.1,816.6 758.9,816.6 755,819.4 756.5,824 752.6,821.2 748.7,824 750.1,819.4 
						746.2,816.6 751,816.6 					"/>
					<polygon class="st9" points="769,812 770.4,816.6 775.3,816.6 771.3,819.4 772.9,824 769,821.2 765,824 766.5,819.4 
						762.7,816.6 767.5,816.6 					"/>
					<polygon class="st9" points="785.3,812 786.9,816.6 791.6,816.6 787.8,819.4 789.3,824 785.3,821.2 781.5,824 783,819.4 
						779,816.6 783.9,816.6 					"/>
					<polygon class="st9" points="801.8,812 803.3,816.6 808.1,816.6 804.2,819.4 805.6,824 801.8,821.2 797.8,824 799.3,819.4 
						795.5,816.6 800.2,816.6 					"/>
					<path class="st10" d="M785.6,846.4h-33.2c-3.4,0-6.2-2.8-6.2-6.2l0,0c0-3.4,2.8-6.2,6.2-6.2h33.2c3.4,0,6.2,2.8,6.2,6.2l0,0
						C791.6,843.6,788.9,846.4,785.6,846.4z"/>
					<circle class="st11" cx="769" cy="711.3" r="56.2"/>
				</g>
				<path class="st12" d="M1035.4,790.7H921.3c-1.5,0-2.7-1.2-2.7-2.7l0,0c0-1.5,1.2-2.7,2.7-2.7h114.2c1.5,0,2.7,1.2,2.7,2.7l0,0
					C1038.1,789.6,1036.9,790.7,1035.4,790.7z"/>
				<path class="st12" d="M1007.3,801.9h-58.1c-1.5,0-2.7-1.2-2.7-2.7l0,0c0-1.5,1.2-2.7,2.7-2.7h58.1c1.5,0,2.7,1.2,2.7,2.7l0,0
					C1010,800.7,1008.9,801.9,1007.3,801.9z"/>
				<polygon class="st13" points="945.5,812 947,816.6 951.8,816.6 948,819.4 949.5,824 945.5,821.2 941.6,824 943.1,819.4 
					939.2,816.6 944,816.6 				"/>
				<polygon class="st13" points="961.9,812 963.4,816.6 968.3,816.6 964.3,819.4 965.8,824 961.9,821.2 958,824 959.5,819.4 
					955.5,816.6 960.4,816.6 				"/>
				<polygon class="st13" points="978.3,812 979.8,816.6 984.6,816.6 980.7,819.4 982.3,824 978.3,821.2 974.4,824 975.8,819.4 
					972,816.6 976.9,816.6 				"/>
				<polygon class="st13" points="994.7,812 996.3,816.6 1001,816.6 997.2,819.4 998.6,824 994.7,821.2 990.8,824 992.3,819.4 
					988.4,816.6 993.2,816.6 				"/>
				<polygon class="st14" points="1011.2,812 1012.6,816.6 1017.5,816.6 1013.5,819.4 1015,824 1011.2,821.2 1007.2,824 
					1008.7,819.4 1004.8,816.6 1009.6,816.6 				"/>
				<path class="st15" d="M994.9,846.4h-33.2c-3.4,0-6.2-2.8-6.2-6.2l0,0c0-3.4,2.8-6.2,6.2-6.2h33.2c3.4,0,6.2,2.8,6.2,6.2l0,0
					C1001,843.6,998.3,846.4,994.9,846.4z"/>
				<circle class="st11" cx="978.3" cy="711.3" r="56.2"/>
				<path class="st0" d="M1271.6,866.4h-165.5c-2.8,0-5.2-2.4-5.2-5.2V639.7c0-2.8,2.4-5.2,5.2-5.2h165.5c2.8,0,5.2,2.4,5.2,5.2
					v221.5C1276.8,864.2,1274.4,866.4,1271.6,866.4z"/>
				<path class="st12" d="M1246,790.5h-114.2c-1.5,0-2.7-1.2-2.7-2.7l0,0c0-1.5,1.2-2.7,2.7-2.7H1246c1.5,0,2.7,1.2,2.7,2.7l0,0
					C1248.7,789.4,1247.5,790.5,1246,790.5z"/>
				<path class="st12" d="M1217.9,801.7h-58.1c-1.5,0-2.7-1.2-2.7-2.7l0,0c0-1.5,1.2-2.7,2.7-2.7h58.1c1.5,0,2.7,1.2,2.7,2.7l0,0
					C1220.6,800.4,1219.4,801.7,1217.9,801.7z"/>
				<polygon class="st13" points="1156.1,811.7 1157.6,816.4 1162.4,816.4 1158.5,819.2 1159.9,823.8 1156.1,821 1152.2,823.8 
					1153.6,819.2 1149.8,816.4 1154.5,816.4 				"/>
				<polygon class="st13" points="1172.5,811.7 1173.9,816.4 1178.8,816.4 1174.9,819.2 1176.4,823.8 1172.5,821 1168.5,823.8 
					1170.1,819.2 1166.1,816.4 1171,816.4 				"/>
				<polygon class="st13" points="1188.8,811.7 1190.4,816.4 1195.2,816.4 1191.3,819.2 1192.8,823.8 1188.8,821 1185,823.8 
					1186.4,819.2 1182.5,816.4 1187.3,816.4 				"/>
				<polygon class="st13" points="1205.3,811.7 1206.7,816.4 1211.6,816.4 1207.6,819.2 1209.2,823.8 1205.3,821 1201.3,823.8 
					1202.8,819.2 1199,816.4 1203.8,816.4 				"/>
				<polygon class="st14" points="1221.6,811.7 1223.2,816.4 1228,816.4 1224.1,819.2 1225.6,823.8 1221.6,821 1217.8,823.8 
					1219.3,819.2 1215.3,816.4 1220.2,816.4 				"/>
				<path class="st15" d="M1205.4,846.2h-33.2c-3.4,0-6.2-2.8-6.2-6.2l0,0c0-3.4,2.8-6.2,6.2-6.2h33.2c3.4,0,6.2,2.8,6.2,6.2l0,0
					C1211.6,843.4,1208.8,846.2,1205.4,846.2z"/>
				
					<ellipse transform="matrix(0.1602 -0.9871 0.9871 0.1602 296.4588 1770.6624)" class="st11" cx="1188.8" cy="711.1" rx="56.2" ry="56.2"/>
			</g>
			<g>
				<path class="st0" d="M1061.7,1119.2H896.2c-2.8,0-5.2-2.4-5.2-5.2V892.5c0-2.8,2.4-5.2,5.2-5.2h165.5c2.8,0,5.2,2.4,5.2,5.2
					V1114C1066.8,1116.8,1064.5,1119.2,1061.7,1119.2z"/>
				<g>
					<path class="st0" d="M643,1119.2H477.5c-2.8,0-5.2-2.4-5.2-5.2V892.5c0-2.8,2.4-5.2,5.2-5.2H643c2.8,0,5.2,2.4,5.2,5.2V1114
						C648.2,1116.8,645.8,1119.2,643,1119.2z"/>
					<path class="st7" d="M617.4,1043.3H503.1c-1.5,0-2.7-1.2-2.7-2.7l0,0c0-1.5,1.2-2.7,2.7-2.7h114.2c1.5,0,2.7,1.2,2.7,2.7l0,0
						C620,1042.1,618.8,1043.3,617.4,1043.3z"/>
					<path class="st7" d="M589.3,1054.4h-58.1c-1.5,0-2.7-1.2-2.7-2.7l0,0c0-1.5,1.2-2.7,2.7-2.7h58.1c1.5,0,2.7,1.2,2.7,2.7l0,0
						C592,1053.1,590.7,1054.4,589.3,1054.4z"/>
					<polygon class="st8" points="527.5,1064.4 528.9,1069 533.8,1069 529.8,1071.8 531.3,1076.5 527.5,1073.6 523.5,1076.5 
						525,1071.8 521,1069 525.9,1069 					"/>
					<polygon class="st8" points="543.8,1064.4 545.3,1069 550.1,1069 546.2,1071.8 547.8,1076.5 543.8,1073.6 539.9,1076.5 
						541.3,1071.8 537.5,1069 542.4,1069 					"/>
					<polygon class="st8" points="560.2,1064.4 561.8,1069 566.5,1069 562.7,1071.8 564.1,1076.5 560.2,1073.6 556.3,1076.5 
						557.8,1071.8 553.9,1069 558.7,1069 					"/>
					<polygon class="st9" points="576.6,1064.4 578.1,1069 583,1069 579,1071.8 580.5,1076.5 576.6,1073.6 572.7,1076.5 
						574.2,1071.8 570.3,1069 575.1,1069 					"/>
					<polygon class="st9" points="593,1064.4 594.5,1069 599.3,1069 595.5,1071.8 597,1076.5 593,1073.6 589.1,1076.5 590.6,1071.8 
						586.7,1069 591.5,1069 					"/>
					<path class="st10" d="M576.8,1098.9h-33.2c-3.4,0-6.2-2.8-6.2-6.2l0,0c0-3.4,2.8-6.2,6.2-6.2h33.2c3.4,0,6.2,2.8,6.2,6.2l0,0
						C583,1096.1,580.1,1098.9,576.8,1098.9z"/>
					
						<ellipse transform="matrix(0.1602 -0.9871 0.9871 0.1602 -480.8868 1362.3447)" class="st11" cx="560.2" cy="963.8" rx="56.2" ry="56.2"/>
				</g>
				<g>
					<path class="st0" d="M852.3,1119.2H686.9c-2.8,0-5.2-2.4-5.2-5.2V892.5c0-2.8,2.4-5.2,5.2-5.2h165.5c2.8,0,5.2,2.4,5.2,5.2
						V1114C857.4,1116.8,855.1,1119.2,852.3,1119.2z"/>
					<path class="st7" d="M826.6,1043.3H712.5c-1.5,0-2.7-1.2-2.7-2.7l0,0c0-1.5,1.2-2.7,2.7-2.7h114.2c1.5,0,2.7,1.2,2.7,2.7l0,0
						C829.3,1042.1,828.2,1043.3,826.6,1043.3z"/>
					<path class="st7" d="M798.6,1054.4h-58.1c-1.5,0-2.7-1.2-2.7-2.7l0,0c0-1.5,1.2-2.7,2.7-2.7h58.1c1.5,0,2.7,1.2,2.7,2.7l0,0
						C801.3,1053.1,800.1,1054.4,798.6,1054.4z"/>
					<polygon class="st8" points="736.7,1064.4 738.3,1069 743.1,1069 739.2,1071.8 740.7,1076.5 736.7,1073.6 732.9,1076.5 
						734.3,1071.8 730.4,1069 735.2,1069 					"/>
					<polygon class="st8" points="753.2,1064.4 754.6,1069 759.5,1069 755.5,1071.8 757.1,1076.5 753.2,1073.6 749.2,1076.5 
						750.7,1071.8 746.9,1069 751.7,1069 					"/>
					<polygon class="st9" points="769.5,1064.4 771.1,1069 775.9,1069 772,1071.8 773.5,1076.5 769.5,1073.6 765.7,1076.5 
						767.2,1071.8 763.2,1069 768.1,1069 					"/>
					<polygon class="st9" points="786,1064.4 787.5,1069 792.3,1069 788.4,1071.8 789.8,1076.5 786,1073.6 782.1,1076.5 
						783.5,1071.8 779.7,1069 784.4,1069 					"/>
					<polygon class="st9" points="802.4,1064.4 803.8,1069 808.7,1069 804.7,1071.8 806.3,1076.5 802.4,1073.6 798.4,1076.5 
						800,1071.8 796,1069 800.9,1069 					"/>
					<path class="st10" d="M786.1,1098.9H753c-3.4,0-6.2-2.8-6.2-6.2l0,0c0-3.4,2.8-6.2,6.2-6.2h33.2c3.4,0,6.2,2.8,6.2,6.2l0,0
						C792.3,1096.1,789.5,1098.9,786.1,1098.9z"/>
					<circle class="st11" cx="769.5" cy="963.8" r="56.2"/>
				</g>
				<path class="st12" d="M1036,1043.3H921.8c-1.5,0-2.7-1.2-2.7-2.7l0,0c0-1.5,1.2-2.7,2.7-2.7H1036c1.5,0,2.7,1.2,2.7,2.7l0,0
					C1038.7,1042.1,1037.5,1043.3,1036,1043.3z"/>
				<path class="st12" d="M1008,1054.4h-58.1c-1.5,0-2.7-1.2-2.7-2.7l0,0c0-1.5,1.2-2.7,2.7-2.7h58.1c1.5,0,2.7,1.2,2.7,2.7l0,0
					C1010.7,1053.1,1009.5,1054.4,1008,1054.4z"/>
				<polygon class="st13" points="946.1,1064.4 947.6,1069 952.5,1069 948.5,1071.8 950,1076.5 946.1,1073.6 942.2,1076.5 
					943.7,1071.8 939.7,1069 944.6,1069 				"/>
				<polygon class="st13" points="962.5,1064.4 964,1069 968.9,1069 964.9,1071.8 966.4,1076.5 962.5,1073.6 958.6,1076.5 
					960.1,1071.8 956.2,1069 961.1,1069 				"/>
				<polygon class="st13" points="978.9,1064.4 980.4,1069 985.2,1069 981.4,1071.8 982.8,1076.5 978.9,1073.6 975.1,1076.5 
					976.5,1071.8 972.6,1069 977.4,1069 				"/>
				<polygon class="st13" points="995.4,1064.4 996.8,1069 1001.7,1069 997.7,1071.8 999.2,1076.5 995.4,1073.6 991.4,1076.5 
					992.9,1071.8 988.9,1069 993.8,1069 				"/>
				<polygon class="st14" points="1011.7,1064.4 1013.2,1069 1018,1069 1014.1,1071.8 1015.7,1076.5 1011.7,1073.6 1007.8,1076.5 
					1009.3,1071.8 1005.4,1069 1010.2,1069 				"/>
				<path class="st15" d="M995.5,1098.9h-33.2c-3.4,0-6.2-2.8-6.2-6.2l0,0c0-3.4,2.8-6.2,6.2-6.2h33.2c3.4,0,6.2,2.8,6.2,6.2l0,0
					C1001.7,1096.1,998.9,1098.9,995.5,1098.9z"/>
				<circle class="st11" cx="978.9" cy="963.8" r="56.2"/>
				<path class="st0" d="M1272.2,1119h-165.5c-2.8,0-5.2-2.4-5.2-5.2V892.3c0-2.8,2.4-5.2,5.2-5.2h165.5c2.8,0,5.2,2.4,5.2,5.2
					v221.5C1277.4,1116.6,1275.1,1119,1272.2,1119z"/>
				<path class="st12" d="M1246.6,1043.1h-114.2c-1.5,0-2.7-1.2-2.7-2.7l0,0c0-1.5,1.2-2.7,2.7-2.7h114.2c1.5,0,2.7,1.2,2.7,2.7l0,0
					C1249.3,1041.8,1248,1043.1,1246.6,1043.1z"/>
				<path class="st12" d="M1218.5,1054.1h-58.1c-1.5,0-2.7-1.2-2.7-2.7l0,0c0-1.5,1.2-2.7,2.7-2.7h58.1c1.5,0,2.7,1.2,2.7,2.7l0,0
					C1221.2,1052.9,1220.1,1054.1,1218.5,1054.1z"/>
				<polygon class="st13" points="1156.7,1064.2 1158.1,1068.8 1163,1068.8 1159,1071.6 1160.6,1076.2 1156.7,1073.4 1152.7,1076.2 
					1154.3,1071.6 1150.3,1068.8 1155.2,1068.8 				"/>
				<polygon class="st13" points="1173,1064.2 1174.6,1068.8 1179.4,1068.8 1175.5,1071.6 1177,1076.2 1173,1073.4 1169.2,1076.2 
					1170.7,1071.6 1166.7,1068.8 1171.6,1068.8 				"/>
				<polygon class="st13" points="1189.5,1064.2 1191,1068.8 1195.8,1068.8 1191.9,1071.6 1193.3,1076.2 1189.5,1073.4 
					1185.5,1076.2 1187,1071.6 1183.2,1068.8 1188,1068.8 				"/>
				<polygon class="st13" points="1205.8,1064.2 1207.3,1068.8 1212.2,1068.8 1208.3,1071.6 1209.8,1076.2 1205.8,1073.4 
					1202,1076.2 1203.5,1071.6 1199.5,1068.8 1204.4,1068.8 				"/>
				<polygon class="st14" points="1222.3,1064.2 1223.8,1068.8 1228.6,1068.8 1224.7,1071.6 1226.1,1076.2 1222.3,1073.4 
					1218.4,1076.2 1219.8,1071.6 1215.9,1068.8 1220.7,1068.8 				"/>
				<path class="st15" d="M1206.1,1098.7h-33.2c-3.4,0-6.2-2.8-6.2-6.2l0,0c0-3.4,2.8-6.2,6.2-6.2h33.2c3.4,0,6.2,2.8,6.2,6.2l0,0
					C1212.2,1095.9,1209.5,1098.7,1206.1,1098.7z"/>
				
					<ellipse transform="matrix(0.1602 -0.9871 0.9871 0.1602 47.8413 1983.3389)" class="st11" cx="1189.5" cy="963.6" rx="56.2" ry="56.2"/>
			</g>
			<g>
				<path class="st0" d="M1061.1,612.4H895.6c-2.8,0-5.2-2.4-5.2-5.2V385.7c0-2.8,2.4-5.2,5.2-5.2h165.5c2.8,0,5.2,2.4,5.2,5.2
					v221.5C1066.3,610.2,1063.9,612.4,1061.1,612.4z"/>
				<g>
					<path class="st0" d="M642.4,612.4H476.9c-2.8,0-5.2-2.4-5.2-5.2V385.7c0-2.8,2.4-5.2,5.2-5.2h165.5c2.8,0,5.2,2.4,5.2,5.2
						v221.5C647.6,610.2,645.2,612.4,642.4,612.4z"/>
					<path class="st7" d="M616.8,536.5H502.5c-1.5,0-2.7-1.2-2.7-2.7l0,0c0-1.5,1.2-2.7,2.7-2.7h114.2c1.5,0,2.7,1.2,2.7,2.7l0,0
						C619.5,535.3,618.3,536.5,616.8,536.5z"/>
					<path class="st7" d="M588.7,547.5h-58.1c-1.5,0-2.7-1.2-2.7-2.7l0,0c0-1.5,1.2-2.7,2.7-2.7h58.1c1.5,0,2.7,1.2,2.7,2.7l0,0
						C591.4,546.4,590.2,547.5,588.7,547.5z"/>
					<polygon class="st8" points="526.9,557.7 528.4,562.3 533.2,562.3 529.3,565.1 530.9,569.8 526.9,566.8 523,569.8 524.4,565.1 
						520.6,562.3 525.4,562.3 					"/>
					<polygon class="st8" points="543.3,557.7 544.8,562.3 549.6,562.3 545.7,565.1 547.2,569.8 543.3,566.8 539.4,569.8 
						540.9,565.1 536.9,562.3 541.8,562.3 					"/>
					<polygon class="st8" points="559.7,557.7 561.2,562.3 566,562.3 562.1,565.1 563.6,569.8 559.7,566.8 555.8,569.8 557.2,565.1 
						553.4,562.3 558.1,562.3 					"/>
					<polygon class="st9" points="576.1,557.7 577.5,562.3 582.4,562.3 578.6,565.1 580,569.8 576.1,566.8 572.1,569.8 573.7,565.1 
						569.8,562.3 574.6,562.3 					"/>
					<polygon class="st9" points="592.4,557.7 594,562.3 598.9,562.3 594.9,565.1 596.4,569.8 592.4,566.8 588.6,569.8 590.1,565.1 
						586.1,562.3 591,562.3 					"/>
					<path class="st10" d="M576.3,592.1h-33.2c-3.4,0-6.2-2.8-6.2-6.2l0,0c0-3.4,2.8-6.2,6.2-6.2h33.2c3.4,0,6.2,2.8,6.2,6.2l0,0
						C582.4,589.4,579.7,592.1,576.3,592.1z"/>
					<circle class="st11" cx="559.7" cy="457" r="56.2"/>
				</g>
				<g>
					<path class="st0" d="M851.8,612.4H686.3c-2.8,0-5.2-2.4-5.2-5.2V385.7c0-2.8,2.4-5.2,5.2-5.2h165.5c2.8,0,5.2,2.4,5.2,5.2
						v221.5C857,610.2,854.6,612.4,851.8,612.4z"/>
					<path class="st7" d="M826.2,536.5H711.9c-1.5,0-2.7-1.2-2.7-2.7l0,0c0-1.5,1.2-2.7,2.7-2.7H826c1.5,0,2.7,1.2,2.7,2.7l0,0
						C828.9,535.3,827.6,536.5,826.2,536.5z"/>
					<path class="st7" d="M798.1,547.5H740c-1.5,0-2.7-1.2-2.7-2.7l0,0c0-1.5,1.2-2.7,2.7-2.7h58.1c1.5,0,2.7,1.2,2.7,2.7l0,0
						C800.8,546.4,799.5,547.5,798.1,547.5z"/>
					<polygon class="st8" points="736.3,557.7 737.7,562.3 742.6,562.3 738.6,565.1 740.2,569.8 736.3,566.8 732.3,569.8 
						733.8,565.1 729.9,562.3 734.8,562.3 					"/>
					<polygon class="st8" points="752.6,557.7 754.1,562.3 758.9,562.3 755.1,565.1 756.6,569.8 752.6,566.8 748.8,569.8 
						750.2,565.1 746.3,562.3 751.1,562.3 					"/>
					<polygon class="st9" points="769.1,557.7 770.6,562.3 775.4,562.3 771.5,565.1 772.9,569.8 769.1,566.8 765.1,569.8 
						766.6,565.1 762.7,562.3 767.5,562.3 					"/>
					<polygon class="st9" points="785.4,557.7 786.9,562.3 791.8,562.3 787.8,565.1 789.4,569.8 785.4,566.8 781.5,569.8 
						783.1,565.1 779.1,562.3 784,562.3 					"/>
					<polygon class="st9" points="801.8,557.7 803.4,562.3 808.2,562.3 804.3,565.1 805.7,569.8 801.8,566.8 798,569.8 799.4,565.1 
						795.5,562.3 800.3,562.3 					"/>
					<path class="st10" d="M785.7,592.1h-33.2c-3.4,0-6.2-2.8-6.2-6.2l0,0c0-3.4,2.8-6.2,6.2-6.2h33.2c3.4,0,6.2,2.8,6.2,6.2l0,0
						C791.8,589.4,789,592.1,785.7,592.1z"/>
					<circle class="st11" cx="769.1" cy="457" r="56.2"/>
				</g>
				<path class="st12" d="M1035.5,536.5H921.3c-1.5,0-2.7-1.2-2.7-2.7l0,0c0-1.5,1.2-2.7,2.7-2.7h114.2c1.5,0,2.7,1.2,2.7,2.7l0,0
					C1038.2,535.3,1037,536.5,1035.5,536.5z"/>
				<path class="st12" d="M1007.4,547.5h-58.1c-1.5,0-2.7-1.2-2.7-2.7l0,0c0-1.5,1.2-2.7,2.7-2.7h58.1c1.5,0,2.7,1.2,2.7,2.7l0,0
					C1010.1,546.4,1008.9,547.5,1007.4,547.5z"/>
				<polygon class="st13" points="945.6,557.7 947.1,562.3 951.9,562.3 948,565.1 949.5,569.8 945.6,566.8 941.7,569.8 943.1,565.1 
					939.3,562.3 944.1,562.3 				"/>
				<polygon class="st13" points="962,557.7 963.4,562.3 968.3,562.3 964.5,565.1 965.9,569.8 962,566.8 958,569.8 959.6,565.1 
					955.7,562.3 960.5,562.3 				"/>
				<polygon class="st13" points="978.4,557.7 979.9,562.3 984.8,562.3 980.8,565.1 982.3,569.8 978.4,566.8 974.5,569.8 976,565.1 
					972,562.3 976.9,562.3 				"/>
				<polygon class="st13" points="994.8,557.7 996.3,562.3 1001.1,562.3 997.2,565.1 998.7,569.8 994.8,566.8 990.8,569.8 
					992.4,565.1 988.5,562.3 993.3,562.3 				"/>
				<polygon class="st14" points="1011.2,557.7 1012.7,562.3 1017.5,562.3 1013.6,565.1 1015.1,569.8 1011.2,566.8 1007.3,569.8 
					1008.8,565.1 1004.8,562.3 1009.7,562.3 				"/>
				<path class="st15" d="M995,592.1h-33.2c-3.4,0-6.2-2.8-6.2-6.2l0,0c0-3.4,2.8-6.2,6.2-6.2H995c3.4,0,6.2,2.8,6.2,6.2l0,0
					C1001.1,589.4,998.4,592.1,995,592.1z"/>
				<circle class="st11" cx="978.4" cy="457" r="56.2"/>
				<path class="st0" d="M1271.7,612.2h-165.5c-2.8,0-5.2-2.4-5.2-5.2V385.5c0-2.8,2.4-5.2,5.2-5.2h165.5c2.8,0,5.2,2.4,5.2,5.2V607
					C1276.8,609.9,1274.5,612.2,1271.7,612.2z"/>
				<path class="st12" d="M1246,536.3h-114.2c-1.5,0-2.7-1.2-2.7-2.7l0,0c0-1.5,1.2-2.7,2.7-2.7H1246c1.5,0,2.7,1.2,2.7,2.7l0,0
					C1248.7,535,1247.6,536.3,1246,536.3z"/>
				<path class="st12" d="M1218,547.3h-58.1c-1.5,0-2.7-1.2-2.7-2.7l0,0c0-1.5,1.2-2.7,2.7-2.7h58.1c1.5,0,2.7,1.2,2.7,2.7l0,0
					C1220.7,546.2,1219.5,547.3,1218,547.3z"/>
				<polygon class="st13" points="1156.1,557.5 1157.7,562.1 1162.5,562.1 1158.6,564.9 1160,569.5 1156.1,566.6 1152.3,569.5 
					1153.7,564.9 1149.8,562.1 1154.6,562.1 				"/>
				<polygon class="st13" points="1172.6,557.5 1174,562.1 1178.9,562.1 1174.9,564.9 1176.4,569.5 1172.6,566.6 1168.6,569.5 
					1170.1,564.9 1166.3,562.1 1171.1,562.1 				"/>
				<polygon class="st13" points="1188.9,557.5 1190.4,562.1 1195.2,562.1 1191.4,564.9 1192.9,569.5 1188.9,566.6 1185,569.5 
					1186.6,564.9 1182.6,562.1 1187.5,562.1 				"/>
				<polygon class="st13" points="1205.4,557.5 1206.9,562.1 1211.7,562.1 1207.8,564.9 1209.2,569.5 1205.4,566.6 1201.4,569.5 
					1202.9,564.9 1199,562.1 1203.8,562.1 				"/>
				<polygon class="st14" points="1221.7,557.5 1223.2,562.1 1228.1,562.1 1224.1,564.9 1225.7,569.5 1221.7,566.6 1217.8,569.5 
					1219.4,564.9 1215.4,562.1 1220.3,562.1 				"/>
				<path class="st15" d="M1205.5,591.9h-33.2c-3.4,0-6.2-2.8-6.2-6.2l0,0c0-3.4,2.8-6.2,6.2-6.2h33.2c3.4,0,6.2,2.8,6.2,6.2l0,0
					C1211.7,589.2,1208.9,591.9,1205.5,591.9z"/>
				
					<ellipse transform="matrix(0.1602 -0.9871 0.9871 0.1602 547.6325 1557.1549)" class="st11" cx="1188.9" cy="456.7" rx="56.2" ry="56.2"/>
			</g>
		</g>
	</g>
</g>
<g>
	<ellipse transform="matrix(0.7071 -0.7071 0.7071 0.7071 129.3318 860.2535)" class="st8" cx="1103.1" cy="274" rx="70" ry="70"/>
	<g>
		<path class="st0" d="M1106.1,238.5v3c7.2,0.2,14.2,2.9,14.2,5.8c0,2-2.4,6.8-4.2,6.8c-1.2,0-4.2-2.5-10.2-2.7v16.2
			c7.7,3.2,17,6.8,17,18.6c0,12.2-7.7,18-17,19.1v4.2c0,1.6-0.7,2.3-2.1,2.3c-1.7,0-2.4-0.7-2.4-2.3v-4.1
			c-11.6-0.3-18.6-4.6-18.6-7.3c0-2.4,3.2-6.9,4.6-6.9c1.5,0,6.3,4.4,14,4.5v-17.9c-7.9-2.9-17.4-6.3-17.4-18.7
			c0-10.7,7.8-16.4,17.4-17.4v-3.2c0-1.6,0.7-2.3,2.3-2.3C1105.5,236.2,1106.1,236.9,1106.1,238.5z M1095.5,258.4
			c0,3.5,2.5,5.5,6,7.2v-13.9C1097.3,252.7,1095.5,255.3,1095.5,258.4z M1106.1,294.9c3.3-1,5.8-3.6,5.8-7.6c0-3.7-2.4-6-5.8-7.6
			V294.9z"/>
	</g>
</g>
<circle class="st16" cx="221.9" cy="813.9" r="81.7"/>
<path class="st0" d="M267.6,846.1h-63.2c-4.6,0-8.6-3.6-8.8-8.1c-0.1-2.4,0.7-4.6,2.4-6.3c1.6-1.7,3.8-2.6,6.2-2.6h2.9h44.1
	c1.6,0,2.9-1,3.4-2.5l13.6-40.4c0.6-1.7,0.3-3.5-0.8-5c-1-1.5-2.7-2.3-4.4-2.3h-71l-0.3-1.2c-1.1-3.7-4.5-6.2-8.3-6.2h-11.5
	c-1.2,0-2.1,1-2.1,2.1s1,2.1,2.1,2.1h11.5c1.9,0,3.7,1.4,4.3,3.2l13.8,46c-2.5,0.6-4.7,1.8-6.4,3.7c-2.5,2.6-3.7,6-3.5,9.5
	c0.3,6.3,5.2,11.3,11.5,12.1c-0.5,0.9-0.8,2-0.8,3.2c0,4.1,3.3,7.3,7.3,7.3s7.3-3.3,7.3-7.3c0-1.1-0.2-2.1-0.7-3h32.5
	c-0.5,0.9-0.7,1.9-0.7,3c0,4.1,3.3,7.3,7.3,7.3c4.1,0,7.3-3.3,7.3-7.3c0-1.1-0.2-2.1-0.7-3h5.8c1.2,0,2.1-1,2.1-2.1
	C269.9,847.1,268.8,846.1,267.6,846.1z M239.6,798.5v10.9h-22.3v-10.9H239.6z M217.2,794.2v-10.9h22.3v10.9H217.2z M255.7,809.5
	h-11.8v-10.9h15.6L255.7,809.5z M239.6,813.9v10.9h-22.3v-10.9H239.6z M212.9,809.5h-11.7l-3.3-10.9h15V809.5z M205.8,824.8
	l-3.3-10.9h10.4v10.9H205.8z M250.5,824.8h-6.7v-10.9h10.4L250.5,824.8z M264,783.8c0.1,0.2,0.3,0.6,0.1,1l-3.2,9.5h-17v-10.9h19.2
	C263.5,783.3,263.9,783.6,264,783.8z M212.9,783.3v10.9h-16.2l-3.3-10.9H212.9z M212.4,853.5c0,1.7-1.4,3-3,3c-1.7,0-3-1.4-3-3
	s1.4-3,3-3C211.1,850.4,212.4,851.8,212.4,853.5z M258.2,853.5c0,1.7-1.4,3-3,3c-1.7,0-3-1.4-3-3s1.4-3,3-3
	C256.9,850.4,258.2,851.8,258.2,853.5z"/>
<g>
	<path class="st17" d="M1537.7,937.5h-267.2c-3.5,0-6.3-2.8-6.3-6.3V664c0-3.5,2.8-6.3,6.3-6.3h267.2c3.5,0,6.3,2.8,6.3,6.3v267.2
		C1543.9,934.7,1541.1,937.5,1537.7,937.5z"/>
</g>
<g>
	<path class="st11" d="M954.4,360H711.2c-3.5,0-6.3-2.8-6.3-6.3V110.6c0-3.5,2.8-6.3,6.3-6.3h243.1c3.5,0,6.3,2.8,6.3,6.3v243.1
		C960.6,357.1,957.8,360,954.4,360z"/>
</g>
<g>
	<path class="st18" d="M1446.1,497.7H1263c-3.5,0-6.3-2.8-6.3-6.3V308.3c0-3.5,2.8-6.3,6.3-6.3h183.2c3.5,0,6.3,2.8,6.3,6.3v183.2
		C1452.4,494.9,1449.6,497.7,1446.1,497.7z"/>
</g>
<circle class="st19" cx="298.3" cy="169.1" r="59.1"/>
<g>
	<g>
		<path class="st0" d="M298.3,201.3c-5.8,0-10.5-4.7-10.5-10.5s4.7-10.5,10.5-10.5s10.5,4.7,10.5,10.5S304,201.3,298.3,201.3z
			 M298.3,185.3c-3,0-5.4,2.5-5.4,5.4c0,2.9,2.5,5.4,5.4,5.4c2.9,0,5.4-2.5,5.4-5.4C303.7,187.8,301.3,185.3,298.3,185.3z"/>
	</g>
	<g>
		<path class="st0" d="M315.1,178.4c-0.7,0-1.4-0.3-1.9-0.8c-0.2-0.3-0.6-0.6-0.8-0.8c-3.7-3.7-8.8-5.9-14.1-5.9
			c-5.6,0-11.1,2.5-14.9,6.7c-0.9,1-2.5,1.1-3.5,0.2s-1.1-2.5-0.2-3.5c4.7-5.3,11.5-8.3,18.6-8.3c6.7,0,13,2.6,17.6,7.3
			c0.3,0.3,0.7,0.7,1,1c0.9,1,0.8,2.6-0.2,3.5C316.2,178.1,315.6,178.4,315.1,178.4z"/>
	</g>
	<g>
		<path class="st0" d="M270.7,168.8c-0.6,0-1.2-0.2-1.7-0.7c-1-0.9-1.1-2.5-0.2-3.5c7.4-8.3,18.2-13.2,29.4-13.2s22,4.9,29.4,13.2
			c0.9,1,0.8,2.6-0.2,3.5c-1,0.9-2.6,0.8-3.5-0.2c-6.5-7.3-15.9-11.5-25.7-11.5c-9.8,0-19.2,4.2-25.7,11.5
			C272.1,168.4,271.4,168.8,270.7,168.8z"/>
	</g>
	<g>
		<path class="st0" d="M336.6,159.2c-0.7,0-1.4-0.3-1.9-0.8c-9.2-10.4-22.6-16.4-36.5-16.4s-27.2,6-36.5,16.4
			c-0.9,1-2.5,1.1-3.5,0.2c-1-0.9-1.1-2.5-0.2-3.5c10.3-11.5,24.9-18,40.3-18s30,6.5,40.3,18c0.9,1,0.8,2.6-0.2,3.5
			C337.9,159,337.2,159.2,336.6,159.2z"/>
	</g>
</g>
<g>
	<path class="st8" d="M848.7,304h-85.3c-9,0-16.4-7.3-16.4-16.4l0,0c0-3.4,2.7-6.1,6.1-6.1h106c3.4,0,6.1,2.7,6.1,6.1l0,0
		C865.2,296.7,857.9,304,848.7,304z"/>
	<path class="st0" d="M786.1,292.7h40c6.2,0,11.3-5.1,11.3-11.3h-62.5C774.8,287.8,779.9,292.7,786.1,292.7z"/>
	<path class="st7" d="M854.5,281.6c6.8-9.6,10.7-21.2,10.7-33.8c0-32.6-26.4-59.1-59.1-59.1c-32.6,0-59.1,26.4-59.1,59.1
		c0,12.6,3.9,24.3,10.7,33.8H854.5z"/>
	<path class="st20" d="M775.7,281.6h60.6c9.2-8.3,15.1-20.4,15.1-33.8c0-25.2-20.3-45.5-45.5-45.5c-25.2,0-45.5,20.3-45.5,45.5
		C760.6,261.2,766.5,273.2,775.7,281.6z"/>
	<path class="st21" d="M923.6,247.3h-41.5c-0.3,0-0.7,0.3-0.7,0.7v53.2c0,1.6,1.2,2.8,2.8,2.8h37.3c1.6,0,2.8-1.2,2.8-2.8V248
		C924.3,247.6,924.1,247.3,923.6,247.3z"/>
	<path class="st22" d="M917,195.7h-28.3c-0.3,0-0.7,0.3-0.7,0.7v50.9h29.7v-50.9C917.6,196,917.4,195.7,917,195.7z"/>
	<path class="st13" d="M912.9,163c0-2.3-2.7-3.5-4.4-2l-15.6,13.5l0,0v21.2h20V163z"/>
	<path class="st22" d="M851.5,247.3c-0.1-11.5-4.4-21.9-11.5-29.9L851.5,247.3z"/>
</g>
<g>
	<path class="st13" d="M1359.5,735.9h14.7c1.1,0,2-0.9,2-2s-0.9-2-2-2h-14.7c-1.1,0-2,0.9-2,2S1358.3,735.9,1359.5,735.9z"/>
	<path class="st13" d="M1373.5,740.3l-13.6,5.3c-1,0.5-1.6,1.6-1.1,2.6c0.3,0.8,1.1,1.2,1.9,1.2c0.2,0,0.5,0,0.7-0.1l13.6-5.3
		c1-0.5,1.6-1.6,1.1-2.6C1375.6,740.4,1374.5,739.9,1373.5,740.3z"/>
	<path class="st13" d="M1359.7,722.2l13.6,5.3c0.2,0.1,0.5,0.1,0.7,0.1c0.8,0,1.6-0.5,1.9-1.2c0.5-1-0.1-2.3-1.1-2.6l-13.6-5.3
		c-1-0.5-2.3,0.1-2.6,1.1C1358.2,720.6,1358.7,721.7,1359.7,722.2z"/>
</g>
<path class="st16" d="M1411.6,745.2h-28.1V712c0-0.6,0.5-1,1-1h26.1c0.6,0,1,0.5,1,1V745.2z"/>
<path class="st23" d="M1442.4,848.5h-89.7c-3.6,0-6.5-2.9-6.5-6.5v-76.6c0-1.7,1.4-3.2,3.2-3.2h96.7c1.7,0,3.2,1.4,3.2,3.2V842
	C1448.9,845.6,1446,848.5,1442.4,848.5z"/>
<rect x="1396.5" y="750.7" class="st10" width="70" height="5.9"/>
<path class="st0" d="M1418.2,762.2H1377c-4.6,0-8.5-3.8-8.5-8.5l0,0c0-4.6,3.8-8.5,8.5-8.5h41.3c4.6,0,8.5,3.8,8.5,8.5l0,0
	C1426.7,758.4,1422.9,762.2,1418.2,762.2z"/>
<path class="st10" d="M1402.7,728.1c0,2.8-2.4,5.2-5.2,5.2c-2.8,0-5.2-2.4-5.2-5.2s2.4-5.2,5.2-5.2
	C1400.4,723,1402.7,725.3,1402.7,728.1z"/>
<path class="st24" d="M1504.3,753.6c0,9.4-11.8,16.9-26.4,16.9s-26.4-7.6-26.4-16.9c0-9.4,11.8-16.9,26.4-16.9
	S1504.3,744.3,1504.3,753.6z"/>
<path class="st25" d="M1448.9,858.5v-49c-3,1-6,2.5-8.7,4.4c-9.2,6.8-15.6,18.3-26.7,21c-8.8,2.1-17.8-2.3-25.3-7.3
	c-7.4-5.1-14.4-11.3-23.1-13.8c-6.2-1.8-13-1.4-19.1,0.9v43.8c0,14.1,11.4,25.5,25.5,25.5h51.8
	C1437.5,884.1,1448.9,872.6,1448.9,858.5z"/>
<g>
	<path class="st10" d="M1368.4,730.2h-14.7c-1.1,0-2-0.9-2-2s0.9-2,2-2h14.7c1.1,0,2,0.9,2,2
		C1370.4,729.3,1369.5,730.2,1368.4,730.2z"/>
</g>
<g>
	<path class="st10" d="M1354.7,743.8c-0.8,0-1.6-0.5-1.9-1.2c-0.5-1,0.1-2.3,1.1-2.6l13.6-5.3c1-0.5,2.3,0.1,2.6,1.1
		c0.5,1-0.1,2.3-1.1,2.6l-13.5,5.2C1355.2,743.7,1355,743.8,1354.7,743.8z"/>
</g>
<g>
	<path class="st10" d="M1368.4,721.8c-0.2,0-0.5,0-0.7-0.1l-13.6-5.3c-1-0.5-1.6-1.6-1.1-2.6c0.5-1,1.6-1.6,2.6-1.1l13.6,5.3
		c1,0.5,1.6,1.6,1.1,2.6C1370,721.4,1369.2,721.8,1368.4,721.8z"/>
</g>
<path class="st15" d="M1400.3,723.7l2.1,5.6c0.1-0.5,0.2-0.9,0.2-1.4C1402.7,726.3,1401.8,724.6,1400.3,723.7z"/>
<g>
	<g>
		<path class="st20" d="M1386.5,465.5h-61.9c-16.1,0-28.7-14.3-26.4-30.3l7.1-51.8c1.1-8.5,8.5-14.8,17-14.8h66.4
			c8.6,0,15.8,6.3,17,14.8l7.1,51.8C1415.2,451.3,1402.7,465.5,1386.5,465.5z"/>
		<path class="st8" d="M1305.6,382.7h100.2c-1.5-8.1-8.6-14-16.8-14h-66.4C1314,368.8,1307,374.7,1305.6,382.7z"/>
		<path class="st10" d="M1337.1,389.5h-6.7l-0.7,5.9c-0.2,2.4,1.6,4.5,3.9,4.5l0,0c2.4,0,4.3-2,3.9-4.5L1337.1,389.5z"/>
		<path class="st15" d="M1374,389.5h6.7l0.7,5.9c0.2,2.4-1.6,4.5-3.9,4.5l0,0c-2.4,0-4.3-2-3.9-4.5L1374,389.5z"/>
		<path class="st8" d="M1299.1,446.7c3.3,10.8,13.3,19,25.5,19h61.9c12.2,0,22.2-8.1,25.5-19H1299.1z"/>
		<g>
			<path class="st0" d="M1380.7,389.5v-30.3c0-13.9-11.3-25.2-25.2-25.2s-25.2,11.3-25.2,25.2v30.3h6.7v-30.3
				c0-10.2,8.2-18.5,18.5-18.5c10.2,0,18.5,8.2,18.5,18.5v30.3H1380.7z"/>
		</g>
		<path class="st24" d="M1355.6,334.1c-7.4,0-14.2,3.3-18.8,8.6l2.8,7.3c3.2-5.5,9.1-9.2,15.9-9.2c10.2,0,18.5,8.2,18.5,18.5v30.3
			h6.7v-30.3C1380.7,345.3,1369.4,334.1,1355.6,334.1z"/>
	</g>
</g>
<g>
	<path class="st26" d="M53.1,342H287c14.4,0,26.3,15,26.3,33.4V529c0,18.4-11.8,33.4-26.3,33.4H53.1c-14.6-0.1-26.4-15.1-26.4-33.5
		V375.3C26.7,357,38.6,342,53.1,342"/>
	<rect x="26.7" y="436.7" class="st27" width="288" height="7.8"/>
	<rect x="26.7" y="455.1" class="st27" width="286.5" height="28.9"/>
	<rect x="66.2" y="527.5" class="st27" width="49.5" height="14.9"/>
	<rect x="136.4" y="527.5" class="st27" width="20.5" height="14.9"/>
	<path class="st27" d="M45.6,395.5h52.7c2.6,0,4.7,2.7,4.7,6.1v16.2c0,3.3-2.1,6.1-4.7,6.1H45.6c-2.6,0-4.7-2.7-4.7-6.1v-16.2
		C40.8,398.2,43,395.5,45.6,395.5"/>
	<path class="st27" d="M130.3,395.5H183c2.6,0,4.7,2.7,4.7,6.1v16.2c0,3.3-2.1,6.1-4.7,6.1h-52.7c-2.6,0-4.7-2.7-4.7-6.1v-16.2
		C125.6,398.2,127.7,395.5,130.3,395.5"/>
	<path class="st0" d="M218.5,506.8c4.3-3.7,10.2-6.1,16.5-6.1c6.4,0,12.3,2.4,16.5,6.1c4.4,3.9,7.2,9.5,7.2,15.7s-2.7,11.7-7.2,15.7
		c-4.3,3.7-10.2,6.1-16.5,6.1c-6.4,0-12.3-2.4-16.5-6.1c-4.4-3.9-7.2-9.5-7.2-15.7S214,510.8,218.5,506.8 M235,505.5
		c-5.6,0-10.7,2-14.3,5.2c-3.5,3-5.5,7.2-5.5,11.7c0,4.5,2.1,8.7,5.5,11.7c3.6,3.3,8.7,5.2,14.3,5.2s10.7-2,14.3-5.2
		c3.5-3,5.5-7.2,5.5-11.7c0-4.5-2.1-8.7-5.5-11.7C245.7,507.5,240.6,505.5,235,505.5z"/>
	<path class="st0" d="M251.7,506.8c4.3-3.7,10.2-6.1,16.5-6.1c6.4,0,12.3,2.4,16.5,6.1c4.4,3.9,7.2,9.5,7.2,15.7s-2.7,11.7-7.2,15.7
		c-4.3,3.7-10.2,6.1-16.5,6.1c-6.4,0-12.3-2.4-16.5-6.1c-4.4-3.9-7.2-9.5-7.2-15.7S247.3,510.8,251.7,506.8 M268.3,505.5
		c-5.6,0-10.7,2-14.3,5.2c-3.5,3-5.5,7.2-5.5,11.7c0,4.5,2.1,8.7,5.5,11.7c3.6,3.3,8.7,5.2,14.3,5.2s10.7-2,14.3-5.2
		c3.5-3,5.5-7.2,5.5-11.7c0-4.5-2.1-8.7-5.5-11.7C279,507.5,273.9,505.5,268.3,505.5z"/>
</g>
</svg>
