<svg version="1.1" id="Layer_1" xmlns="http://www.w3.org/2000/svg" xmlns:xlink="http://www.w3.org/1999/xlink" x="0" y="0" viewBox="0 0 1633 1127.5" xml:space="preserve"><style>.st0{fill:#fff}.st2{fill:#58bc80}.st4{fill:#495ca8}.st6{fill:#15378b}.st7{fill-rule:evenodd;clip-rule:evenodd;fill:#fff}.st8{fill:#ee8c21}.st10{fill-rule:evenodd;clip-rule:evenodd}.st10,.st11{fill:#ef5b72}.st12,.st13{fill-rule:evenodd;clip-rule:evenodd;fill:#e5e6e7}.st13{fill:#d93955}.st15{fill:#a5302f}.st19{fill:#f7aaac}.st20{fill:#0c1570}.st22{fill:#f8bcbf}.st25{fill:#0c1570}.st25,.st29{fill-rule:evenodd;clip-rule:evenodd}.st29,.st30{fill:#cfeafd}.st31{fill:#347ec1}</style><path class="st0" d="M0 0h1633v1127.5H0z"/><defs><path id="SVGID_1_" d="M344.3 821.3H211.7c-71.5 0-129.9 62.5-129.9 138.8s58.4 138.8 129.9 138.8h1162.1c115.7 0 210.4-101.1 210.4-224.7s-94.7-224.7-210.4-224.7c-48.9 0-88.9-42.8-88.9-95s40-95 88.9-95h41.1c50.8 0 92.5-44.5 92.5-98.8 0-54.4-41.6-98.8-92.5-98.8h-184.4c-19.8 0-36-17.3-36-38.4 0-21.2 16.2-38.4 36-38.4h23.9c13.7 0 24.8-12 24.8-26.5 0-14.6-11.1-26.5-24.8-26.5h-89.5-6.6c-33 0-36.6 41.6-120 41.6H589.6c-17.9 0-32.4 15.6-32.4 34.7 0 19 14.6 34.7 32.4 34.7h31.2c25.8 0 47 22.6 47 50.2s-21.2 50.2-47 50.2H574c-126.5 0-144.3 35.3-166.5 105.6-22.1 70.3-13.1 76-13.1 76h-71.2c-38.9 0-70.7 34-70.7 75.7 0 41.6 31.9 75.7 70.7 75.7h21.2c37.5 0 68.1 32.7 68.1 72.8 0 39.7-30.7 72-68.2 72zm979.8-636.4c-13.7 0-24.8-11.9-24.8-26.5 0-14.7 11.1-26.5 24.8-26.5 13.7 0 24.8 11.9 24.8 26.5s-11.1 26.5-24.8 26.5z"/></defs><clipPath id="SVGID_2_"><use xlink:href="#SVGID_1_" overflow="visible"/></clipPath><linearGradient id="SVGID_3_" gradientUnits="userSpaceOnUse" x1="832.92" y1="-1261.508" x2="832.92" y2="1183.709" gradientTransform="matrix(1 0 0 -1 0 1125.89)"><stop offset=".205" stop-color="#1e9df8"/><stop offset=".301" stop-color="#41acf9"/><stop offset=".484" stop-color="#7dc7fb"/><stop offset=".652" stop-color="#addbfd"/><stop offset=".799" stop-color="#cfeafe"/><stop offset=".92" stop-color="#e4f4ff"/><stop offset="1" stop-color="#ecf7ff"/></linearGradient><path clip-path="url(#SVGID_2_)" fill="url(#SVGID_3_)" d="M81.8 131.8h1502.3v967.1H81.8z"/><path class="st2" d="M633.4 1091.2s35.2-76.2-6.5-128.3c-41.7-52.1-65.2-22.7-65.2-22.7-70.9-153.3-243.5-72.5-220.9 31.6 0 0-25.4-9-40.2 10.4-14.9 19.4 0 40.2 0 40.2s-102.8 7.8-102.8 68.7h435.6v.1z"/><path d="M1371 1090.6s-40.9-18.6-34.8-47.4c6.1-28.8 39.3-25.8 34.8-48.5-4.5-22.8-26.3-58.1-5.1-83.9 21.2-25.8 56.5-10.3 61-50.3 3.5-32.2 18.4-55 47.3-48.4 26.6 6.2 46.5 26.9 47.1 76 .5 52.3 37.3 37.7 37.9 76.2.4 38.8-30.5 38.8-42.6 64.8-5.7 12.3 9.2 55.5-34.8 61.4H1371z" fill="#00a551"/><path class="st4" d="M1469.7 833s.1.9.2 2.6c.4 5.1 1.4 17.7 1.4 35.2 0 51.1-8 144.7-59.1 219.4-.7 1.1-.4 2.5.5 3.1 1.1.7 2.4.4 3.1-.5 51.8-76 59.8-170.2 59.8-221.8 0-23.5-1.7-38.2-1.7-38.3-.1-1.2-1.3-2.1-2.5-1.9-1-.1-1.8 1-1.7 2.2"/><path class="st2" d="M1420.2 1090.6s-6.4-35.5 17.7-50c24.1-14.4 48.8-25.7 46.1-49s3.9-50.8 42.6-51.4c23.9-.3 14.9-25.5 39.2-30.5 14.8-3.1 24.5 12.3 26.3 27.5 2.1 17.2-7.6 34.1 3.5 48.2 14.6 18.2 20.4 52.1-10.8 61.7-41.4 12.8 12.8 46.7-105.5 54.9l-59.1-11.4z"/><path class="st4" d="M1564.2 926.4c-.9 22.7-10.8 54.9-28 85.6-17.1 30.8-41.5 60.1-70.5 77.4-1.1.6-1.4 2-.7 3.1.6 1.1 2 1.4 3.1.7 30-17.9 54.7-47.8 72.1-79.1 17.4-31.2 27.7-63.9 28.6-87.6 0-1.2-1-2.2-2.1-2.4-1.4.2-2.5 1.1-2.5 2.3"/><defs><path id="SVGID_4_" d="M538.8 157.3h467v880.4h-467z"/></defs><clipPath id="SVGID_5_"><use xlink:href="#SVGID_4_" overflow="visible"/></clipPath><linearGradient id="SVGID_6_" gradientUnits="userSpaceOnUse" x1="772.237" y1="89.357" x2="772.259" y2="870.481" gradientTransform="matrix(1 0 0 -1 0 1125.89)"><stop offset="0" stop-color="#1e9df8"/><stop offset="1" stop-color="#a5dcff"/></linearGradient><path clip-path="url(#SVGID_5_)" fill="url(#SVGID_6_)" d="M538.8 157.3h467v880.4h-467z"/><path class="st6" d="M989.9 104.1H557.7c-21.7 0-39.3 17.5-39.3 39.3v908.1c0 21.7 17.7 39.3 39.3 39.3h432.2c21.7 0 39.3-17.7 39.3-39.3V143.4c0-21.8-17.6-39.3-39.3-39.3m11 894.8c0 11.2-9.1 20.3-20.3 20.3H566.9c-11.2 0-20.3-9.1-20.3-20.3V196.1c0-11.2 9.1-20.3 20.3-20.3h413.6c11.2 0 20.3 9.1 20.3 20.3v802.7h.1z"/><path class="st6" d="M989.9 1090.9H557.7c-21.7 0-39.3-17.7-39.3-39.3V143.4c0-9.5 3.4-18.2 9-25l30.6 59.5c-6.7 3.3-11.3 10.3-11.3 18.2V999c0 11.2 9.1 20.3 20.3 20.3h413.6c3 0 5.9-.6 8.5-1.8l30.7 59.7c-7.3 8.2-18 13.7-29.9 13.7"/><path class="st0" d="M740.6 148.1c-4.5 0-8.1-3.6-8.1-8.1s3.6-8.1 8.1-8.1 8.1 3.6 8.1 8.1c0 4.4-3.6 8.1-8.1 8.1M843.5 139.9c0-4.4-4.4-8-9.8-8h-65.1c-5.5 0-10 3.5-10 8 0 4.4 4.4 7.9 10 7.9h65.1c5.3.1 9.8-3.5 9.8-7.9"/><path class="st7" d="M619.7 369.4H715c23.5 0 42.7 19.3 42.7 42.7v95.3c0 23.5-19.3 42.7-42.7 42.7h-95.3c-23.5 0-42.7-19.3-42.7-42.7v-95.3c0-23.5 19.2-42.7 42.7-42.7M619.7 584.5H715c23.5 0 42.7 19.3 42.7 42.7v95.3c0 23.5-19.3 42.7-42.7 42.7h-95.3c-23.5 0-42.7-19.3-42.7-42.7v-95.3c0-23.5 19.2-42.7 42.7-42.7"/><path class="st8" d="M667.4 513.7h-41.6l3.2-67.9-14.2 17-18.8-20.4s24.5-30.2 29-32.6c4.4-2.5 24.5-4.1 24.5-4.1.4 6.4 5.4 16.9 18 16.9s17.5-10.5 18-16.9c0 0 20 1.6 24.5 4.1 4.4 2.5 29 32.6 29 32.6l-18.8 20.2-14.4-17 3.2 67.9h-41.5v.2z"/><path d="M623.3 620.2c-14.2 13.7-12 29-6.8 46.9 5.1 17.9 7.3 52.1 7.3 52.1h12.4s-1.5-37.9 7.3-40.9c8.8-2.9 24.9 29.9 28.1 35 3.2 5.1 10.1 5.8 17.5 5.8h44.1s12.9-10.1-10.6-21.4c-15.2-7.3-17.9-9.2-17.9-9.2s-19.9-.7-40.9-21.5c-8.1-8-18.1-30.2-25.5-38.1-7.9-8.7-15-8.7-15-8.7" fill="#0094d9"/><path class="st10" d="M805.8 607.4H957c12.7 0 23.1 10.4 23.1 23.1 0 12.7-10.4 23.1-23.1 23.1H805.8c-12.7 0-23.1-10.4-23.1-23.1.1-12.7 10.5-23.1 23.1-23.1"/><path class="st0" d="M902.5 622.1c-.1-.2-.1-.3 0-.5.1-.1.2-.2.4-.2h4.1c.2 0 .3.1.4.2.1.1.2.2.3.4l2.9 8.3c0 .2.1.2.2.2s.2-.1.2-.2l2.8-8.3c0-.2.1-.3.3-.4.1-.1.3-.2.5-.2h3.3c.2 0 .3.1.5.2.1.1.2.2.3.4l2.8 8.3c0 .2.1.2.2.2s.2-.1.3-.2l2.9-8.5c.1-.1.2-.3.3-.4.1-.1.3-.2.5-.2h4.1c.2 0 .3.1.4.2.1.1.1.3 0 .4l-6.1 17.1c-.1.2-.2.3-.3.4-.1.1-.3.2-.5.2h-3.2c-.2 0-.3-.1-.5-.2-.1-.1-.2-.2-.3-.4l-2.8-8.3c0-.2-.1-.2-.2-.2s-.2.1-.2.2l-2.8 8.3c0 .2-.1.3-.3.4-.1.1-.3.2-.5.2h-3.2c-.2 0-.3-.1-.5-.2-.1-.1-.2-.2-.3-.4l-6-16.8zm-14.2 8.5c0 .6.1 1.3.3 1.8.2.5.5 1.1 1 1.5s.9.7 1.4 1.1c.5.2 1.2.4 1.7.4s1.2-.1 1.7-.4c.5-.2 1.1-.6 1.5-1.1s.7-1 1-1.5c.2-.5.3-1.2.3-1.8s-.1-1.2-.3-1.8c-.2-.5-.5-1.1-1-1.5s-.9-.7-1.5-1.1c-.5-.2-1.2-.4-1.7-.4s-1.2.1-1.7.4c-.5.2-1.1.6-1.4 1.1-.4.4-.7 1-1 1.5 0 .6-.3 1.1-.3 1.8zm-4.9 0c0-1.3.2-2.6.7-3.6.5-1.2 1.2-2.1 2-3 .9-.9 1.8-1.5 3-2s2.4-.7 3.7-.7c1.3 0 2.6.2 3.6.7 1.2.5 2.1 1.2 3 2 .9.9 1.5 1.8 2 3s.7 2.4.7 3.6-.2 2.6-.7 3.7-1.2 2.1-2 3c-.9.9-1.8 1.5-3 2s-2.4.7-3.6.7-2.6-.2-3.7-.7c-1.2-.5-2.1-1.2-3-2-.9-.9-1.5-1.8-2-3s-.7-2.5-.7-3.7zm-1.9-8.6v17.2c0 .2-.1.3-.2.4-.1.1-.2.2-.4.2h-3.7c-.2 0-.3 0-.5-.1s-.3-.2-.4-.3l-6.5-9.2c-.1-.1-.2-.2-.3-.2-.1 0-.2.1-.2.3v9c0 .2-.1.3-.2.4-.1.1-.2.2-.4.2h-3.6c-.2 0-.3-.1-.4-.2-.1-.1-.2-.2-.2-.4v-17.2c0-.2.1-.3.2-.4.1-.1.2-.2.4-.2h3.7c.2 0 .3 0 .5.1s.3.2.4.3l6.5 9.2c.1.1.2.2.3.2.1 0 .2-.1.2-.3v-9c0-.2.1-.3.2-.4.1-.1.2-.2.4-.2h3.7c.2 0 .3.1.4.2 0 .1.1.2.1.4zm-27.1.1l-6.3 10.2c-.1.1-.1.3-.2.5s-.1.4-.1.5v5.8c0 .2-.1.3-.2.4-.1.1-.2.2-.4.2h-3.7c-.2 0-.3-.1-.4-.2-.1-.1-.2-.2-.2-.4v-5.8c0-.2 0-.3-.1-.6-.1-.2-.1-.4-.2-.5-1-1.7-2-3.4-3.1-5s-2.1-3.3-3.1-5.1c-.1-.1-.1-.3 0-.4 0-.2.1-.2.3-.2h4.5c.2 0 .3 0 .5.1s.3.2.4.4l3.1 5.4c.1.1.2.2.3.2s.2-.1.3-.2l3.1-5.4c.1-.1.2-.3.4-.4.2-.1.3-.1.5-.1h4.5c.2 0 .3.1.3.2l-.2.4zM820 622c0-.2.1-.3.2-.4.1-.1.2-.2.4-.2h3.7c.2 0 .3.1.4.2.1.1.2.2.2.4v10.2c0 .6.1 1.2.3 1.6.2.4.4.7.7 1 .3.2.6.4 1 .5.3.1.6.1 1 .1s.6 0 1-.1.6-.3 1-.5c.3-.2.5-.5.7-1 .2-.4.3-1 .3-1.6V622c0-.2.1-.3.2-.4.1-.1.2-.2.4-.2h3.7c.2 0 .3.1.4.2s.2.2.2.4v10.2c0 1.2-.2 2.2-.5 3.2-.4 1-1 1.8-1.6 2.5-.7.6-1.5 1.2-2.6 1.6-1 .4-2 .5-3.3.5s-2.2-.2-3.3-.5c-1-.4-1.8-.9-2.6-1.6-.7-.6-1.3-1.5-1.6-2.5-.4-1-.5-2-.5-3.2l.2-10.2zm-8.6 10.5h-2.7c-.2 0-.3.1-.4.2-.1.1-.2.2-.2.4v1.4c0 .2.1.3.2.4.1.1.2.2.4.2h2.8c.3 0 .5-.1.9-.4.2-.2.4-.5.4-.9s-.1-.6-.4-1c-.2-.1-.6-.3-1-.3zm-2.7-4.2h2.4c.3 0 .6-.1.9-.4.2-.2.3-.5.3-.9s-.1-.5-.3-.7c-.2-.2-.4-.3-.6-.3H809c-.2 0-.3.1-.4.2-.1.1-.2.2-.2.4v1.2c0 .2.1.3.2.4-.2.1-.1.1.1.1zm7 1.9c.2.1.5.3.7.5.3.2.5.5.7.9.2.3.4.6.5 1.1s.2.9.2 1.4c0 1.1-.2 2-.5 2.7-.3.7-.9 1.3-1.4 1.7-.5.4-1.3.7-2 .9-.7.2-1.6.2-2.4.2h-7.9c-.2 0-.3-.1-.4-.2-.1-.1-.2-.2-.2-.4v-17.2c0-.2.1-.3.2-.4.1-.1.2-.2.4-.2h7.6c.9 0 1.6.1 2.4.2.7.2 1.4.4 1.9.9.5.4 1 1 1.4 1.6.3.6.5 1.4.5 2.4 0 .7-.2 1.4-.5 1.9-.4.5-.7 1-1.2 1.3-.3.4-.3.6 0 .7z"/><path class="st7" d="M954.8 614.4c8.8 0 15.8 7.1 15.8 15.8 0 8.8-7.1 15.8-15.8 15.8s-15.8-7-15.8-15.8c0-8.6 7-15.8 15.8-15.8"/><path class="st11" d="M950.5 632.9c.6.7 1.4 1.4 2 1.7.6.4 1.4.5 2.1.5.5 0 1.1-.2 1.5-.5.4-.3.5-.7.5-1.3 0-.5-.2-1-.5-1.3s-1.1-.6-2.2-1c-1.7-.5-3-1.1-3.7-1.8-.7-.7-1.1-1.7-1.1-3 0-1.5.5-2.8 1.5-3.7s2.4-1.5 4.1-1.7v-1.6h1.5v1.6c.6.1 1.4.2 2 .4.6.2 1.3.5 1.9 1l-1.5 3.3c-.5-.4-1.1-.7-1.6-1-.5-.2-1.1-.3-1.7-.3-.5 0-1 .1-1.4.4-.3.2-.5.6-.5 1.1s.1.7.4 1.1c.3.2.9.5 1.8.7h.1c1.9.5 3.2 1.1 3.7 1.7.4.4.7 1 1 1.5.2.5.3 1.3.3 1.9 0 1.6-.5 3-1.5 4.1-1 1.1-2.2 1.7-4 1.8v2.9h-1.5v-2.8c-1.1 0-2.1-.2-3.1-.6-1-.4-1.8-1-2.7-1.8l2.6-3.3z"/><path class="st7" d="M773.7 175.7h-63.9c-4.4 20.5-8.8 41.1-13.2 61.6s-8.8 41.1-13.2 61.6h90.2v-61.6c0-20.5.1-41.1.1-61.6"/><path class="st10" d="M709.9 175.7H646c-8.8 20.5-17.5 41.1-26.3 61.6s-17.5 41.1-26.3 61.6h90.2c4.4-20.5 8.8-41.1 13.2-61.6s8.7-41.1 13.1-61.6"/><path class="st7" d="M646 175.7h-63.8c-13.2 20.5-26.3 41.1-39.5 61.6s-26.3 41.1-39.5 61.6h90.1c8.8-20.5 17.5-41.1 26.3-61.6s17.6-41.1 26.4-61.6"/><path class="st10" d="M582.2 175.7h-63.9c-17.5 20.5-35.1 41.1-52.6 61.6s-35.1 41.1-52.6 61.6h90.2c13.2-20.5 26.3-41.1 39.5-61.6s26.2-41.1 39.4-61.6"/><path class="st12" d="M683.5 299h90.2v15c0 19.4-25.7 23.9-45.4 23.6-25.7-.2-44.9-5.6-44.9-22.9V299h.1z"/><path class="st13" d="M593.3 299h90.2v15c0 19.4-25.7 23.9-45.4 23.6-25.7-.2-44.9-5.6-44.9-22.9V299h.1z"/><path class="st12" d="M503.1 299h90.2v15c0 19.4-25.7 23.9-45.4 23.6-25.7-.2-44.9-5.6-44.9-22.9V299h.1z"/><path class="st13" d="M412.9 299h90.2v15c0 19.4-25.7 23.9-45.4 23.6-25.7-.2-44.9-5.6-44.9-22.9V299h.1z"/><path class="st10" d="M773.7 175.7h63.9c4.4 20.5 8.8 41.1 13.2 61.6 4.4 20.5 8.8 41.1 13.2 61.6h-90.2v-61.6c0-20.5-.1-41.1-.1-61.6"/><path class="st7" d="M837.6 175.7h63.9c8.8 20.5 17.5 41.1 26.3 61.6s17.5 41.1 26.3 61.6h-90.2c-4.4-20.5-8.8-41.1-13.2-61.6-4.3-20.5-8.7-41.1-13.1-61.6"/><path class="st10" d="M901.5 175.7h63.8c13.2 20.5 26.3 41.1 39.5 61.6s26.3 41.1 39.5 61.6h-90.1c-8.8-20.5-17.5-41.1-26.3-61.6s-17.6-41.1-26.4-61.6"/><path class="st7" d="M965.3 175.7h63.9c17.5 20.5 35.1 41.1 52.6 61.6s35.1 41.1 52.6 61.6h-90.2c-13.2-20.5-26.3-41.1-39.5-61.6s-26.3-41.1-39.4-61.6"/><path class="st13" d="M864 299h-90.2v15c0 19.4 25.7 23.9 45.4 23.6 25.7-.2 44.9-5.6 44.9-22.9V299h-.1z"/><path class="st12" d="M954.2 299H864v15c0 19.4 25.7 23.9 45.4 23.6 25.7-.2 44.9-5.6 44.9-22.9V299h-.1z"/><path class="st13" d="M1044.4 299h-90.2v15c0 19.4 25.7 23.9 45.4 23.6 25.7-.2 44.9-5.6 44.9-22.9V299h-.1z"/><path class="st12" d="M1134.7 299h-90.2v15c0 19.4 25.7 23.9 45.4 23.6 25.7-.2 44.9-5.6 44.9-22.9V299h-.1z"/><path class="st7" d="M924 701.6H792c-3.5 0-6.3 2.9-6.3 6.3 0 3.5 2.9 6.3 6.3 6.3h132c3.5 0 6.3-2.9 6.3-6.3s-2.9-6.3-6.3-6.3m0-26.1H792c-3.5 0-6.3 2.9-6.3 6.3 0 3.5 2.9 6.3 6.3 6.3h132c3.5 0 6.3-2.9 6.3-6.3s-2.9-6.3-6.3-6.3zm49.8 26.1h-23.6c-3.5 0-6.3 2.9-6.3 6.3 0 3.5 2.9 6.3 6.3 6.3h23.6c3.5 0 6.3-2.9 6.3-6.3.1-3.4-2.8-6.3-6.3-6.3zM924 727.8H792c-3.5 0-6.3 2.9-6.3 6.3 0 3.5 2.9 6.3 6.3 6.3h132c3.5 0 6.3-2.9 6.3-6.3s-2.9-6.3-6.3-6.3zm49.8 0h-23.6c-3.5 0-6.3 2.9-6.3 6.3 0 3.5 2.9 6.3 6.3 6.3h23.6c3.5 0 6.3-2.9 6.3-6.3.1-3.4-2.8-6.3-6.3-6.3zm0-52.3h-23.6c-3.5 0-6.3 2.9-6.3 6.3 0 3.5 2.9 6.3 6.3 6.3h23.6c3.5 0 6.3-2.9 6.3-6.3.1-3.4-2.8-6.3-6.3-6.3zM924 496.7H792c-3.5 0-6.3 2.9-6.3 6.3 0 3.5 2.9 6.3 6.3 6.3h132c3.5 0 6.3-2.9 6.3-6.3s-2.9-6.3-6.3-6.3m0-26.1H792c-3.5 0-6.3 2.9-6.3 6.3 0 3.5 2.9 6.3 6.3 6.3h132c3.5 0 6.3-2.9 6.3-6.3 0-3.5-2.9-6.3-6.3-6.3zm49.8 26.1h-23.6c-3.5 0-6.3 2.9-6.3 6.3 0 3.5 2.9 6.3 6.3 6.3h23.6c3.5 0 6.3-2.9 6.3-6.3.1-3.4-2.8-6.3-6.3-6.3zM924 522.9H792c-3.5 0-6.3 2.9-6.3 6.3 0 3.5 2.9 6.3 6.3 6.3h132c3.5 0 6.3-2.9 6.3-6.3 0-3.5-2.9-6.3-6.3-6.3zm49.8 0h-23.6c-3.5 0-6.3 2.9-6.3 6.3 0 3.5 2.9 6.3 6.3 6.3h23.6c3.5 0 6.3-2.9 6.3-6.3.1-3.5-2.8-6.3-6.3-6.3zm0-52.3h-23.6c-3.5 0-6.3 2.9-6.3 6.3 0 3.5 2.9 6.3 6.3 6.3h23.6c3.5 0 6.3-2.9 6.3-6.3.1-3.5-2.8-6.3-6.3-6.3z"/><path class="st10" d="M805.8 403.7H957c12.7 0 23.1 10.4 23.1 23.1 0 12.7-10.4 23.1-23.1 23.1H805.8c-12.7 0-23.1-10.4-23.1-23.1.1-12.7 10.5-23.1 23.1-23.1"/><path class="st0" d="M902.5 418.3c-.1-.2-.1-.3 0-.5.1-.1.2-.2.4-.2h4.1c.2 0 .3.1.4.2.1.1.2.2.3.4l2.9 8.3c0 .2.1.2.2.2s.2-.1.2-.2l2.8-8.3c0-.2.1-.3.3-.4.1-.1.3-.2.5-.2h3.3c.2 0 .3.1.5.2.1.1.2.2.3.4l2.8 8.3c0 .2.1.2.2.2s.2-.1.3-.2l2.9-8.5c.1-.1.2-.3.3-.4.1-.1.3-.2.5-.2h4.1c.2 0 .3.1.4.2.1.1.1.3 0 .4l-6.1 17.1c-.1.2-.2.3-.3.4-.1.1-.3.2-.5.2h-3.2c-.2 0-.3-.1-.5-.2-.1-.1-.2-.2-.3-.4l-2.8-8.3c0-.2-.1-.2-.2-.2s-.2.1-.2.2l-2.8 8.3c0 .2-.1.3-.3.4-.1.1-.3.2-.5.2h-3.2c-.2 0-.3-.1-.5-.2-.1-.1-.2-.2-.3-.4l-6-16.8zm-14.2 8.4c0 .6.1 1.3.3 1.8.2.5.5 1.1 1 1.5.4.4.9.7 1.4 1.1.5.2 1.2.4 1.7.4s1.2-.1 1.7-.4c.5-.2 1.1-.6 1.5-1.1.4-.4.7-1 1-1.5.2-.5.3-1.2.3-1.8s-.1-1.2-.3-1.8c-.2-.5-.5-1.1-1-1.5s-.9-.7-1.5-1.1c-.5-.2-1.2-.4-1.7-.4s-1.2.1-1.7.4c-.5.2-1.1.6-1.4 1.1-.4.4-.7 1-1 1.5 0 .6-.3 1.2-.3 1.8zm-4.9 0c0-1.3.2-2.6.7-3.7.5-1.2 1.2-2.1 2-3 .9-.9 1.8-1.5 3-2s2.4-.7 3.7-.7c1.3 0 2.6.2 3.6.7 1.2.5 2.1 1.2 3 2s1.5 1.8 2 3 .7 2.4.7 3.7c0 1.3-.2 2.6-.7 3.6-.5 1.2-1.2 2.1-2 3-.9.9-1.8 1.5-3 2s-2.4.7-3.6.7-2.6-.2-3.7-.7c-1.2-.5-2.1-1.2-3-2s-1.5-1.8-2-3c-.5-1-.7-2.3-.7-3.6zm-1.9-8.5v17.2c0 .2-.1.3-.2.4-.1.1-.2.2-.4.2h-3.7c-.2 0-.3 0-.5-.1s-.3-.2-.4-.3l-6.5-9.2c-.1-.1-.2-.2-.3-.2-.1 0-.2.1-.2.3v9c0 .2-.1.3-.2.4-.1.1-.2.2-.4.2h-3.6c-.2 0-.3-.1-.4-.2-.1-.1-.2-.2-.2-.4v-17.2c0-.2.1-.3.2-.4.1-.1.2-.2.4-.2h3.7c.2 0 .3 0 .5.1s.3.2.4.3l6.5 9.2c.1.1.2.2.3.2.1 0 .2-.1.2-.3v-9c0-.2.1-.3.2-.4.1-.1.2-.2.4-.2h3.7c.2 0 .3.1.4.2 0 0 .1.1.1.4zm-27.1.1l-6.3 10.2c-.1.1-.1.3-.2.5s-.1.4-.1.5v5.8c0 .2-.1.3-.2.4-.1.1-.2.2-.4.2h-3.7c-.2 0-.3-.1-.4-.2-.1-.1-.2-.2-.2-.4v-5.7c0-.2 0-.3-.1-.6-.1-.2-.1-.4-.2-.5-1-1.7-2-3.4-3.1-5s-2.1-3.3-3.1-5.1c-.1-.1-.1-.3 0-.4 0-.1.1-.2.3-.2h4.5c.2 0 .3 0 .5.1s.3.2.4.4l3.1 5.4c.1.1.2.2.3.2s.2-.1.3-.2l3.1-5.4c.1-.1.2-.3.4-.4.2-.1.3-.1.5-.1h4.5c.2 0 .3.1.3.2 0-.2-.1 0-.2.3zm-34.4-.1c0-.2.1-.3.2-.4.1-.1.2-.2.4-.2h3.7c.2 0 .3.1.4.2.1.1.2.2.2.4v10.2c0 .6.1 1.2.3 1.6.2.4.4.7.7 1 .3.2.6.4 1 .5.3.1.6.1 1 .1s.6 0 1-.1c.3-.1.6-.3 1-.5.3-.2.5-.5.7-1 .2-.4.3-1 .3-1.6v-10.2c0-.2.1-.3.2-.4.1-.1.2-.2.4-.2h3.7c.2 0 .3.1.4.2.1.1.2.2.2.4v10.2c0 1.2-.2 2.2-.5 3.2-.4 1-1 1.8-1.6 2.5-.7.6-1.5 1.2-2.6 1.6-1 .4-2 .5-3.3.5s-2.2-.2-3.3-.5c-1-.4-1.8-.9-2.6-1.6-.7-.6-1.3-1.5-1.6-2.5-.4-1-.5-2-.5-3.2l.2-10.2zm-8.6 10.4h-2.7c-.2 0-.3.1-.4.2s-.2.2-.2.4v1.4c0 .2.1.3.2.4.1.1.2.2.4.2h2.8c.3 0 .5-.1.9-.4.2-.2.4-.5.4-.9 0-.3-.1-.6-.4-1-.2 0-.6-.3-1-.3zm-2.7-4h2.4c.3 0 .6-.1.9-.4.2-.2.3-.5.3-.9 0-.3-.1-.5-.3-.7-.2-.2-.4-.3-.6-.3H809c-.2 0-.3.1-.4.2-.1.1-.2.2-.2.4v1.2c0 .2.1.3.2.4-.2 0-.1.1.1.1zm7 1.9c.2.1.5.3.7.5.3.2.5.5.7.9.2.3.4.6.5 1.1s.2.9.2 1.4c0 1.1-.2 2-.5 2.7-.3.7-.9 1.3-1.4 1.7s-1.3.7-2 .9c-.7.2-1.6.2-2.4.2h-7.9c-.2 0-.3-.1-.4-.2-.1-.1-.2-.2-.2-.4v-17.2c0-.2.1-.3.2-.4.1-.1.2-.2.4-.2h7.6c.9 0 1.6.1 2.4.2.7.2 1.4.4 1.9.9s1 1 1.4 1.6c.3.6.5 1.4.5 2.4 0 .7-.2 1.4-.5 1.9-.4.5-.7 1-1.2 1.3-.3.3-.3.5 0 .7z"/><path class="st7" d="M954.8 410.7c8.8 0 15.8 7.1 15.8 15.8s-7.1 15.8-15.8 15.8-15.8-7.1-15.8-15.8c0-8.8 7-15.8 15.8-15.8"/><path class="st11" d="M950.5 429.1c.6.7 1.4 1.4 2 1.7.6.4 1.4.5 2.1.5.5 0 1.1-.2 1.5-.5.4-.3.5-.7.5-1.3s-.2-1-.5-1.3-1.1-.6-2.2-1c-1.7-.5-3-1.1-3.7-1.8-.7-.7-1.1-1.7-1.1-3 0-1.5.5-2.8 1.5-3.7 1-1 2.4-1.5 4.1-1.7v-1.6h1.5v1.6c.6.1 1.4.2 2 .4.6.2 1.3.5 1.9 1l-1.5 3.3c-.5-.4-1.1-.7-1.6-1-.5-.2-1.1-.3-1.7-.3-.5 0-1 .1-1.4.4-.3.2-.5.6-.5 1.1s.1.7.4 1.1c.3.2.9.5 1.8.7h.1c1.9.5 3.2 1.1 3.7 1.7.4.4.7 1 1 1.5.2.5.3 1.3.3 1.9 0 1.6-.5 3-1.5 4.1s-2.2 1.7-4 1.8v2.9h-1.5V435c-1.1 0-2.1-.2-3.1-.6-1-.4-1.8-1-2.7-1.8l2.6-3.5z"/><path class="st7" d="M619.7 798.9H715c23.5 0 42.7 19.3 42.7 42.7v95.3c0 23.5-19.3 42.7-42.7 42.7h-95.3c-23.5 0-42.7-19.3-42.7-42.7v-95.3c0-23.5 19.2-42.7 42.7-42.7"/><path class="st10" d="M805.8 820.5H957c12.7 0 23.1 10.4 23.1 23.1 0 12.7-10.4 23.1-23.1 23.1H805.8c-12.7 0-23.1-10.4-23.1-23.1.1-12.7 10.5-23.1 23.1-23.1"/><path class="st0" d="M902.5 835c-.1-.2-.1-.4 0-.5.1-.1.2-.2.4-.2h4.1c.2 0 .3.1.4.2.1.1.2.2.3.4l2.9 8.3c0 .2.1.2.2.2s.2-.1.2-.2l2.8-8.3c0-.2.1-.3.3-.4.1-.1.3-.2.5-.2h3.3c.2 0 .3.1.5.2.1.1.2.2.3.4l2.8 8.3c0 .2.1.2.2.2s.2-.1.3-.2l2.9-8.5c.1-.1.2-.3.3-.4s.3-.2.5-.2h4.1c.2 0 .3.1.4.2.1.1.1.3 0 .4l-6.1 17.1c-.1.2-.2.3-.3.4-.1.1-.3.2-.5.2h-3.2c-.2 0-.3-.1-.5-.2-.1-.1-.2-.2-.3-.4l-2.8-8.3c0-.2-.1-.2-.2-.2s-.2.1-.2.2l-2.8 8.3c0 .2-.1.3-.3.4-.1.1-.3.2-.5.2h-3.2c-.2 0-.3-.1-.5-.2-.1-.1-.2-.2-.3-.4l-6-16.8zm-14.2 8.5c0 .6.1 1.3.3 1.8.2.5.5 1.1 1 1.5s.9.7 1.4 1.1c.5.2 1.2.4 1.7.4s1.2-.1 1.7-.4c.5-.2 1.1-.6 1.5-1.1s.7-1 1-1.5c.2-.5.3-1.2.3-1.8s-.1-1.2-.3-1.8c-.2-.5-.5-1.1-1-1.5s-.9-.7-1.5-1.1c-.5-.2-1.2-.4-1.7-.4s-1.2.1-1.7.4c-.5.2-1.1.6-1.4 1.1-.4.4-.7 1-1 1.5 0 .6-.3 1.2-.3 1.8zm-4.9 0c0-1.3.2-2.6.7-3.7.5-1.2 1.2-2.1 2-3 .9-.9 1.8-1.5 3-2s2.4-.7 3.7-.7c1.3 0 2.6.2 3.6.7 1.2.5 2.1 1.2 3 2 .9.9 1.5 1.8 2 3s.7 2.4.7 3.7c0 1.3-.2 2.6-.7 3.6-.5 1.2-1.2 2.1-2 3-.9.9-1.8 1.5-3 2s-2.4.7-3.6.7-2.6-.2-3.7-.7c-1.2-.5-2.1-1.2-3-2-.9-.9-1.5-1.9-2-3-.5-1-.7-2.3-.7-3.6zm-1.9-8.6v17.2c0 .2-.1.3-.2.4-.1.1-.2.2-.4.2h-3.7c-.2 0-.3 0-.5-.1s-.3-.2-.4-.3l-6.5-9.2c-.1-.1-.2-.2-.3-.2-.1 0-.2.1-.2.3v9c0 .2-.1.3-.2.4s-.2.2-.4.2h-3.6c-.2 0-.3-.1-.4-.2-.1-.1-.2-.2-.2-.4V835c0-.2.1-.3.2-.4.1-.1.2-.2.4-.2h3.7c.2 0 .3 0 .5.1s.3.2.4.3l6.5 9.2c.1.1.2.2.3.2.1 0 .2-.1.2-.3v-9c0-.2.1-.3.2-.4.1-.1.2-.2.4-.2h3.7c.2 0 .3.1.4.2 0 .1.1.2.1.4zm-27.1.1l-6.3 10.2c-.1.1-.1.3-.2.5s-.1.4-.1.5v5.8c0 .2-.1.3-.2.4-.1.1-.2.2-.4.2h-3.7c-.2 0-.3-.1-.4-.2-.1-.1-.2-.2-.2-.4v-5.8c0-.2 0-.3-.1-.6-.1-.2-.1-.4-.2-.5-1-1.7-2-3.4-3.1-5s-2.1-3.3-3.1-5.1c-.1-.1-.1-.3 0-.4 0-.2.1-.2.3-.2h4.5c.2 0 .3 0 .5.1s.3.2.4.4l3.1 5.4c.1.1.2.2.3.2s.2-.1.3-.2l3.1-5.4c.1-.1.2-.3.4-.4.2-.1.3-.1.5-.1h4.5c.2 0 .3.1.3.2s-.1.2-.2.4zm-34.4-.1c0-.2.1-.3.2-.4.1-.1.2-.2.4-.2h3.7c.2 0 .3.1.4.2.1.1.2.2.2.4v10.2c0 .6.1 1.2.3 1.6.2.4.4.7.7 1 .3.2.6.4 1 .5.3.1.6.1 1 .1s.6 0 1-.1c.3-.1.6-.3 1-.5.3-.2.5-.5.7-1 .2-.4.3-1 .3-1.6v-10.2c0-.2.1-.3.2-.4.1-.1.2-.2.4-.2h3.7c.2 0 .3.1.4.2s.2.2.2.4v10.2c0 1.2-.2 2.2-.5 3.2-.4 1-1 1.8-1.6 2.5-.7.6-1.5 1.2-2.6 1.6-1 .4-2 .5-3.3.5s-2.2-.2-3.3-.5c-1-.4-1.8-.9-2.6-1.6-.7-.6-1.3-1.5-1.6-2.5-.4-1-.5-2-.5-3.2l.2-10.2zm-8.6 10.5h-2.7c-.2 0-.3.1-.4.2-.1.1-.2.2-.2.4v1.4c0 .2.1.3.2.4.1.1.2.2.4.2h2.8c.3 0 .5-.1.9-.4.2-.2.4-.5.4-.9s-.1-.6-.4-1c-.2-.1-.6-.3-1-.3zm-2.7-4h2.4c.3 0 .6-.1.9-.4.2-.2.3-.5.3-.9 0-.3-.1-.5-.3-.7-.2-.2-.4-.3-.6-.3H809c-.2 0-.3.1-.4.2-.1.1-.2.2-.2.4v1.2c0 .2.1.3.2.4-.2-.1-.1.1.1.1zm7 1.9c.2.1.5.3.7.5.3.2.5.5.7.9.2.3.4.6.5 1.1s.2.9.2 1.4c0 1.1-.2 2-.5 2.7-.3.7-.9 1.3-1.4 1.7-.5.4-1.3.7-2 .9-.7.2-1.6.2-2.4.2h-7.9c-.2 0-.3-.1-.4-.2-.1-.1-.2-.2-.2-.4v-17.2c0-.2.1-.3.2-.4.1-.1.2-.2.4-.2h7.6c.9 0 1.6.1 2.4.2.7.2 1.4.4 1.9.9.5.4 1 1 1.4 1.6.3.6.5 1.4.5 2.4 0 .7-.2 1.4-.5 1.9-.4.5-.7 1-1.2 1.3-.3.3-.3.5 0 .7z"/><path class="st7" d="M954.8 827.4c8.8 0 15.8 7.1 15.8 15.8s-7.1 15.8-15.8 15.8-15.8-7.1-15.8-15.8c0-8.7 7-15.8 15.8-15.8"/><path class="st11" d="M950.5 845.8c.6.7 1.4 1.4 2 1.7.6.4 1.4.5 2.1.5.5 0 1.1-.2 1.5-.5s.5-.7.5-1.3-.2-1-.5-1.3-1.1-.6-2.2-1c-1.7-.5-3-1.1-3.7-1.8-.7-.7-1.1-1.7-1.1-3 0-1.5.5-2.8 1.5-3.7s2.4-1.5 4.1-1.7v-1.6h1.5v1.6c.6.1 1.4.2 2 .4.6.2 1.3.5 1.9 1l-1.5 3.3c-.5-.4-1.1-.7-1.6-1-.5-.2-1.1-.3-1.7-.3-.5 0-1 .1-1.4.4-.3.2-.5.6-.5 1.1s.1.7.4 1.1c.3.2.9.5 1.8.7h.1c1.9.5 3.2 1.1 3.7 1.7.4.4.7 1 1 1.5.2.5.3 1.3.3 1.9 0 1.6-.5 3-1.5 4.1-1 1.1-2.2 1.7-4 1.8v2.9h-1.5v-2.8c-1.1 0-2.1-.2-3.1-.6-1-.4-1.8-1-2.7-1.8l2.6-3.3z"/><path class="st7" d="M924 914.7H792c-3.5 0-6.3 2.9-6.3 6.3 0 3.5 2.9 6.3 6.3 6.3h132c3.5 0 6.3-2.9 6.3-6.3 0-3.6-2.9-6.3-6.3-6.3m0-26.3H792c-3.5 0-6.3 2.9-6.3 6.3 0 3.5 2.9 6.3 6.3 6.3h132c3.5 0 6.3-2.9 6.3-6.3s-2.9-6.3-6.3-6.3zm49.8 26.3h-23.6c-3.5 0-6.3 2.9-6.3 6.3 0 3.5 2.9 6.3 6.3 6.3h23.6c3.5 0 6.3-2.9 6.3-6.3.1-3.6-2.8-6.3-6.3-6.3zM924 940.8H792c-3.5 0-6.3 2.9-6.3 6.3 0 3.5 2.9 6.3 6.3 6.3h132c3.5 0 6.3-2.9 6.3-6.3 0-3.5-2.9-6.3-6.3-6.3zm49.8 0h-23.6c-3.5 0-6.3 2.9-6.3 6.3 0 3.5 2.9 6.3 6.3 6.3h23.6c3.5 0 6.3-2.9 6.3-6.3.1-3.5-2.8-6.3-6.3-6.3zm0-52.4h-23.6c-3.5 0-6.3 2.9-6.3 6.3 0 3.5 2.9 6.3 6.3 6.3h23.6c3.5 0 6.3-2.9 6.3-6.3.1-3.4-2.8-6.3-6.3-6.3z"/><path d="M1073.6 211.8c52.6 0 95.4 42.7 95.4 95.4 0 52.6-42.7 95.4-95.4 95.4-52.6 0-95.4-42.7-95.4-95.4-.1-52.7 42.7-95.4 95.4-95.4" fill-rule="evenodd" clip-rule="evenodd" fill="#fcba23"/><path class="st0" d="M1044.3 350.8l53.4-92.3h11.4l-53.8 92.3h-11zm86.6-24.6c0 7.5-2 13.5-6.2 18s-9.7 6.6-16.7 6.6c-7.1 0-12.6-2.2-16.8-6.6-4.2-4.5-6.2-10.5-6.2-18s2-13.5 6.2-17.9c4.2-4.4 9.7-6.6 16.8-6.6 7 0 12.5 2.2 16.7 6.6 4.2 4.5 6.2 10.4 6.2 17.9zm-22.9 15.3c2.7 0 4.7-1.2 5.9-3.5 1.2-2.4 1.8-6.3 1.8-11.7 0-5.4-.6-9.3-1.8-11.7-1.2-2.4-3.2-3.5-5.9-3.5s-4.7 1.2-5.9 3.5c-1.2 2.4-1.8 6.2-1.8 11.7 0 5.5.6 9.3 1.8 11.7 1.2 2.4 3.3 3.5 5.9 3.5zm-38.8-58.4c0 7.5-2 13.4-6.2 17.9-4.2 4.5-9.7 6.6-16.7 6.6-7.1 0-12.6-2.2-16.7-6.6-4.2-4.4-6.2-10.4-6.2-17.9 0-7.5 2-13.5 6.2-17.9 4.2-4.5 9.7-6.6 16.7-6.6 7.1 0 12.6 2.2 16.7 6.6s6.2 10.4 6.2 17.9zm-23 15.2c2.7 0 4.7-1.2 5.9-3.5 1.2-2.4 1.8-6.2 1.8-11.7 0-5.4-.6-9.3-1.8-11.7-1.2-2.4-3.2-3.5-5.9-3.5s-4.7 1.2-5.9 3.5c-1.2 2.4-1.8 6.2-1.8 11.7 0 5.4.6 9.3 1.8 11.7 1.3 2.3 3.2 3.5 5.9 3.5z"/><path class="st15" d="M1135.2 694.1l.5-76.5c.1-18.8 7.8-35.8 20.1-48.2s29.2-19.9 47.9-19.8c18.6.1 35.5 7.7 47.6 20.1 12.2 12.4 19.6 29.4 19.5 48.3l-.5 76.5c0 2.8 2.2 5.1 5 5.1s5-2.2 5.1-5.1l.5-76.5c.3-43.3-34.2-78.5-77.1-78.6-42.9-.1-77.9 34.9-78.2 78.2l-.5 76.5c0 2.8 2.2 5.1 5 5.1 2.8.1 5-2.2 5.1-5.1"/><defs><path id="SVGID_7_" d="M1297 657.7l-307.6-.8-39 433.9 307.6.8z"/></defs><clipPath id="SVGID_8_"><use xlink:href="#SVGID_7_" overflow="visible"/></clipPath><linearGradient id="SVGID_9_" gradientUnits="userSpaceOnUse" x1="1123.704" y1="127.327" x2="1123.704" y2="470.008" gradientTransform="matrix(1 0 0 -1 0 1125.89)"><stop offset="0" stop-color="#f37b20"/><stop offset="1" stop-color="#fdca7f"/></linearGradient><path clip-path="url(#SVGID_8_)" fill="url(#SVGID_9_)" d="M950.4 656.9H1297v434.8H950.4z"/><path fill="#ed7123" d="M1350.9 657.8l-53.9-.1-39 433.9 126.2.4z"/><path fill="#d86827" d="M1258 1091.6l63.5-56.9 62.7 57.3z"/><path class="st15" d="M1057.4 699.8c0-7.1 5.8-12.7 12.7-12.7 7 0 12.5 5.8 12.5 12.7 0 7.1-5.7 12.7-12.6 12.7-7 0-12.6-5.8-12.6-12.7M1202.6 700.2c0-7.1 5.7-12.7 12.7-12.7 7 0 12.5 5.8 12.5 12.7 0 7.1-5.8 12.7-12.7 12.7-6.9 0-12.5-5.7-12.5-12.7"/><path class="st15" d="M1075.2 694l.5-76.5c.1-18.8 7.8-35.8 20.1-48.2 12.3-12.3 29.2-19.9 47.9-19.8 18.7.1 35.4 7.7 47.6 20.1 12.2 12.4 19.6 29.4 19.5 48.3l-.5 76.5c0 2.8 2.2 5.1 5 5.1s5-2.2 5.1-5.1l.5-76.5c.3-43.3-34.2-78.5-77.1-78.6-42.9-.1-77.9 34.9-78.2 78.2l-.5 76.5c0 2.8 2.2 5.1 5 5.1 2.7 0 5.1-2.3 5.1-5.1"/><path class="st7" d="M1143.7 848.5v11.7h18.3l1.8-11.7h-20.1zm-29 11.7h18.5v-11.7h-21.5l3 11.7zm-23.4 0h12.7l-3-11.7h-13.5l3.8 11.7zm18.1 20.7l-2.7-10.5h-12l3.4 10.5h11.3zm23.9 0v-10.4h-15.9l2.7 10.4h13.2zm25.4 0l1.6-10.4h-16.7v10.4h15.1zm25.3-10.4h-13.2l-1.6 10.4h12.9l1.9-10.4zm3.5-22h-13.4l-1.8 11.7h13.3l1.9-11.7zm-10.1-20.9l-1.6 10.6h13.5l1.7-10.6h-13.6zm-33.8 0v10.6h21.7l1.6-10.6h-23.3zm-37.4 0l2.8 10.6h24.2v-10.6h-27zm-22.1 10.5h14.2l-2.8-10.6h-5.4c-3.4 0-6.2-2.8-6.2-6.2s2.8-6.2 6.2-6.2h115.4l-11.3 69c-.9 5.2-5.5 9.1-10.8 9.1H1108c-6.4.6-7.5 3.4-12 8-3.7 3.7-4.1 6.7-5.2 11.9h82.2c3.4 0 6.1 6.1 6.1 9.5 0 3.4.5.5-2.9.5h-96.8l-3.2-.5c0-11.8 5.1-24.4 13.8-31.9-1.5-1.3-2.7-3-3.3-4.9l-25.8-78.8c-.5-1.5-1.9-2.6-3.5-2.6h-9.2c-3.4 0-6.2-2.8-6.2-6.2s2.8-6.2 6.2-6.2h9.2c7 0 13.2 4.5 15.3 11.1l11.4 35z"/><path class="st7" d="M1105.8 907.8c6.4 0 11.6 5.1 11.6 11.6s-5.1 11.6-11.6 11.6-11.6-5.1-11.6-11.6c0-6.4 5.2-11.6 11.6-11.6M1173.5 907.8c6.4 0 11.6 5.1 11.6 11.6s-5.1 11.6-11.6 11.6c-6.4 0-11.6-5.1-11.6-11.6 0-6.4 5.2-11.6 11.6-11.6"/><path class="st6" d="M427.5 1057.2c-1.3 6.6-7 22.4-5.1 30 18.5 13.6 47 4.9 71.7 5.8 14.9.5 27.3-3.4 30.2-9.1 3.2-6.2-22.9-10.5-40.8-15.1-19.9-5.1-30.4-13.8-30.4-13.8l-25.6 2.2z"/><path class="st0" d="M460.7 1069.9s.2-.5.5-1.4c.6-1.6 1.9-4.2 3.5-6.5-.9-.4-1.6-.9-2.5-1.2-.7 1.1-1.4 2.1-1.9 3.2-1.5 2.7-2.4 5-2.4 5-.2.6.1 1.4.9 1.6.9.3 1.6 0 1.9-.7M474.2 1074.5s.2-.5.5-1.4c.6-1.4 1.7-3.7 3.1-5.9-.9-.3-1.8-.5-2.7-.9-.5.7-1 1.6-1.4 2.4-1.5 2.7-2.4 5-2.4 5-.2.6.1 1.4.9 1.6 1 .2 1.8-.1 2-.8M487.8 1079.1s.2-.5.5-1.4c.6-1.6 2-4.5 3.7-6.7l-2.8-.6c-.6 1-1.3 2-1.8 3-1.5 2.7-2.4 5-2.4 5-.2.6.1 1.4.9 1.6.9.1 1.7-.2 1.9-.9"/><path class="st19" d="M429.2 1030.8l.5 26.4s3.3 1 4.7 2.5c1.4 1.5 3.3 6.4 5.7 6.5 9.1.2 14.2-11.1 14.2-11.1v-24.2l-25.1-.1z"/><path class="st20" d="M469.5 654.4c-29.6 0-55.9.7-55.9.7-9.5 4.2-25.8 25.7-30.5 39.4-4.8 13.7-2.9 36.6-.3 48.4 13.9 65.6 30 103.7 35.3 129.7 3.3 15.9-3.5 16.7-3.5 57 0 36.1 13.1 106.5 13.1 106.5s14.3 4.4 29-.1c0 0 8.7-123.7 11-138.1 4-23.5 5.4-33.4 5.8-74 .6-57.6-4-169.5-4-169.5"/><path class="st6" d="M352.4 1055.5c-2.4 6.4-10.4 21.1-9.6 28.8 6.7 6.7 22.6 9.3 35 8.2 12.3-1.1 20 5.7 35 8.6 14.7 2.8 27.4.9 31.2-4.4 4.1-5.7-21-13.9-38-21.2-18.9-8.1-27.9-18.3-27.9-18.3l-25.7-1.7z"/><path class="st0" d="M383.3 1073.1s.3-.5.7-1.3c.9-1.5 2.6-3.9 4.5-5.9-.7-.5-1.5-1.1-2.2-1.6-.9 1-1.7 1.9-2.5 2.9-1.9 2.5-3.1 4.6-3.1 4.6-.3.6-.1 1.4.6 1.7.8.5 1.6.3 2-.4M395.9 1079.8s.3-.5.7-1.3c.9-1.3 2.2-3.4 4-5.4-.9-.4-1.7-.9-2.5-1.3-.6.6-1.2 1.4-1.7 2-1.9 2.5-3.1 4.6-3.1 4.6-.3.6-.1 1.4.6 1.7.9.5 1.7.3 2-.3M408.6 1086.4s.3-.5.7-1.3c1-1.5 2.8-4.1 4.8-6.1l-2.7-1.1c-.9.9-1.6 1.8-2.2 2.7-1.9 2.5-3.1 4.6-3.1 4.6-.3.6-.1 1.4.6 1.7.8.3 1.6.1 1.9-.5"/><path class="st19" d="M358.1 1029.6l-3.5 26.2s3.1 1.5 4.3 3.1c1.2 1.7 2.4 6.8 4.6 7.3 9 1.6 15.8-8.9 15.8-8.9l3.6-23.9-24.8-3.8z"/><path d="M385.6 1042.3s33.3-98.2 38.4-107.1c5.1-8.9 23.8-166.5 23.2-177.8 0 0 21.5-33.7 17.4-57l-98.3-25.7c-.7 15-3.7 16.2 1.5 53.8 2.7 19.3-1.4 89.7 15.2 182.7-18.5 54.3-26.5 62.4-28.2 123.4 5.3 3.2 22.3 9.5 30.8 7.7" fill="#092978"/><path class="st22" d="M428.6 482.5l29.3 28.6 12.6-29.7-30.2-31.9z"/><path d="M465.8 492.5s-31.7-19.3-29.4-41.5l33.3 28.6-3.9 12.9z" fill="#e96f76"/><path class="st22" d="M436.5 451s1.2 4.7 2.6 8.3c1.4 3.6 27.3 19.6 34.5 21.7 7.2 2.1 17.1 2.4 19.4-22.5 2.2-24.8-.4-47-14.9-60.9-14.4-13.8-39.4-5.7-52 8.3-12.6 14.2-7.3 46.8 10.4 45.1"/><path class="st8" d="M479.9 544.7c2.7 12.2 30.1 48.4-4.1 62.9 1.1 27.4 13.5 122.1 13.5 122.1s-38.3 12.5-73.5 9.7c-33.6-2.7-64.3-17.2-64.3-17.2s15.6-142.5 26.8-186.5c5-14 6.6-27 12.1-34.7 12.2-17.3 29.9-18.6 29.9-18.6l15 6.1 22.7 22.6 4.9-11.8c24.3 16.1 20.7 37 17 45.4"/><path class="st22" d="M461.4 537.2c-7.7-.2-13.2-13.7-20.9-25.1-7.7-11.4-9.5-22.4-23.1-22.1v-6.3c1.7-1 2.8-1.3 2.8-1.3l15 6.1 22.7 22.6 3-7.2c.9 1.9 8.7 33.6.5 33.3"/><path d="M479.2 649.4l-82.6-104.8c2.4 16.6 38.3 107.3 38.3 107.3 4.5 12.9 4.6 11.1 11.1 21.5 2 3.3 32.2 13.7 38.1 15.6-.2-9.4-4.4-26.9-4.9-39.6" fill="#d37427"/><path class="st22" d="M399.4 548.3c-10.2-32.1 30.2-44.9 40.7-19.7 10.4 24.8 33.7 100.4 33.7 100.4s54.1-25.3 80.3-39.3c6.7-3.6 11-10.8 12.6-11 10.4-4.9 32.9-15 29.6-10.6-.7 1.1-11.8 8.5-13.9 13.6-2.5 5.9 10.4 14.3-17.8 26.5-12.2 4.9-99.7 68.8-109.3 60.6-9.3-8.3-53.6-107.7-55.9-120.5"/><path class="st25" d="M458.4 424.9s26.3.9 36.2-7.6c21.7-18.8 6.8-60.2-45.7-44.6-21.6 6.4-33.8 26.3-44.6 42.9-13.5 20.8-30.1 22.1-37.9 24.6-46.8 14.9-61.8 64.2-21.1 91.3.1.1 4-15.8 15.1-17.2-21.2 26.4 8.9 54 14.8 52 3.4-33.6 16.3-96.6 61.2-65.3 23.8-5.7-.5-45.6 1.2-56.6-.1-4.7 2.9-4.5 3.4-4.5.5.1 5.2 3.3 5.2 3.3.8-6.1 4.1-16.9 12.2-18.3"/><path class="st10" d="M664.6 847.9H712.9l15.1 88.5c-8.5-2.9-15 1.2-23 2-2 .2-12.2-3-18.1-2.8-8.1.2-12.7 3.6-17.5 3.1-8.2-1-16.3-4.4-21-4.1-13.5.7-10.8 4.4-21.6 3.5-7-.5-13.7-5.2-20.9-4.7l17.7-85.5h41.1z"/><path fill-rule="evenodd" clip-rule="evenodd" fill="#f38480" d="M623.4 839.6h89.5v8.3h-89.5z"/><path class="st7" d="M769 1032.4c11.1 0 20.2 9.1 20.2 20.2s-9.1 20.2-20.2 20.2-20.2-9.1-20.2-20.2c0-11.3 9-20.2 20.2-20.2"/><path class="st15" d="M267.6 763.9l7.2-37.3c1.7-9.2-.3-18.2-5.1-25.5-4.8-7.2-12.3-12.5-21.4-14.3-9.1-1.8-18.1.3-25.1 5.2-7.2 4.8-12.4 12.4-14.1 21.6l-7.2 37.3c-.2 1.4-1.6 2.2-3 2-1.4-.2-2.2-1.6-2-3l7.2-37.3c4.1-21.2 24.3-35 45.2-30.9 21 4.1 34.6 24.5 30.6 45.7l-7.2 37.3c-.2 1.4-1.6 2.2-3 2-1.4-.1-2.4-1.4-2.1-2.8"/><path fill="#e95f5d" d="M192.2 730.5l150 29.3L319.3 975l-150-29.3z"/><path fill="#d24b4a" d="M165.9 725.4l26.3 5.1-22.9 215.2-61.5-12z"/><path class="st15" d="M169.3 945.7l-25.4-33.8-36.1 21.8zM305 774.2c.6-3.4-1.6-6.7-4.9-7.4-3.4-.6-6.6 1.6-7.3 5-.6 3.4 1.6 6.7 4.9 7.4s6.5-1.6 7.3-5"/><path class="st15" d="M296.8 769.6l7.2-37.3c1.7-9.2-.3-18.2-5.1-25.5-4.8-7.2-12.3-12.5-21.4-14.3s-18.1.3-25.1 5.2c-7.2 4.9-12.4 12.4-14.1 21.6l-7.2 37.3c-.2 1.4-1.6 2.2-3 2-1.4-.3-2.2-1.6-2-3l7.2-37.3c4.1-21.2 24.3-35 45.3-30.9 20.9 4.1 34.6 24.5 30.6 45.7l-7.2 37.3c-.2 1.4-1.6 2.2-3 2-1.5-.1-2.4-1.5-2.2-2.8"/><path class="st20" d="M382.6 767.6L38.8 788l-.1-2.2 1.6 1.5c-.3.4-1 .6-1.5.7l-.1-2.2 1.6 1.5-1.6-1.5h2.1c0 .5-.2 1.1-.5 1.5l-1.6-1.5h2.1-2.1l2-.7.1.7h-2.1l2-.7 18.1 50.6 33.6 93.8 239.8 42.1L390 716.1l4.5 1.1-4.5-1c1.5-7.2 7.2-12.7 14.3-13.9l.7 4.6-1-4.6 39.2-8.8c2.5-.5 4.9 1.1 5.6 3.5.5 2.6-1.1 5-3.5 5.6l-39.2 8.8h-.1c-3.4.6-6.1 3.2-6.8 6.6v.1l-58.7 259.8c-.5 2.5-2.9 4-5.4 3.5L88.2 938.3c-1.6-.3-3-1.4-3.5-3l-34.5-96.4-18.1-50.6c-.3-.7-.4-1.6-.4-2.5 0-1.8.7-3.5 1.8-4.8 1.2-1.3 2.9-2.1 4.8-2.2l343.8-20.4c2.6-.1 4.7 1.8 4.9 4.4.1 2.5-1.8 4.6-4.4 4.8"/><path class="st20" d="M73.9 780.7l44.9 157.5c.2.9-.2 1.7-1.1 1.9-.9.2-1.7-.2-1.9-1.1L70.9 781.5c-.2-.9.2-1.7 1.1-1.9.9-.2 1.7.2 1.9 1.1M111.3 778.4L147 943.2c.2.9-.3 1.7-1.2 1.8-.9.2-1.6-.3-1.8-1.2L108.2 779c-.2-.9.3-1.7 1.2-1.8.8-.2 1.7.4 1.9 1.2M148.7 776.1L175 948.3c.1.9-.4 1.6-1.3 1.8-.9.1-1.6-.4-1.7-1.3l-26.2-172.2c-.1-.9.4-1.6 1.3-1.8.7-.1 1.5.4 1.6 1.3M186.3 773.7l16.3 179.4c.1.9-.5 1.6-1.4 1.7s-1.6-.5-1.7-1.4L183.2 774c-.1-.9.5-1.6 1.4-1.7.9-.1 1.7.6 1.7 1.4M224.1 771.4l6 186.6c0 .9-.6 1.6-1.5 1.6s-1.6-.6-1.6-1.5l-6-186.6c0-.9.6-1.6 1.5-1.6.8 0 1.6.6 1.6 1.5M261.9 769.1L257.1 963c0 .9-.7 1.5-1.6 1.5-.9 0-1.5-.7-1.5-1.6l4.8-193.9c0-.9.7-1.5 1.6-1.5.9 0 1.7.7 1.5 1.6M300 766.7l-15.9 201.1c-.1.9-.9 1.5-1.7 1.4-.9-.1-1.5-.9-1.4-1.7l15.9-201.1c.1-.9.9-1.5 1.7-1.4.9.1 1.4.8 1.4 1.7M351.3 764.4l-40.4 208.1c-.2.9-1 1.4-1.8 1.3-.9-.2-1.4-1-1.2-1.8l40.4-208.1c.2-.9 1-1.4 1.8-1.3.8.2 1.3 1 1.2 1.8"/><path class="st20" d="M365.8 829.2l-311.4 9.6c-.9 0-1.6-.6-1.6-1.5s.6-1.6 1.5-1.6l311.4-9.6c.9 0 1.6.6 1.6 1.5.2.8-.6 1.6-1.5 1.6M349.3 913.4l-277-20.7c-.9-.1-1.5-.9-1.4-1.7.1-.9.9-1.5 1.6-1.4l276.9 20.5c.9.1 1.5.9 1.4 1.7 0 .9-.7 1.6-1.5 1.6M338.6 975.9l27.5 79.2-2.9 1.1 2.8-1.4c.6 1.4 1 2.9 1 4.4 0 2.7-1.1 5.1-2.8 7s-4.3 3-7.1 3H128.3c-1.7 0-3.1-1.4-3.1-3.1 0-1.7 1.4-3.1 3.1-3.1h228.8c1.1 0 1.9-.4 2.7-1.1.6-.6 1.1-1.6 1.1-2.6 0-.5-.1-1.1-.4-1.6l-.1-.3-27.5-79.2c-.6-1.6.2-3.4 1.8-4 1.5-.8 3.3.1 3.9 1.7"/><path class="st25" d="M338.7 997L105 951.6c-.5-.1-1.1-.3-1.5-.7L86.9 936c-1.3-1.2-1.4-3.1-.2-4.4 1.2-1.3 3.1-1.4 4.4-.2l15.9 14.2 233 45.3c1.7.3 2.8 1.9 2.5 3.6-.5 1.7-2.1 2.9-3.8 2.5"/><path class="st7" d="M315.7 1046.3c-10.4 0-18.8 8.5-18.8 18.8s8.5 18.8 18.8 18.8 18.8-8.5 18.8-18.8c0-10.4-8.5-18.8-18.8-18.8"/><path class="st20" d="M306.7 1056.1c2.2-2.2 5.5-3.7 9-3.7s6.7 1.4 9 3.7c2.2 2.2 3.7 5.5 3.7 9s-1.4 6.7-3.7 9c-2.2 2.2-5.5 3.7-9 3.7s-6.7-1.4-9-3.7c-2.2-2.2-3.7-5.5-3.7-9-.1-3.5 1.4-6.7 3.7-9zm9-15.9c-6.8 0-13.1 2.8-17.5 7.3-4.5 4.5-7.3 10.7-7.3 17.7 0 6.8 2.8 13.1 7.3 17.5 4.5 4.5 10.7 7.3 17.5 7.3 6.8 0 13.1-2.8 17.5-7.3 4.5-4.5 7.3-10.7 7.3-17.5s-2.8-13.1-7.3-17.5c-4.5-4.8-10.7-7.5-17.5-7.5z"/><path class="st7" d="M161.3 1046.3c-10.4 0-18.8 8.5-18.8 18.8s8.5 18.8 18.8 18.8 18.8-8.5 18.8-18.8c0-10.4-8.5-18.8-18.8-18.8"/><path class="st20" d="M152.3 1056.1c2.2-2.2 5.5-3.7 9-3.7s6.7 1.4 9 3.7c2.2 2.2 3.7 5.5 3.7 9s-1.4 6.7-3.7 9c-2.2 2.2-5.5 3.7-9 3.7s-6.7-1.4-9-3.7c-2.2-2.2-3.7-5.5-3.7-9-.1-3.5 1.4-6.7 3.7-9zm9-15.9c-6.8 0-13.1 2.8-17.5 7.3-4.5 4.5-7.3 10.7-7.3 17.7 0 6.8 2.8 13.1 7.3 17.5 4.5 4.5 10.7 7.3 17.5 7.3s13.1-2.8 17.5-7.3c4.5-4.5 7.3-10.7 7.3-17.5s-2.8-13.1-7.3-17.5c-4.5-4.8-10.7-7.5-17.5-7.5z"/><path class="st29" d="M269.5 265.1c32 12 48.3 47.6 36.3 79.5-12 32-47.6 48.3-79.5 36.3-32-12-48.3-47.6-36.3-79.5 11.9-32 47.6-48.1 79.5-36.3"/><path class="st7" d="M252.2 310.8s19.4-7 27 4.7c11.9 18.4-28.5 36.7-42.6 42.2-7.6-10-28.9-54.1-8-60.6 13.1-4 23.6 13.7 23.6 13.7"/><path class="st29" d="M376.9 136.3c23.1-.6 42.4 17.7 43 40.8s-17.7 42.4-40.8 43c-23.1.6-42.4-17.7-43-40.8s17.5-42.4 40.8-43"/><path transform="matrix(.9999 -.0115 .0115 .9999 -2.074 4.167)" class="st0" d="M357.2 171.1h8.8v23h-8.8z"/><path class="st0" d="M400.7 173.5c-.5-1.5-2-2.6-3.7-2.5l-16.8-.4c2.4-2.6 2.5-9.2 2.4-12.3 0-1-.9-1.7-1.8-1.7-.6 0-1.3.4-1.6 1.1-.6 1.4-1.9 4-4.4 6.2-2.8 2.7-5.5 7.2-5.5 7.2l.2 23 21.1-.2c2.6 0 4.6-2.1 4.5-4.7v-1.8c0-3.4 6.6-6.3 6.6-9 .2-1.5-.3-3.4-1-4.9"/><path class="st7" d="M1192.9 403.3c23.1-.6 42.4 17.7 43 40.8.6 23.1-17.7 42.4-40.8 43-23.1.6-42.4-17.7-43-40.8-.5-23.2 17.7-42.4 40.8-43"/><path transform="matrix(.9999 -.0113 .0113 .9999 -5.007 13.345)" class="st30" d="M1173.3 437.9h8.8v23h-8.8z"/><path class="st30" d="M1216.9 440.5c-.5-1.5-2-2.6-3.7-2.5l-16.8-.4c2.4-2.6 2.5-9.2 2.4-12.3 0-1-.9-1.7-1.8-1.7-.6 0-1.3.4-1.6 1.1-.6 1.4-1.9 4-4.4 6.2-2.8 2.7-5.5 7.2-5.5 7.2l.2 23 21.1-.2c2.6 0 4.6-2.1 4.5-4.7v-1.8c0-3.4 6.6-6.3 6.6-9 .1-1.6-.5-3.5-1-4.9"/><path class="st31" d="M1295.8 874.1l.3-41.8c.1-10.4 4.3-19.6 11-26.4 6.7-6.7 16.1-10.9 26.2-10.9 10.3 0 19.5 4.3 26.1 11 6.6 6.7 10.7 16.2 10.7 26.4l-.3 41.8c0 1.5 1.2 2.8 2.8 2.8 1.5 0 2.8-1.3 2.8-2.8l.3-41.8c.1-23.8-18.7-43-42.3-43-23.5-.1-42.7 19.2-42.8 42.8l-.3 41.8c0 1.5 1.2 2.8 2.8 2.8 1.4.1 2.6-1.1 2.7-2.7"/><g><defs><path id="SVGID_10_" d="M1384.4 854.2l-168.4-.5-21.4 237.6 168.4.4z"/></defs><clipPath id="SVGID_11_"><use xlink:href="#SVGID_10_" overflow="visible"/></clipPath><linearGradient id="SVGID_12_" gradientUnits="userSpaceOnUse" x1="1289.181" y1="34.641" x2="1289.759" y2="245.494" gradientTransform="matrix(1 0 0 -1 0 1125.89)"><stop offset="0" stop-color="#1e9df8"/><stop offset="1" stop-color="#a2dbff"/></linearGradient><path clip-path="url(#SVGID_11_)" fill="url(#SVGID_12_)" d="M1194.6 853.7h189.8v238.1h-189.8z"/></g><path fill="#4893da" d="M1414 854.2h-29.6l-21.4 237.5 69.1.3z"/><path class="st31" d="M1363 1091.7l34.8-31.1 34.3 31.4zM1253.2 877.2c0-3.9 3.1-7 7-7s6.8 3.1 6.8 7-3.1 7-7 7c-3.8 0-6.8-3.1-6.8-7M1332.7 877.4c0-3.9 3.1-7 7-7s6.8 3.1 6.8 7-3.1 7-7 7-6.8-3.1-6.8-7"/><path class="st31" d="M1263 874l.3-41.8c.1-10.4 4.3-19.6 11-26.4 6.7-6.7 16.1-10.9 26.2-10.9 10.3 0 19.5 4.3 26.1 11 6.6 6.7 10.7 16.2 10.7 26.4l-.3 41.8c0 1.5 1.2 2.8 2.8 2.8 1.5 0 2.8-1.3 2.8-2.8l.3-41.8c.1-23.8-18.7-43-42.3-43-23.5-.1-42.7 19.2-42.8 42.8l-.3 41.8c0 1.5 1.2 2.8 2.8 2.8 1.4.1 2.6-1.1 2.7-2.7"/><path class="st7" d="M1300.4 958.6v6.4h10.1l1-6.4h-11.1zm-15.8 6.5h10.2v-6.4H1283l1.6 6.4zm-12.9 0h7l-1.6-6.4h-7.4l2 6.4zm10 11.3l-1.5-5.7h-6.6l1.9 5.7h6.2zm13 0v-5.7h-8.7l1.5 5.7h7.2zm14 0l.9-5.7h-9.1v5.7h8.2zm13.8-5.7h-7.2l-.9 5.7h7.1l1-5.7zm2-12.1h-7.3l-1 6.4h7.3l1-6.4zm-5.6-11.4l-.9 5.8h7.4l1-5.8h-7.5zm-18.5 0v5.8h11.9l.9-5.8h-12.8zm-20.4 0l1.5 5.8h13.3v-5.8H1280zm-12.2 5.8h7.8l-1.5-5.8h-2.9c-1.9 0-3.4-1.5-3.4-3.4 0-1.8 1.5-3.4 3.4-3.4h63.1l-6.2 37.8c-.4 2.9-3 5-5.9 5H1281c-3.5.3-4.1 1.9-6.6 4.4-2 2-2.2 3.7-2.9 6.5h44.9c1.8 0 3.3 3.3 3.3 5.2 0 1.8.3.3-1.6.3h-53l-1.8-.3c0-6.4 2.8-13.4 7.5-17.4-.9-.7-1.5-1.6-1.8-2.7l-14.1-43.1c-.3-.9-1.1-1.4-1.9-1.4h-5c-1.8 0-3.4-1.5-3.4-3.4s1.5-3.4 3.4-3.4h5c3.9 0 7.2 2.5 8.5 6.1l6.3 19z"/><path class="st7" d="M1279.7 991.2c3.5 0 6.3 2.9 6.3 6.3 0 3.5-2.9 6.3-6.3 6.3-3.5 0-6.3-2.9-6.3-6.3-.1-3.6 2.8-6.3 6.3-6.3M1316.8 991.2c3.5 0 6.3 2.9 6.3 6.3 0 3.5-2.9 6.3-6.3 6.3-3.5 0-6.3-2.9-6.3-6.3-.1-3.6 2.8-6.3 6.3-6.3M1260.5 277.2c26.6-.7 48.8 20.3 49.5 47 .7 26.6-20.3 48.8-46.9 49.5-26.6.7-48.8-20.3-49.5-46.9-.7-26.8 20.3-48.9 46.9-49.6"/><path transform="scale(.99996) rotate(-.642 1242.91 330.4)" class="st30" d="M1237.9 317.1h10.1v26.5h-10.1z"/><path class="st30" d="M1288.1 320c-.6-1.7-2.4-2.9-4.3-2.9l-19.4-.5c2.7-3 2.8-10.6 2.7-14.2 0-1.1-1-2-2-1.9-.7 0-1.5.5-1.8 1.2-.6 1.6-2.2 4.5-5 7.2-3.2 3.1-6.2 8.2-6.2 8.2l.3 26.5 24.3-.3c2.9 0 5.2-2.5 5.1-5.5v-2.1c0-3.9 7.7-7.3 7.6-10.4 0-1.4-.6-3.6-1.3-5.3"/><path class="st29" d="M168.3 163.1c18.7 7 28.1 27.8 21.2 46.4-7 18.7-27.8 28.1-46.4 21.2-18.7-7-28.1-27.8-21.2-46.4 6.9-18.8 27.7-28.2 46.4-21.2"/><path class="st7" d="M158.2 189.7s11.3-4.1 15.7 2.8c7 10.7-16.6 21.4-24.9 24.6-4.5-5.8-16.9-31.6-4.7-35.4 7.8-2.4 13.9 8 13.9 8"/><path d="M741.5 566.7c15.1 0 27.4 12.2 27.4 27.4 0 15.1-12.2 27.4-27.4 27.4-15.1 0-27.4-12.2-27.4-27.4s12.4-27.4 27.4-27.4" fill-rule="evenodd" clip-rule="evenodd" fill="#ee8c21"/><path class="st7" d="M741.5 576.7l5.8 11.3 12.4 1.9-8.9 8.9 2 12.5-11.3-5.8-11.2 5.8 1.9-12.5-8.9-8.9 12.6-1.9z"/><g><path d="M85.6 483.2h163c10.1 0 18.4 10.5 18.4 23.2v107c0 12.7-8.2 23.2-18.4 23.2h-163c-10.1 0-18.4-10.5-18.4-23.2v-107c.1-12.7 8.3-23.2 18.4-23.2" fill-rule="evenodd" clip-rule="evenodd" fill="#62a5e4"/><path class="st7" d="M67.3 549.2h200.6v5.5H67.3zM67.3 562H267v20.1H67.3zM94.8 612.5h34.6v10.4H94.8zM143.7 612.5H158v10.4h-14.3zM80.5 520.6h36.7c1.8 0 3.3 1.9 3.3 4.2v11.3c0 2.4-1.5 4.2-3.3 4.2H80.5c-1.8 0-3.3-1.9-3.3-4.2v-11.3c-.2-2.4 1.3-4.2 3.3-4.2M139.4 520.6h36.7c1.8 0 3.3 1.9 3.3 4.2v11.3c0 2.4-1.5 4.2-3.3 4.2h-36.7c-1.8 0-3.3-1.9-3.3-4.2v-11.3c0-2.4 1.5-4.2 3.3-4.2"/><path class="st0" d="M200.8 598c3-2.7 7.1-4.3 11.6-4.3s8.6 1.6 11.6 4.3c3.1 2.8 5 6.6 5 10.9s-1.9 8.1-5 10.9c-3 2.7-7.1 4.3-11.6 4.3s-8.6-1.6-11.6-4.3c-3.1-2.8-5-6.6-5-10.9.1-4.2 1.9-8.1 5-10.9m11.6-.8c-4 0-7.5 1.4-10 3.6-2.4 2.1-3.9 5-3.9 8.1 0 3.1 1.5 6 3.9 8.1 2.6 2.2 6.1 3.6 10 3.6 4 0 7.5-1.4 10-3.6 2.4-2.1 3.9-5 3.9-8.1 0-3.1-1.5-6-3.9-8.1-2.5-2.2-6-3.6-10-3.6z"/><path class="st0" d="M224.1 598c3-2.7 7.1-4.3 11.6-4.3s8.6 1.6 11.6 4.3c3.1 2.8 5 6.6 5 10.9s-1.9 8.1-5 10.9c-3 2.7-7.1 4.3-11.6 4.3s-8.6-1.6-11.6-4.3c-3.1-2.8-5-6.6-5-10.9s1.9-8.1 5-10.9m11.4-.8c-4 0-7.5 1.4-10 3.6-2.4 2.1-3.9 5-3.9 8.1 0 3.1 1.5 6 3.9 8.1 2.6 2.2 6.1 3.6 10 3.6 4 0 7.5-1.4 10-3.6 2.4-2.1 3.9-5 3.9-8.1 0-3.1-1.5-6-3.9-8.1-2.5-2.2-6-3.6-10-3.6z"/></g><path d="M1604 1092.3H33.7c-4.7 0-8.5 2.4-8.5 5.4s3.8 5.4 8.5 5.4h1570.5c4.7 0 8.5-2.4 8.5-5.4-.2-3-4-5.4-8.7-5.4" fill-rule="evenodd" clip-rule="evenodd" fill="#1a47b6"/></svg>