<svg version="1.1" id="Layer_1" xmlns="http://www.w3.org/2000/svg" xmlns:xlink="http://www.w3.org/1999/xlink" x="0" y="0" viewBox="0 0 1633 1127.5" xml:space="preserve"><style>.st6,.st7,.st8{fill-rule:evenodd;clip-rule:evenodd;fill:#1a47b6}.st7,.st8{fill:#f06}.st8{fill:#d5075a}.st14,.st16,.st19,.st21,.st23,.st25{fill-rule:evenodd;clip-rule:evenodd;fill:#0c2d80}.st16,.st19,.st21,.st23,.st25{fill:#fff}.st19,.st21,.st23,.st25{fill:#092978}.st21,.st23,.st25{fill:#569bdd}.st23,.st25{fill:#1643b4}.st25{fill:#000446}.st26{fill:#630}.st27{fill:#000446}.st28,.st29{fill-rule:evenodd;clip-rule:evenodd;fill:#464878}.st29{fill:#f9c4c7}.st31{fill:#e58927}.st32{fill:#ffef95}.st33{fill:#fbca0d}.st34{fill:#ffd915}.st35{fill:#f9aa28}.st36{fill:#ec9b1a}.st52,.st53,.st54,.st55,.st56{fill-rule:evenodd;clip-rule:evenodd;fill:#fda600}.st53,.st54,.st55,.st56{fill:#ffd115}.st54,.st55,.st56{fill:#fca700}.st55,.st56{fill:#ec830e}.st56{fill:#df641e}</style><path fill="#fff" d="M0 0h1633v1127.5H0z"/><defs><path id="SVGID_1_" d="M251.3 825.6H163c-75.9 0-138 60-138 133.4 0 73.3 62.1 133.4 138 133.4h1192.3c122.9 0 223.4-97.2 223.4-216s-100.5-216-223.4-216c-52 0-99-41.1-99-91.3 0-50.2 42.5-91.3 94.4-91.3h53.4c54 0 98.2-42.8 98.2-94.9 0-52.2-44.2-94.9-98.2-94.9h-152.3c-21 0-38.2-16.6-38.2-37 0-20.3 17.2-37 38.2-37h25.3c14.5 0 26.4-11.5 26.4-25.5 0-14.1-11.9-25.5-26.4-25.5h-95-62.9c-35 0-39 40-127.4 40H801.6c-18.9 0-34.5 15-34.5 33.3 0 18.3 15.5 33.3 34.5 33.3h33.1c27.4 0 49.9 21.7 49.9 48.3 0 26.5-22.5 48.3-49.9 48.3h-49.8c-134.4 0-153.4 33.9-176.9 101.5s-198.5 73-198.5 73h-167c-41.3 0-75.2 32.7-75.2 72.7s33.8 72.7 75.2 72.7h8.6c39.8 0 72.3 31.5 72.3 69.9.2 38.4-32.3 69.6-72.1 69.6zm1100.1-611.7c-14.6 0-26.4-11.5-26.4-25.5 0-14.1 11.8-25.5 26.4-25.5 14.6 0 26.4 11.5 26.4 25.5 0 14.1-11.8 25.5-26.4 25.5z"/></defs><clipPath id="SVGID_2_"><use xlink:href="#SVGID_1_" overflow="visible"/></clipPath><linearGradient id="SVGID_3_" gradientUnits="userSpaceOnUse" x1="801.879" y1="-784.543" x2="801.879" y2="1040.914" gradientTransform="matrix(1 0 0 -1 0 1125.89)"><stop offset="0" stop-color="#1e9df8"/><stop offset=".287" stop-color="#61bafa"/><stop offset=".631" stop-color="#abdbfd"/><stop offset=".877" stop-color="#daeffe"/><stop offset="1" stop-color="#ecf7ff"/></linearGradient><path clip-path="url(#SVGID_2_)" fill="url(#SVGID_3_)" d="M25.1 162.9h1553.6v929.4H25.1z"/><path d="M453 1083.4s53.6-24.4 45.6-62.2c-7.9-37.8-51.5-33.8-45.6-63.6 5.9-29.9 34.5-76.2 6.7-110.1-27.9-33.8-74.2-13.5-79.9-65.9-4.7-42.2-24.2-72.2-62-63.3-35 8.1-61.1 35.2-61.7 99.7-.7 68.6-49.1 49.3-49.6 99.9-.6 50.9 40 50.9 55.7 85.1 7.5 16.1-12 72.8 45.6 80.5H453z" fill="#34b463"/><path d="M323.6 745.7s-.2 1.2-.4 3.4c-.6 6.8-1.8 23.2-1.8 46.2 0 67.1 10.6 189.7 77.4 287.6.9 1.4.5 3.2-.8 4.1-1.4.9-3.2.5-4.1-.7-67.8-99.6-78.4-223.3-78.4-290.9 0-30.9 2.2-50.2 2.3-50.2.2-1.6 1.6-2.8 3.2-2.6 1.7.1 2.8 1.6 2.6 3.1" fill="#24914a"/><path d="M388.6 1092.4s8.5-46.6-23.2-65.6c-31.7-18.9-64-33.7-60.4-64.3 3.5-30.6-5.1-66.7-55.8-67.3-31.3-.5-19.6-33.5-51.4-40.1-19.3-4-32.1 16.2-34.5 36-2.8 22.6 10 44.8-4.7 63.2-19 23.8-26.8 68.3 14.2 80.9 40.9 12.6 4.4 51.4 60.2 57.1h155.6z" fill-rule="evenodd" clip-rule="evenodd" fill="#a2c769"/><path d="M199.9 877.3c1.1 29.7 14.3 72 36.8 112.3 22.6 40.3 54.4 78.8 92.5 101.5 1.4.8 1.8 2.6 1 4s-2.6 1.8-4 1c-39.3-23.5-71.6-62.6-94.5-103.6-22.9-41-36.4-83.8-37.5-114.9-.1-1.6 1.2-3 2.8-3.1 1.4-.1 2.9 1.2 2.9 2.8" fill="#00a551"/><path class="st6" d="M1143.5 989.4c32 32.9 52.1 70.1 68.7 101.6H1319c-.5-.5-1-.9-1.4-1.3-8.2-7.4-15.4-18-19.1-26.6-16.4-37.8-17.3-46.3-31.8-70.5-19.3-32.4-36.2-49-36.2-49l-82 37.6-5 8.2z"/><path class="st7" d="M1315.9 707.5c-7.9 19.4-53.4 70.8-84.9 87.7-30.9 16.6-73.5 33.5-94.2 41.3-7.7 2.9-12.4 4.6-12.4 4.6-32.9 40.4-13.9 112.6 18.9 148.3l116.5-21.3c65.5-12 113.1 15.6 171.4 43.3l-4.7-152.2-68.6-141.2-42-10.5z"/><path class="st8" d="M1118.8 949.7c6.3 15.2 14.9 29 24.6 39.7l116-15c62.2-8 108 7.2 161.7 32.1l-16.5-59.6c-5-.1-33.4-36.3-86.7-35.3-41.4 1-152 26.8-199.1 38.1"/><path class="st6" d="M1604 1092.3H33.7c-4.7 0-8.5 2.4-8.5 5.4s3.8 5.4 8.5 5.4h1570.5c4.7 0 8.5-2.4 8.5-5.4-.2-3-4-5.4-8.7-5.4M1111.6 848.4c-18.1 26.7 3.9 114.7 31.8 141.1-52.3 18.9-123.8-85-44.8-134l13-7.1z"/><path d="M1130.3 849.4c70.5-23.5 120-43.7 158.9-86.9-25.4 42.1-71 62.2-116.2 76.9-23.1 7.6-42.7 10-42.7 10" fill-rule="evenodd" clip-rule="evenodd" fill="#ff9898"/><path d="M1390.3 576.5c44.6-10.6 87.8 20.9 116.3 51.8 41.3 44.8 70.6 106 87.7 164.1 15.9 54.1 24.2 116.4 15.2 172.5-6.1 38.8-22.9 84.9-61.2 102.6-4.4 2.1-9.1 3.7-13.9 4.8-44.6 10.6-87.8-20.9-116.3-51.8-41.3-44.8-70.6-106-87.7-164.1-15.9-54.1-24.2-116.4-15.2-172.5 6.1-38.8 22.9-84.9 61.2-102.6 4.6-2.1 9.2-3.7 13.9-4.8" fill-rule="evenodd" clip-rule="evenodd" fill="#e56a9a"/><path class="st6" d="M1398.6 589.6c66.8-16 151.5 76 189.4 205.4s14.4 247.3-52.3 263.1c-66.8 16-151.5-76-189.4-205.4s-14.5-247.2 52.3-263.1"/><path d="M1445.7 1025.4c-40.5-36.3-77.8-98.2-99.5-172.7-22.3-76-23.4-148.1-6.9-197.9 52.4-10.5 118.3 61.6 147.8 162.6 30 102.3 11.5 195.4-41.4 208z" fill-rule="evenodd" clip-rule="evenodd" fill="#133381"/><path d="M1377.6 925c-11-22.6-20.7-47.4-28.3-73.6-9.4-31.9-15-63.1-17.1-92.4 8.8-4.1 18.3-6.9 28.4-7.8 48-4.9 90.8 30 95.7 78 4.9 48-30 90.8-78 95.7l-.7.1z" fill-rule="evenodd" clip-rule="evenodd" fill="#a5cfdf"/><path d="M1367.6 902.9c-6.9-16.3-13-33.6-18.3-51.5-9.4-31.9-15-63.1-17.1-92.4 8.8-4.1 18.3-6.9 28.4-7.8 30.8-3.2 59.4 10.1 77.2 32.6 3 7.4 5 15.3 5.8 23.6 4.9 47.4-29 89.7-76 95.5" fill-rule="evenodd" clip-rule="evenodd" fill="#e4f5fb"/><path class="st14" d="M1248.6 1006.1c14.5 24.3 15.4 32.7 31.8 70.5 1.9 4.5 4.8 9.6 8.3 14.3h30.4c-.5-.5-1-.9-1.4-1.3-8.2-7.4-15.4-18-19.1-26.6-16.4-37.8-17.3-46.3-31.8-70.5-3.9-6.5-7.7-12.4-11.2-17.5l-25.4 3.2c5.3 7.5 11.8 16.7 18.4 27.9"/><path class="st14" d="M1246.6 986.8s9.3 14.7 16.9 31.5c7.6 16.8 12.8 29.9 12.8 29.9l9.3-4.9-.5-38.1s-8.5-19.1-12.7-22.6c-4.3-3.4-25.8 4.2-25.8 4.2"/><path d="M349.1 990.3h138.3c26.8 0 48.7 21.9 48.7 48.7 0 26.8-21.9 48.7-48.7 48.7H349.1c-26.8 0-48.7-21.9-48.7-48.7 0-26.8 21.9-48.7 48.7-48.7" fill-rule="evenodd" clip-rule="evenodd" fill="#992842"/><path class="st16" d="M472.5 1072.8h322.7v-68.2H472.5c-11.6 0-21.2 15.3-21.2 34.1-.1 18.7 9.5 34.1 21.2 34.1"/><path d="M806 1087.7H471.3c-16.8 0-34.5-22.4-34.5-49.3 0-27 17.8-48.8 34.5-48.8h334.8l-.2 14.7-333.4.3c-11.6 0-21.2 15.3-21.2 34.1s9.6 34.1 21.2 34.1l333.4-.3.1 15.2z" fill-rule="evenodd" clip-rule="evenodd" fill="#ba3954"/><path d="M489.1 1038.5H531c16.1 6 11.4 30.1 20.9 45.9l-24.7-13-18 12.2c-13.9-14.3-6-38.7-20.1-45.1" fill-rule="evenodd" clip-rule="evenodd" fill="#efd817"/><path class="st19" d="M713.9 1055.7h187v17.7c0 9.7-7.9 17.7-17.7 17.7h-187v-17.7c0-9.8 7.9-17.7 17.7-17.7M739.7 954.2H878l22.9 101.5H762.6z"/><path d="M495.5 461.6h672.7c23.8 0 43.3 19.5 43.3 43.3v405.8c0 23.8-19.5 43.3-43.3 43.3H495.5c-23.8 0-43.3-19.5-43.3-43.3V505c-.1-23.8 19.4-43.4 43.3-43.4" fill-rule="evenodd" clip-rule="evenodd" fill="#153ea5"/><path class="st8" d="M289.8 892.1h138.3c26.8 0 48.7 21.9 48.7 48.7 0 26.8-21.9 48.7-48.7 48.7H289.8c-26.8 0-48.7-21.9-48.7-48.7 0-26.8 21.9-48.7 48.7-48.7"/><path class="st16" d="M413.1 974.6h322.7v-68.2H413.1c-11.6 0-21.2 15.3-21.2 34.1s9.6 34.1 21.2 34.1"/><path class="st8" d="M746.7 989.5H412c-16.8 0-34.5-22.4-34.5-49.3 0-27 17.8-48.8 34.5-48.8h334.8l-.2 14.7-333.4.3c-11.6 0-21.2 15.3-21.2 34.1s9.6 34.1 21.2 34.1l333.4-.3.1 15.2z"/><path class="st21" d="M467 461.6h672.7c23.8 0 43.3 19.5 43.3 43.3v405.8c0 23.8-19.5 43.3-43.3 43.3H467c-23.8 0-43.3-19.5-43.3-43.3V505c-.1-23.8 19.4-43.4 43.3-43.4"/><defs><path id="SVGID_4_" d="M466.6 503.7H1140c.5 0 1 .5 1 1v406.6c0 .5-.5 1-1 1H466.6c-.5 0-1-.5-1-1V504.7c0-.6.5-1 1-1"/></defs><clipPath id="SVGID_5_"><use xlink:href="#SVGID_4_" overflow="visible"/></clipPath><linearGradient id="SVGID_6_" gradientUnits="userSpaceOnUse" x1="803.277" y1="240.439" x2="803.277" y2="571.278" gradientTransform="matrix(1 0 0 -1 0 1125.89)"><stop offset="0" stop-color="#8bc1f6"/><stop offset="1" stop-color="#dff2fb"/></linearGradient><path clip-path="url(#SVGID_5_)" fill="url(#SVGID_6_)" d="M465.6 503.7h675.3v408.5H465.6z"/><path class="st23" d="M703.6 1055.7h187v17.7c0 9.7-7.9 17.7-17.7 17.7h-187v-17.7c0-9.8 8-17.7 17.7-17.7M729.4 954.2h138.3l22.9 101.5H752.3z"/><path class="st21" d="M701.6 1064.2h112.6c2.7 0 4.9 2.2 4.9 4.9s-2.2 4.9-4.9 4.9H701.6c-2.7 0-4.9-2.2-4.9-4.9s2.2-4.9 4.9-4.9"/><defs><path id="SVGID_7_" d="M669.7 856l-1.1-9.6c-.5-4 1.8-7.8 5.5-9.3 7.2-2.9 13.9-6.7 20-11.1 3.2-2.3 7.7-2.3 10.8.3l7.5 6c3.9 3.1 9.6 2.4 12.7-1.4l11.5-14.4c3.1-3.9 2.4-9.6-1.4-12.7l-7.5-6c-3.2-2.5-4.2-6.8-2.7-10.5 3-6.9 5.1-14.3 6.3-22 .6-4 3.9-7 7.8-7.5l9.6-1.1c5-.5 8.5-5.1 7.9-10l-2.1-18.3c-.5-5-5.1-8.5-10-7.9l-9.6 1.1c-4 .5-7.8-1.8-9.3-5.5-2.9-7.2-6.7-13.9-11.1-20-2.3-3.2-2.3-7.7.3-10.8l6-7.5c3.2-3.9 2.4-9.6-1.4-12.7L705 653.4c-3.9-3.2-9.6-2.4-12.7 1.4l-6 7.5c-2.5 3.2-6.8 4.2-10.6 2.7-6.9-3-14.3-5.1-22-6.3-4-.6-7-3.9-7.5-7.8l-1.1-9.6c-.5-5-5.1-8.5-10-7.9l-18.3 2.1c-5 .5-8.5 5.1-7.9 10l1.1 9.6c.5 4-1.8 7.8-5.5 9.3-7.2 2.9-13.9 6.7-20 11.1-3.2 2.3-7.7 2.3-10.8-.3l-7.5-6c-3.9-3.1-9.6-2.4-12.7 1.4L542 685c-3.1 3.9-2.4 9.6 1.4 12.7l7.5 6c3.2 2.5 4.2 6.9 2.7 10.6-3 6.9-5.1 14.3-6.3 22-.6 4-3.9 7-7.8 7.5l-9.6 1.1c-5 .5-8.5 5.1-7.9 10l2.1 18.3c.5 5 5.1 8.5 10 7.9l9.6-1.1c4-.5 7.8 1.8 9.3 5.5 2.9 7.2 6.6 13.9 11.1 20 2.3 3.2 2.3 7.7-.3 10.8l-6 7.5c-3.1 3.9-2.4 9.6 1.4 12.7l14.4 11.5c3.9 3.1 9.6 2.4 12.7-1.4l6-7.5c2.5-3.2 6.9-4.2 10.5-2.7 6.9 3 14.3 5.1 22 6.3 4 .6 7 3.9 7.5 7.8l1.1 9.6c.5 5 5.1 8.5 10 7.9l18.3-2.1c4.9-.4 8.5-4.9 8-9.9M555.6 648.4l1.2-4.2c.5-1.8 2.1-3 4-3 3.5 0 7-.5 10.4-1.3 1.8-.5 3.6.4 4.6 2l2.2 3.8c1.2 2 3.6 2.7 5.6 1.5l7.3-4.1c2-1.1 2.7-3.6 1.5-5.6l-2.2-3.8c-.9-1.6-.6-3.6.6-4.9 2.4-2.4 4.6-5.2 6.4-8.3.9-1.5 2.8-2.3 4.6-1.8l4.2 1.2c2.2.6 4.5-.7 5.1-2.9l2.3-8.1c.6-2.2-.7-4.5-2.9-5.1l-4.2-1.2c-1.8-.5-3-2.1-3-4 0-3.5-.5-7-1.3-10.4-.5-1.8.4-3.6 2-4.5l3.8-2.2c2-1.1 2.7-3.6 1.5-5.6l-4.1-7.3c-1.1-2-3.6-2.7-5.6-1.5l-3.8 2.2c-1.6.9-3.6.6-5-.6-2.4-2.4-5.2-4.6-8.3-6.4-1.6-.9-2.3-2.8-1.8-4.6l1.2-4.2c.6-2.2-.7-4.5-2.9-5.1l-8.1-2.3c-2.2-.6-4.5.7-5.1 2.9l-1.2 4.2c-.5 1.8-2.1 3-4 3-3.5 0-7 .5-10.4 1.3-1.8.5-3.6-.4-4.5-2l-2.2-3.8c-1.1-2-3.6-2.7-5.6-1.5l-7.3 4.1c-2 1.1-2.7 3.6-1.5 5.6l2.2 3.8c.9 1.6.6 3.6-.6 5-2.4 2.4-4.6 5.2-6.4 8.3-.9 1.6-2.8 2.3-4.6 1.8l-4.2-1.2c-2.2-.6-4.5.7-5.1 2.9l-2.3 8.1c-.6 2.2.7 4.5 2.9 5.1l4.2 1.2c1.8.5 3 2.1 3 4 0 3.5.5 7 1.3 10.4.5 1.8-.4 3.6-2 4.6l-3.8 2.2c-2 1.2-2.7 3.6-1.5 5.6l4.1 7.3c1.1 2 3.6 2.7 5.6 1.5l3.8-2.2c1.6-.9 3.6-.6 4.9.6 2.4 2.4 5.2 4.6 8.3 6.4 1.5.9 2.3 2.8 1.8 4.6l-1.2 4.2c-.6 2.2.7 4.5 2.9 5.1l8.1 2.3c2.2.4 4.5-.9 5.1-3.1zm-4.6-29.2c-8.8-4-14.1-13.4-13-22.9 1.7-15.7 18-25.1 32.5-18.4 8.8 4 14.1 13.4 13.1 22.9-1.9 15.7-18.3 25.1-32.6 18.4zm362.2 236.1l1.2-4.2c.5-1.8 2.1-3 4-3 3.5 0 7-.5 10.4-1.3 1.8-.5 3.6.4 4.6 2l2.2 3.8c1.2 2 3.6 2.7 5.6 1.5l7.3-4.1c2-1.1 2.7-3.6 1.5-5.6l-2.2-3.8c-.9-1.6-.6-3.6.6-4.9 2.4-2.4 4.6-5.2 6.4-8.3.9-1.5 2.8-2.3 4.6-1.8l4.2 1.2c2.2.6 4.5-.7 5.1-2.9l2.3-8.1c.6-2.2-.7-4.5-2.9-5.1l-4.2-1.2c-1.8-.5-3-2.1-3-4 0-3.5-.5-7-1.3-10.4-.5-1.8.4-3.6 2-4.5l3.8-2.2c2-1.2 2.7-3.6 1.5-5.6l-4.1-7.3c-1.2-2-3.6-2.7-5.6-1.5l-3.8 2.2c-1.6.9-3.6.6-5-.6-2.4-2.4-5.2-4.6-8.3-6.4-1.6-.9-2.3-2.8-1.8-4.6l1.2-4.2c.6-2.2-.7-4.4-2.9-5.1l-8.1-2.3c-2.2-.6-4.5.7-5.1 2.9l-1.2 4.2c-.5 1.8-2.1 3-4 3-3.5 0-7 .5-10.4 1.3-1.8.5-3.6-.4-4.6-2l-2.2-3.8c-1.1-2-3.6-2.7-5.6-1.5l-7.3 4.1c-2 1.1-2.7 3.6-1.5 5.6l2.2 3.8c.9 1.6.6 3.6-.6 5-2.4 2.4-4.6 5.2-6.4 8.3-.9 1.6-2.8 2.3-4.6 1.8l-4.2-1.2c-2.2-.6-4.5.7-5.1 2.9l-2.3 8.1c-.6 2.2.7 4.5 2.9 5.1l4.2 1.2c1.8.5 3 2.1 3 4 0 3.5.5 7 1.3 10.4.5 1.8-.4 3.7-2 4.6l-3.8 2.2c-2 1.2-2.7 3.6-1.5 5.6l4.1 7.3c1.1 2 3.6 2.7 5.6 1.5l3.8-2.2c1.6-.9 3.6-.6 4.9.6 2.4 2.4 5.2 4.6 8.3 6.4 1.5.9 2.3 2.8 1.8 4.6L897 851c-.6 2.2.7 4.5 2.9 5.1l8.1 2.3c2.4.4 4.6-.9 5.2-3.1zm-4.7-29.1c-8.8-4-14.1-13.4-13-22.9 1.7-15.8 18-25.1 32.5-18.4 8.8 4 14.1 13.4 13.1 22.9-1.7 15.7-18.1 24.9-32.6 18.4zm-272-25.6c-20.9-1.1-39.4-15.8-45.1-36-9.4-33.3 16.2-65.6 50.9-63.9 20.9 1.1 39.4 15.8 45.1 36 9.4 33.4-16.3 65.6-50.9 63.9z"/></defs><clipPath id="SVGID_8_"><use xlink:href="#SVGID_7_" overflow="visible"/></clipPath><linearGradient id="SVGID_9_" gradientUnits="userSpaceOnUse" x1="739.411" y1="-244.969" x2="739.411" y2="462.819" gradientTransform="matrix(1 0 0 -1 0 1125.89)"><stop offset="0" stop-color="#1e9df8"/><stop offset=".121" stop-color="#41acf9"/><stop offset=".351" stop-color="#7dc7fb"/><stop offset=".563" stop-color="#addbfd"/><stop offset=".748" stop-color="#cfeafe"/><stop offset=".9" stop-color="#e4f4ff"/><stop offset="1" stop-color="#ecf7ff"/></linearGradient><path clip-path="url(#SVGID_8_)" fill="url(#SVGID_9_)" d="M507.3 545.3h464.2v323.4H507.3z"/><path class="st25" d="M1015 704.7c-8.8 19.6-19.8 37.9-45 41.7-20.5 3.1-88.4-22.9-91.1-41.3-2.7-18.4 9.8-21.4 9.8-21.4s66.8 24.1 72.3 22.3c4.1-1.4 24.2-20.3 36.5-31.6 2.6-2.4 21.3 21.9 17.5 30.3"/><path class="st26" d="M968 1097.1h62.7c3 0 5.4-2.2 5.8-5.1.1-.4.1-.8 0-1.3l-2.5-32.9s-2.6-1.2-6.2-2.1c-2.2-.5-4-2.1-4.7-4.2 0-.2-.1-.3-.1-.5-1.4-6.3-10.6-8.4-12.3-2.2-.2.8-.5 1.5-.5 2.3 0 .2-.1.4-.1.5-.3 1.4-.5 2.5-.6 3.6v.1c-.4 2.7-.3 4.5-.3 4.5-.8 1.1-1.6 2.1-2.4 3.1l-1.2 1.5c-.8 1.1-1.6 2.1-2.4 3.2-.4.5-.7.9-1.1 1.4-.9 1.1-1.7 2.1-2.6 3.1-.4.5-.8.9-1.2 1.3-3.2 3.4-6.5 5.7-10.4 6.2-6.8.9-17.9 1.7-23.3 11.6-.1.2-.2.5-.3.6-.7 2.7 1.1 5.3 3.7 5.3"/><path class="st27" d="M968 1092.1h62.7c3 0 5.4-2.3 5.8-5.1h-72.1c-.8 2.5 1 5.1 3.6 5.1"/><path class="st25" d="M1021.7 665h47.9c11.5 0 28.2 5.8 35.3 14 10 11.7 6.1 143.4 3.1 161.7l-3.5 2.5c0 73.3 10.6 150.9 6.9 221.1l-29 .4-36.9-182.1-17.6-38.6-30.1-2.4-8.1-1.1 7.9-166.2c6.6-5.5 14.8-9.3 24.1-9.3"/><path class="st28" d="M1021.7 665h7.9l1 11.7 6.8 107.9-27-85.4 9-9-6.8-6.8 6.8-18.4c.7.1 1.5 0 2.3 0"/><path class="st25" d="M1075.6 708.2c-4.8-9.8-1.1-29.1 8.9-33.6 2.6-1.2 8.5-3.7 13.4-1 27.7 15.5 73.4 185.6 3.1 161-10.8-3.7-16-106.9-25.4-126.4"/><path class="st28" d="M1060.5 665l-2.5 10.6-20.7 109 37.8-84.2-7.8-10.1 7.6-5.9-4.5-19.6c-2.2-.2-7.5.2-9.9.2"/><path class="st16" d="M1026.4 665c-3.2 23.8 8.2 93.6 11 119.6.8-2.1 23.1-101.3 25.3-119.6h-21.6c-4.9 0-10.5-.6-14.7 0"/><path class="st7" d="M1031.6 739.5c2.3 18.1 4.7 35 5.8 45.1l.4-1.4 1.5-5.3c2.1-8.5 5.6-23.9 9.2-40.9l-4.4-41 3.2-6.6-5.9-6.8-5.9 6.9 3.2 6.4-7.1 43.6z"/><path class="st29" d="M1013.7 641.3c-1.7 11.2 11.1 19.7 19.8 18.9v5.1l-.5.6c-3.1 7.9 5.5 13 8.4 15.7 2.6-2 16.5-5.8 16.8-16.7h-.5v-19.2c.6-.2 1.3-.5 1.9-.8 1.9-1.2 2.7-4.1 2.2-6.9-.5-3-4.6-1-4.6-1 3.5-8.8 8.1-16.2-1.1-21.1-9.1-4.9-27.6-4.5-27.6-4.5l-11.1-1.2c3.1 4.9-2.5 23.7-3.7 31.1"/><path d="M1049.9 651.8c-3.9 10.4-7.6 14.3-16.3 15.5v-7.1c3.3-.4 11.5-3.3 16.3-8.4" fill-rule="evenodd" clip-rule="evenodd" fill="#f28085"/><path class="st25" d="M993.6 841l57.6-.2-10.6 224.3-36.3 1.2z"/><path class="st26" d="M1071.8 1088.7c.5 9.1 32.9 6 38.1 3.2 2-1.1 2.8-3.1 3-5.6.3-4-1.2-9-2.5-13-2.1-6.4-1.8-6.3-3.2-10.7 0 0 .4-7.1-10.3-9.9-10.6-2.7-14.5 15.1-16.3 18.5-1.6 3.2-8.1 7.4-8.8 15.2v2.3"/><path class="st27" d="M1072.3 1091.8c.6 6 32.5 5.3 37.7 2.6 2-1.1 2.8-5 3-7.5-3.4 1.7-9.4 3.9-18.4 4-11 .2-18.9-1.8-22.7-3.9-.1.8.3 4.1.4 4.8"/><path class="st28" d="M1068.8 728.4h24.7v4.5h-24.7z"/><path class="st25" d="M1005.2 591.7c-2.3 11.9 2.4 22.6 14.2 24.4 8.8 1.4 23.9-.3 30.7 6 3.3 3.2 3.3 7.2.9 15.4-.7 2.4-1.8 4.2 1.8 2 1.7-1 4.5-2.5 5.6-1.8 2.4 1.5 1.7 5.4.1 6.9-.7.6-2.2 1.6-2.2 1.6s4.7 1.2 8.9-2.3c4.3-3.4 16.8-13.9 14.3-29-3.6-21.9-12.6-21.2-31.9-27.8-11.2-3.8-12.1-6.8-19.2-10-9.2-4-21.4 5.2-23.2 14.6"/><path class="st31" d="M1011.7 770.2c0-31.9 25.9-57.9 57.9-57.9 31.9 0 57.9 25.9 57.9 57.9 0 31.9-25.9 57.9-57.9 57.9s-57.9-25.9-57.9-57.9"/><path class="st32" d="M1008.2 766.1c0-31.9 25.9-57.9 57.9-57.9 31.9 0 57.9 25.9 57.9 57.9 0 31.9-25.9 57.9-57.9 57.9s-57.9-26-57.9-57.9"/><path class="st33" d="M1010.1 768.1c0-31.9 25.9-57.9 57.9-57.9 31.9 0 57.9 25.9 57.9 57.9 0 31.9-25.9 57.9-57.9 57.9-32-.1-57.9-26-57.9-57.9"/><path class="st34" d="M1010.1 768.1v-.5h115.7v.5c0 31.9-25.9 57.9-57.9 57.9-31.9-.1-57.8-26-57.8-57.9"/><path class="st35" d="M1018.9 768.1c0-27.2 22-49.2 49.2-49.2 27.2 0 49.1 22 49.1 49.2 0 27.2-22 49.1-49.1 49.1-27.3-.1-49.2-22.1-49.2-49.1"/><path class="st36" d="M1093.7 726.1c9.8 11.1 14.1 23.6 14.1 33.4 0 46.9-44.7 57.5-81.2 34.9 8.8 13.6 24 22.6 41.4 22.6 27.2 0 49.1-22 49.1-49.1 0-17.6-9.4-33.1-23.4-41.8"/><path class="st34" d="M1027.4 772.5c0-23.9 19.4-43.4 43.4-43.4 14 0 26.4 6.7 34.4 17-7.5-13-21.6-21.7-37.6-21.7-23.9 0-43.4 19.4-43.4 43.4 0 9.9 3.3 19.1 9 26.4-3.7-6.5-5.8-13.8-5.8-21.7"/><path class="st29" d="M1108.8 810.1c-1.1-.5-2.6-.1-2.9.2-.3.3-3.8 3.7-3.8 3.7l-6.9-9s-2.4 1.2-1.4 3.7 2.1 8.2 2.1 8.2l-5.8-8.5s-1.9.5-1.5 2.3 2.2 8 2.2 8l-6.5-6.9s.4 3.5 1.7 6c1.4 2.4 1.7 3.8 1.7 3.8l-6.5-5s3.8 7 4 7.2c5.6 6.4 12 7.3 17.6 2.4 1.6-1.4 7.3-15.6 6-16.1"/><path class="st31" d="M872.9 1005.2c0-45.8 37.2-83.1 83.1-83.1 45.8 0 83.1 37.2 83.1 83.1 0 45.8-37.2 83.1-83.1 83.1-45.9-.1-83.1-37.2-83.1-83.1"/><path class="st32" d="M868 999.3c0-45.8 37.2-83.1 83.1-83.1 45.8 0 83.1 37.2 83.1 83.1 0 45.8-37.2 83.1-83.1 83.1s-83.1-37.2-83.1-83.1"/><path class="st33" d="M870.7 1002.1c0-45.8 37.2-83.1 83.1-83.1 45.9 0 83.1 37.2 83.1 83.1 0 45.8-37.2 83.1-83.1 83.1-46-.1-83.1-37.2-83.1-83.1"/><path class="st34" d="M870.7 1002.1v-.7h166.1v.7c0 45.8-37.2 83.1-83.1 83.1-46-.1-83-37.2-83-83.1"/><path class="st35" d="M883.2 1002.1c0-38.9 31.6-70.5 70.5-70.5 39 0 70.5 31.6 70.5 70.5 0 39-31.6 70.5-70.5 70.5s-70.5-31.6-70.5-70.5"/><path class="st36" d="M990.5 941.9c14.1 16 20.2 33.9 20.2 47.9 0 67.4-64 82.4-116.5 50.2 12.5 19.6 34.5 32.5 59.4 32.5 39 0 70.5-31.6 70.5-70.5.1-25.4-13.3-47.7-33.6-60.1"/><path class="st34" d="M895.6 1008.6c0-34.4 27.9-62.2 62.2-62.2 20.1 0 38 9.6 49.3 24.3-10.7-18.7-30.9-31.2-53.9-31.2-34.4 0-62.2 27.9-62.2 62.2 0 14.3 4.8 27.4 12.9 37.9-5.4-9.2-8.3-19.8-8.3-31"/><path class="st31" d="M793.5 826.2c0-6.3 1.5-12.4 4.1-17.7h70.5c2.7 5.3 4.1 11.3 4.1 17.7 0 21.7-17.7 39.4-39.4 39.4-21.6 0-39.3-17.7-39.3-39.4"/><path class="st32" d="M791.3 823.4c0-5.2 1-10.3 2.9-14.9h73.1c1.9 4.6 2.9 9.6 2.9 14.9 0 21.7-17.7 39.4-39.4 39.4-21.9 0-39.5-17.7-39.5-39.4"/><path class="st33" d="M792.5 824.7c0-5.8 1.3-11.3 3.4-16.1h71.9c2.3 5 3.4 10.4 3.4 16.1 0 21.7-17.7 39.4-39.4 39.4-21.7.1-39.3-17.6-39.3-39.4"/><path class="st34" d="M792.5 824.7v-.4h78.8v.4c0 21.7-17.7 39.4-39.4 39.4s-39.4-17.6-39.4-39.4"/><path class="st35" d="M798.4 824.7c0-5.9 1.5-11.4 4.1-16.1H861c2.6 4.8 4.1 10.3 4.1 16.1 0 18.5-15 33.5-33.5 33.5-18.1 0-33.2-15.1-33.2-33.5"/><path class="st36" d="M856.8 808.6c1.4 3.7 2.1 7.2 2.1 10.4 0 31.9-30.4 39.1-55.3 23.8 6 9.3 16.3 15.4 28.2 15.4 18.5 0 33.5-15 33.5-33.5 0-5.9-1.5-11.4-4.1-16.1h-4.4z"/><path class="st34" d="M856.2 808.5c.4.4.7.8 1 1.3-.3-.5-.5-.8-.7-1.3h-.3zm-51.9 19.3c0-7.3 2.7-14.1 7.1-19.2h-4.7c-3 4.6-4.7 10.1-4.7 16 0 6.8 2.3 13 6.1 18-2.4-4.4-3.8-9.5-3.8-14.8z"/><path class="st31" d="M718.8 1022.7c0-33 26.7-59.7 59.7-59.7 32.9 0 59.7 26.7 59.7 59.7 0 32.9-26.7 59.7-59.7 59.7s-59.7-26.7-59.7-59.7"/><path class="st32" d="M715.2 1018.5c0-32.9 26.7-59.7 59.7-59.7s59.7 26.7 59.7 59.7-26.7 59.7-59.7 59.7-59.7-26.7-59.7-59.7"/><path class="st33" d="M717.1 1020.6c0-32.9 26.7-59.7 59.7-59.7 32.9 0 59.7 26.7 59.7 59.7s-26.7 59.7-59.7 59.7c-33-.1-59.7-26.8-59.7-59.7"/><path class="st34" d="M717.1 1020.6v-.5h119.3v.5c0 33-26.7 59.7-59.7 59.7-32.9-.1-59.6-26.8-59.6-59.7"/><path class="st35" d="M726.2 1020.6c0-28 22.6-50.7 50.7-50.7 28 0 50.7 22.6 50.7 50.7 0 28-22.6 50.7-50.7 50.7-28-.1-50.7-22.8-50.7-50.7"/><path class="st36" d="M803.4 977.3c10.1 11.5 14.5 24.4 14.5 34.5 0 48.4-46 59.3-83.7 36.1 9 14.1 24.7 23.4 42.7 23.4 28 0 50.7-22.6 50.7-50.7-.1-18.4-9.8-34.4-24.2-43.3"/><path class="st34" d="M735.1 1025.2c0-24.7 20-44.7 44.7-44.7 14.4 0 27.2 6.9 35.5 17.5-7.8-13.4-22.2-22.5-38.8-22.5-24.7 0-44.7 20-44.7 44.7 0 10.3 3.4 19.8 9.3 27.2-3.9-6.5-6-14.1-6-22.2"/><path class="st31" d="M750.9 907.1c0-17.7 14.3-31.9 31.9-31.9s31.9 14.3 31.9 31.9c0 17.7-14.3 31.9-31.9 31.9s-31.9-14.2-31.9-31.9"/><path class="st32" d="M749 904.8c0-17.7 14.3-31.9 31.9-31.9 17.7 0 31.9 14.3 31.9 31.9 0 17.7-14.3 31.9-31.9 31.9-17.6.1-31.9-14.3-31.9-31.9"/><path class="st33" d="M750.1 905.9c0-17.7 14.3-31.9 31.9-31.9 17.7 0 31.9 14.3 31.9 31.9 0 17.7-14.3 31.9-31.9 31.9-17.7.1-31.9-14.3-31.9-31.9"/><path class="st34" d="M750.1 905.9v-.3H814v.3c0 17.7-14.3 31.9-31.9 31.9-17.8.1-32-14.3-32-31.9"/><path class="st35" d="M754.8 905.9c0-15 12.2-27.2 27.2-27.2s27.2 12.2 27.2 27.2-12.2 27.2-27.2 27.2c-15-.1-27.2-12.2-27.2-27.2"/><path class="st36" d="M796.2 882.7c5.4 6.1 7.8 13.1 7.8 18.4 0 25.9-24.6 31.8-44.8 19.3 4.8 7.5 13.3 12.5 22.8 12.5 15 0 27.2-12.2 27.2-27.2-.1-9.6-5.3-18.2-13-23"/><path class="st34" d="M759.6 908.4c0-13.3 10.7-23.9 24-23.9 7.8 0 14.6 3.7 18.9 9.4-4.1-7.2-11.9-12-20.7-12-13.3 0-23.9 10.7-23.9 23.9 0 5.5 1.9 10.6 5 14.6-2.1-3.6-3.3-7.7-3.3-12"/><path class="st31" d="M1151.9 1028.4c0-31 25.2-56.2 56.2-56.2s56.2 25.2 56.2 56.2-25.2 56.2-56.2 56.2-56.2-25.2-56.2-56.2"/><path class="st32" d="M1148.6 1024.4c0-31 25.2-56.2 56.2-56.2s56.2 25.2 56.2 56.2-25.2 56.2-56.2 56.2-56.2-25.1-56.2-56.2"/><path class="st33" d="M1150.3 1026.3c0-31 25.2-56.2 56.2-56.2s56.2 25.2 56.2 56.2c0 31-25.2 56.2-56.2 56.2s-56.2-25.1-56.2-56.2"/><path class="st34" d="M1150.3 1026.3v-.5h112.4v.5c0 31-25.2 56.2-56.2 56.2-31 0-56.2-25.1-56.2-56.2"/><path class="st35" d="M1158.9 1026.3c0-26.3 21.4-47.7 47.7-47.7 26.3 0 47.7 21.4 47.7 47.7 0 26.3-21.4 47.7-47.7 47.7-26.4 0-47.7-21.3-47.7-47.7"/><path class="st36" d="M1231.5 985.7c9.6 10.7 13.7 22.9 13.7 32.4 0 45.6-43.3 55.7-78.8 33.9 8.5 13.3 23.3 22 40.2 22 26.3 0 47.7-21.4 47.7-47.7-.1-17.2-9.2-32.3-22.8-40.6"/><path class="st34" d="M1167.2 1030.7c0-23.3 18.9-42.1 42.1-42.1 13.6 0 25.7 6.4 33.4 16.4-7.3-12.6-20.9-21.1-36.5-21.1-23.3 0-42.1 18.9-42.1 42.1 0 9.7 3.2 18.6 8.8 25.7-3.7-6.2-5.7-13.4-5.7-21"/><defs><path id="SVGID_10_" d="M586.4 362.1H1084L947.9 644l-33.8 147.8H756.2L722.5 644z"/></defs><clipPath id="SVGID_11_"><use xlink:href="#SVGID_10_" overflow="visible"/></clipPath><linearGradient id="SVGID_12_" gradientUnits="userSpaceOnUse" x1="835.214" y1="443.568" x2="835.214" y2="710.547" gradientTransform="matrix(1 0 0 -1 0 1125.89)"><stop offset="0" stop-color="#f70"/><stop offset="1" stop-color="#ffd481"/></linearGradient><path clip-path="url(#SVGID_11_)" fill="url(#SVGID_12_)" d="M586.4 362.1H1084v429.7H586.4z"/><path d="M579.9 363.1l71.4 149.7s147.7 14.3 257.1 6.3c109.4-7.9 115.7-13.4 115.7-13.4l66.2-142.3s-420.1-6.9-420.1-3.5c.1 3.2-90.3 3.2-90.3 3.2" fill-rule="evenodd" clip-rule="evenodd" fill="#ffd481"/><path d="M754.6 789h161.2c5.1 0 9.3 4.1 9.3 9.3 0 5.1-4.1 9.3-9.3 9.3H754.6c-5.1 0-9.3-4.1-9.3-9.3 0-5.1 4.2-9.3 9.3-9.3" fill-rule="evenodd" clip-rule="evenodd" fill="#ffc86b"/><path d="M835.2 372.8c141 0 255.2-4.8 255.2-10.6s-114.3-10.6-255.2-10.6c-141 0-255.2 4.8-255.2 10.6-.1 5.8 114.2 10.6 255.2 10.6" fill-rule="evenodd" clip-rule="evenodd" fill="#ec1c24"/><path d="M1017.6 383.9c-46.5 2-110.5 3.2-180.8 3.2s-133.9-3.2-180.4-5.1c-37.7-1.5-64.5-2.7-75.5-7.1-3.6-1.4-7.5-9.9-7.5-11.6 0-7 30.9-11.9 81-14 46.5-2 110.5-3.2 180.7-3.2 70.3 0 134.1 1.2 180.7 3.2 50.1 2.1 81 6.9 81 14 0 2.8-1.1 8.8-9.5 12.1-13 5-39.2 7.2-69.7 8.5m-182.4-13.2c70.7 0 144 1.4 189.8-.5 28.6-1.2 32.3-10.6 3.2-11.8-125.1-5.2-268.5-4.5-393.5.7-32.7 1.4-33 6.7.3 8 45.9 2 129.5 3.6 200.2 3.6z" fill="#f2b148"/><path fill-rule="evenodd" clip-rule="evenodd" fill="#4887c3" d="M465.6 503.7h11.1v408.5h-11.1z"/><g><defs><path id="SVGID_13_" d="M731.4 294.1c22.4 0 40.4 18.1 40.4 40.4 0 14.5-7.7 27.2-19.1 34.4-1-.1-2.1-.1-3.2-.1-8.5-.1-34.1-.5-40.6-.6-10.8-7.2-18-19.6-18-33.6 0-22.4 18.2-40.5 40.5-40.5"/></defs><clipPath id="SVGID_14_"><use xlink:href="#SVGID_13_" overflow="visible"/></clipPath><linearGradient id="SVGID_15_" gradientUnits="userSpaceOnUse" x1="731.378" y1="757.023" x2="731.395" y2="823.419" gradientTransform="matrix(1 0 0 -1 0 1125.89)"><stop offset="0" stop-color="#1e9df8"/><stop offset="1" stop-color="#b9e4ff"/></linearGradient><path clip-path="url(#SVGID_14_)" fill="url(#SVGID_15_)" d="M690.9 294.1h80.9V369h-80.9z"/><path class="st16" d="M731.3 309.1c6.4 0 11.6 5.2 11.6 11.6 0 6.4-5.2 11.6-11.6 11.6s-11.6-5.2-11.6-11.6c0-6.4 5.2-11.6 11.6-11.6M718.1 336.7h26.6c5.4 0 9.9 4.4 9.9 9.9 0 5.4-4.4 9.9-9.9 9.9h-26.6c-5.4 0-9.9-4.4-9.9-9.9s4.4-9.9 9.9-9.9"/><defs><path id="SVGID_16_" d="M868.1 209.9c29.7 6.4 48.5 35.6 42.1 65.2-6.4 29.7-35.6 48.5-65.2 42.1-29.7-6.4-48.5-35.6-42.1-65.2 6.3-29.5 35.5-48.4 65.2-42.1"/></defs><clipPath id="SVGID_17_"><use xlink:href="#SVGID_16_" overflow="visible"/></clipPath><linearGradient id="SVGID_18_" gradientUnits="userSpaceOnUse" x1="845.021" y1="808.672" x2="865.542" y2="903.951" gradientTransform="matrix(1 0 0 -1 0 1125.89)"><stop offset="0" stop-color="#1e9df8"/><stop offset="1" stop-color="#b9e4ff"/></linearGradient><path clip-path="url(#SVGID_17_)" fill="url(#SVGID_18_)" d="M796.5 203.6h120.2v120.2H796.5z"/><path class="st16" d="M863.8 229.8c8.5 1.8 13.9 10.2 12.1 18.8-1.8 8.5-10.2 13.9-18.8 12.1-8.5-1.8-13.9-10.2-12.1-18.8 1.9-8.5 10.3-13.9 18.8-12.1M838.2 262.6l35.3 7.6c7.2 1.5 11.9 8.8 10.3 16-1.5 7.2-8.8 11.9-16 10.3l-35.3-7.6c-7.2-1.5-11.9-8.8-10.3-16 1.6-7.2 8.8-11.9 16-10.3"/><defs><path id="SVGID_19_" d="M960.3 283.2c20.7 0 37.6 16.9 37.6 37.6s-16.9 37.6-37.6 37.6-37.6-16.9-37.6-37.6c0-20.8 16.8-37.6 37.6-37.6"/></defs><clipPath id="SVGID_20_"><use xlink:href="#SVGID_19_" overflow="visible"/></clipPath><linearGradient id="SVGID_21_" gradientUnits="userSpaceOnUse" x1="960.288" y1="767.582" x2="960.288" y2="834.347" gradientTransform="matrix(1 0 0 -1 0 1125.89)"><stop offset="0" stop-color="#1e9df8"/><stop offset="1" stop-color="#b9e4ff"/></linearGradient><path clip-path="url(#SVGID_20_)" fill="url(#SVGID_21_)" d="M922.7 283.2h75.2v75.2h-75.2z"/><path class="st16" d="M960.3 297.1c6 0 10.8 4.9 10.8 10.8s-4.9 10.8-10.8 10.8c-6 0-10.8-4.9-10.8-10.8 0-6.1 4.7-10.8 10.8-10.8M947.8 322.7h24.7c5.1 0 9.2 4.1 9.2 9.2s-4.1 9.2-9.2 9.2h-24.7c-5.1 0-9.2-4.1-9.2-9.2s4.2-9.2 9.2-9.2"/><defs><path id="SVGID_22_" d="M575.5 200c27.7-9.5 57.7 5.2 67.3 32.8 9.5 27.6-5.2 57.7-32.8 67.3-27.6 9.5-57.7-5.2-67.3-32.8-9.5-27.7 5.2-57.8 32.8-67.3"/></defs><clipPath id="SVGID_23_"><use xlink:href="#SVGID_22_" overflow="visible"/></clipPath><linearGradient id="SVGID_24_" gradientUnits="userSpaceOnUse" x1="609.889" y1="825.937" x2="579.378" y2="914.767" gradientTransform="matrix(1 0 0 -1 0 1125.89)"><stop offset="0" stop-color="#1e9df8"/><stop offset="1" stop-color="#b9e4ff"/></linearGradient><path clip-path="url(#SVGID_23_)" fill="url(#SVGID_24_)" d="M533.2 190.4h119.2v119.2H533.2z"/><path class="st16" d="M581.8 218.5c7.9-2.7 16.6 1.5 19.3 9.4 2.7 7.9-1.5 16.6-9.5 19.3-7.9 2.7-16.6-1.5-19.3-9.4-2.7-7.9 1.5-16.6 9.5-19.3M577.1 258.3L610 247c6.8-2.3 14.2 1.3 16.5 8 2.3 6.8-1.3 14.2-8 16.5l-32.9 11.3c-6.8 2.3-14.2-1.3-16.5-8-2.4-6.8 1.2-14.3 8-16.5"/><defs><path id="SVGID_25_" d="M1023 164.8c24.3 8.3 37.3 34.7 29 59s-34.7 37.3-59 29c-24.3-8.3-37.3-34.7-29-59 8.3-24.4 34.7-37.3 59-29"/></defs><clipPath id="SVGID_26_"><use xlink:href="#SVGID_25_" overflow="visible"/></clipPath><linearGradient id="SVGID_27_" gradientUnits="userSpaceOnUse" x1="992.97" y1="873.265" x2="1019.653" y2="951.265" gradientTransform="matrix(1 0 0 -1 0 1125.89)"><stop offset="0" stop-color="#1e9df8"/><stop offset="1" stop-color="#b9e4ff"/></linearGradient><path clip-path="url(#SVGID_26_)" fill="url(#SVGID_27_)" d="M955.7 156.5h104.6v104.6H955.7z"/><path class="st16" d="M1017.4 181.1c6.9 2.3 10.6 9.9 8.3 17-2.3 6.9-9.9 10.6-17 8.3-6.9-2.3-10.6-9.9-8.3-17 2.5-7.1 10-10.8 17-8.3M992.7 206l28.9 9.9c6 2 9.1 8.6 7.1 14.4-2 6-8.6 9.1-14.4 7.1l-28.9-9.9c-6-2-9.1-8.6-7.1-14.4 1.9-5.9 8.5-9 14.4-7.1"/><g><defs><path id="SVGID_28_" d="M723.4 166.8c20.2 4.3 33.1 24.3 28.8 44.6-4.3 20.2-24.3 33.1-44.6 28.8-20.2-4.3-33.1-24.3-28.8-44.6 4.5-20.3 24.4-33.1 44.6-28.8"/></defs><clipPath id="SVGID_29_"><use xlink:href="#SVGID_28_" overflow="visible"/></clipPath><linearGradient id="SVGID_30_" gradientUnits="userSpaceOnUse" x1="707.643" y1="885.884" x2="721.647" y2="950.903" gradientTransform="matrix(1 0 0 -1 0 1125.89)"><stop offset="0" stop-color="#1e9df8"/><stop offset="1" stop-color="#b9e4ff"/></linearGradient><path clip-path="url(#SVGID_29_)" fill="url(#SVGID_30_)" d="M674.5 162.5h82v82h-82z"/></g><path class="st16" d="M720.4 180.3c5.8 1.3 9.5 6.9 8.2 12.8-1.3 5.8-6.9 9.5-12.8 8.2-5.8-1.3-9.5-6.9-8.2-12.8 1.4-5.7 7.1-9.4 12.8-8.2M703 202.7l24.1 5.2c5 1.1 8.1 6 7 10.9-1.1 5-6 8.1-10.9 7l-24.1-5.2c-5-1.1-8.1-6-7-10.9 1.1-4.9 6-8.1 10.9-7"/><g><defs><path id="SVGID_31_" d="M868.5 72.7c17 5.9 26.2 24.4 20.3 41.4s-24.4 26.2-41.4 20.3c-17-5.9-26.2-24.4-20.3-41.4s24.4-26.1 41.4-20.3"/></defs><clipPath id="SVGID_32_"><use xlink:href="#SVGID_31_" overflow="visible"/></clipPath><linearGradient id="SVGID_33_" gradientUnits="userSpaceOnUse" x1="847.497" y1="991.561" x2="866.237" y2="1046.321" gradientTransform="matrix(1 0 0 -1 0 1125.89)"><stop offset="0" stop-color="#1e9df8"/><stop offset="1" stop-color="#b9e4ff"/></linearGradient><path clip-path="url(#SVGID_32_)" fill="url(#SVGID_33_)" d="M821.4 66.9h73.3v73.3h-73.3z"/></g><path class="st16" d="M864.7 84.1c4.9 1.7 7.5 6.9 5.9 11.9-1.7 4.9-7 7.5-11.9 5.9-4.9-1.7-7.5-6.9-5.9-11.9 1.6-5 6.9-7.6 11.9-5.9M847.3 101.6l20.3 6.9c4.1 1.4 6.4 6 5 10.1-1.4 4.1-6 6.4-10.1 5l-20.3-6.9c-4.1-1.4-6.4-6-5-10.1 1.4-4.1 5.9-6.4 10.1-5"/><g><defs><path id="SVGID_34_" d="M1119.8 161.7c14.7-7.8 32.8-2.2 40.6 12.4 7.8 14.7 2.2 32.8-12.4 40.6-14.7 7.8-32.8 2.2-40.6-12.4s-2.2-32.9 12.4-40.6"/></defs><clipPath id="SVGID_35_"><use xlink:href="#SVGID_34_" overflow="visible"/></clipPath><linearGradient id="SVGID_36_" gradientUnits="userSpaceOnUse" x1="1147.894" y1="911.219" x2="1122.941" y2="958.337" gradientTransform="matrix(1 0 0 -1 0 1125.89)"><stop offset="0" stop-color="#1e9df8"/><stop offset="1" stop-color="#b9e4ff"/></linearGradient><path clip-path="url(#SVGID_35_)" fill="url(#SVGID_36_)" d="M1099.6 153.9h68.6v68.6h-68.6z"/></g><path class="st16" d="M1124.9 171.5c4.2-2.3 9.4-.6 11.6 3.6 2.3 4.2.6 9.4-3.6 11.6-4.2 2.3-9.4.6-11.6-3.6-2.2-4.2-.5-9.4 3.6-11.6M1125.8 194.2l17.5-9.3c3.6-1.9 8-.5 9.9 3.1 1.9 3.6.5 8-3.1 9.9l-17.5 9.3c-3.6 1.9-8 .5-9.9-3.1-1.8-3.6-.5-8 3.1-9.9"/><g><defs><path id="SVGID_37_" d="M621.7 90.8c17.1-9.1 38.3-2.5 47.4 14.6s2.5 38.3-14.6 47.4c-17.1 9.1-38.3 2.5-47.4-14.6-9-17.1-2.5-38.4 14.6-47.4"/></defs><clipPath id="SVGID_38_"><use xlink:href="#SVGID_37_" overflow="visible"/></clipPath><linearGradient id="SVGID_39_" gradientUnits="userSpaceOnUse" x1="654.589" y1="973.212" x2="625.438" y2="1028.24" gradientTransform="matrix(1 0 0 -1 0 1125.89)"><stop offset="0" stop-color="#1e9df8"/><stop offset="1" stop-color="#b9e4ff"/></linearGradient><path clip-path="url(#SVGID_38_)" fill="url(#SVGID_39_)" d="M598.1 81.7h80.2v80.2h-80.2z"/></g><path class="st16" d="M627.8 102.2c4.9-2.6 11-.7 13.6 4.1 2.6 4.9.7 11-4.1 13.6-4.9 2.6-11 .7-13.6-4.1-2.7-4.9-.8-11 4.1-13.6M628.8 128.7l20.4-10.8c4.1-2.3 9.4-.6 11.6 3.6 2.3 4.1.6 9.4-3.6 11.6L636.8 144c-4.1 2.3-9.4.6-11.6-3.6-2.2-4.2-.6-9.4 3.6-11.7"/></g><path class="st52" d="M1103.8 1064.9h137.8v17.7h-137.8z"/><path class="st52" d="M1224.2 1064.9h17.5v17.7h-17.5z"/><path class="st53" d="M1206.5 1064.9h17.7v17.7h-17.7z"/><path class="st54" d="M1143 1064.9h63.6v17.7H1143z"/><path class="st55" d="M1116.2 1064.9h26.7v17.7h-26.7z"/><path class="st56" d="M1110.3 1082.5h124.6v1.7h-124.6z"/><path class="st52" d="M1130.3 1045.5h137.8v17.7h-137.8z"/><path class="st52" d="M1250.7 1045.5h17.5v17.7h-17.5z"/><path class="st53" d="M1233 1045.5h17.7v17.7H1233z"/><path class="st54" d="M1169.4 1045.5h63.6v17.7h-63.6z"/><path class="st55" d="M1142.7 1045.5h26.7v17.7h-26.7z"/><path class="st56" d="M1136.8 1063.1h124.6v1.7h-124.6z"/><path class="st52" d="M1106.1 1026.1h137.8v17.7h-137.8z"/><path class="st52" d="M1226.4 1026.1h17.5v17.7h-17.5z"/><path class="st53" d="M1208.8 1026.1h17.7v17.7h-17.7z"/><path class="st54" d="M1145.3 1026.1h63.6v17.7h-63.6z"/><path class="st55" d="M1118.5 1026.1h26.7v17.7h-26.7z"/><path class="st56" d="M1112.6 1043.7h124.6v1.7h-124.6z"/><path class="st52" d="M740.3 1064.9h137.8v17.7H740.3z"/><path class="st52" d="M860.6 1064.9h17.5v17.7h-17.5z"/><path class="st53" d="M843 1064.9h17.7v17.7H843z"/><path class="st54" d="M779.5 1064.9h63.6v17.7h-63.6z"/><path class="st55" d="M752.7 1064.9h26.7v17.7h-26.7z"/><path class="st56" d="M746.8 1082.5h124.6v1.7H746.8z"/></svg>